M48
; DRILL file {KiCad (5.1.10)-1} date 01/30/23 22:50:45
; FORMAT={-:-/ absolute / inch / decimal}
; #@! TF.CreationDate,2023-01-30T22:50:45+05:00
; #@! TF.GenerationSoftware,Kicad,Pcbnew,(5.1.10)-1
; #@! TF.FileFunction,Plated,1,2,PTH
FMAT,2
INCH
T1C0.0315
T2C0.0354
T3C0.0394
T4C0.0433
T5C0.0512
%
G90
G05
T1
X2.054Y-2.198
X2.055Y-2.001
X2.343Y-2.468
X2.343Y-2.7672
X2.654Y-2.198
X2.655Y-2.001
X2.854Y-2.07
X2.854Y-2.17
X2.854Y-2.27
X2.854Y-2.37
X3.154Y-2.07
X3.154Y-2.17
X3.154Y-2.27
X3.154Y-2.37
X3.347Y-2.11
X3.357Y-2.314
X3.648Y-2.559
X3.648Y-2.8582
X3.947Y-2.11
X3.957Y-2.314
X4.879Y-2.078
X4.879Y-2.178
X4.879Y-2.278
X4.879Y-2.378
X4.879Y-2.478
X4.879Y-2.578
X4.879Y-2.678
X4.879Y-2.778
X5.179Y-2.078
X5.179Y-2.178
X5.179Y-2.278
X5.179Y-2.378
X5.179Y-2.478
X5.179Y-2.578
X5.179Y-2.678
X5.179Y-2.778
X6.055Y-2.022
X6.06Y-2.224
X6.353Y-2.485
X6.353Y-2.7842
X6.558Y-3.1886
X6.558Y-3.287
X6.613Y-3.887
X6.655Y-2.022
X6.66Y-2.224
X6.755Y-3.192
X6.755Y-3.292
X6.755Y-3.392
X6.755Y-3.492
X6.846Y-2.074
X6.846Y-2.174
X6.846Y-2.274
X6.846Y-2.374
X6.8566Y-3.687
X6.955Y-3.687
X7.055Y-3.192
X7.055Y-3.292
X7.055Y-3.392
X7.055Y-3.492
X7.146Y-2.074
X7.146Y-2.174
X7.146Y-2.274
X7.146Y-2.374
X7.213Y-3.887
X7.356Y-2.104
X7.356Y-2.338
X7.394Y-3.721
X7.394Y-4.021
X7.601Y-3.718
X7.601Y-4.018
X7.656Y-2.598
X7.656Y-2.8972
X7.956Y-2.104
X7.956Y-2.338
T2
X2.142Y-1.708
X2.142Y-1.808
X3.862Y-1.828
X3.862Y-1.928
X6.144Y-1.724
X6.144Y-1.824
X7.864Y-1.797
X7.864Y-1.897
T3
X4.4775Y-2.5825
X4.48Y-2.28
X4.672Y-2.58
X4.6775Y-2.2775
X5.38Y-2.275
X5.3825Y-2.58
X5.577Y-2.275
X5.5795Y-2.5775
T4
X2.959Y-3.111
X2.959Y-3.211
X2.959Y-3.311
T5
X4.258Y-3.171
X4.3564Y-3.0214
X4.4549Y-3.171
X7.2774Y-3.3646
X7.427Y-3.2661
X7.427Y-3.463
T3
G00X2.3258Y-3.1646
M15
G01X2.3258Y-3.2434
M16
G05
G00X2.4045Y-3.389
M15
G01X2.4833Y-3.389
M16
G05
G00X2.562Y-3.1646
M15
G01X2.562Y-3.2434
M16
G05
T0
M30
