  0
SECTION
  2
HEADER
  9
$ACADVER
  1
AC1006
  9
$EXTMIN
 10
0.000000
 20
0.000000
 30
0.000000
  9
$EXTMAX
 10
2048.000000
 20
2048.000000
 30
0.000000
  0
ENDSEC
  0
SECTION
  2
ENTITIES
  0
POLYLINE
  8
0
 66
1
 70
1
  0
VERTEX
  8
0
 10
990.000000
 20
2047.399056
 42
0.008542
  0
VERTEX
  8
0
 10
945.787342
 20
2044.826630
 42
0.010138
  0
VERTEX
  8
0
 10
904.151006
 20
2040.839233
 42
0.010406
  0
VERTEX
  8
0
 10
863.686444
 20
2035.278659
 42
0.010040
  0
VERTEX
  8
0
 10
823.000000
 20
2027.981876
 42
0.027694
  0
VERTEX
  8
0
 10
712.291359
 20
1999.369919
 42
0.028027
  0
VERTEX
  8
0
 10
605.875813
 20
1958.788699
 42
0.028057
  0
VERTEX
  8
0
 10
504.774924
 20
1906.608309
 42
0.027892
  0
VERTEX
  8
0
 10
409.944170
 20
1843.342887
 42
0.007872
  0
VERTEX
  8
0
 10
382.070639
 20
1821.717070
 42
0.009515
  0
VERTEX
  8
0
 10
356.627372
 20
1800.519569
 42
0.009350
  0
VERTEX
  8
0
 10
331.643907
 20
1778.055665
 42
0.007153
  0
VERTEX
  8
0
 10
305.145672
 20
1752.599105
 42
0.020057
  0
VERTEX
  8
0
 10
245.137411
 20
1688.317553
 42
0.021553
  0
VERTEX
  8
0
 10
191.971044
 20
1620.908733
 42
0.021683
  0
VERTEX
  8
0
 10
145.089150
 20
1549.564312
 42
0.020844
  0
VERTEX
  8
0
 10
103.897320
 20
1473.500000
 42
0.034086
  0
VERTEX
  8
0
 10
51.040257
 20
1343.619185
 42
0.034606
  0
VERTEX
  8
0
 10
16.636234
 20
1208.411902
 42
0.034467
  0
VERTEX
  8
0
 10
1.112888
 20
1069.230326
 42
0.033227
  0
VERTEX
  8
0
 10
4.552468
 20
927.500000
 42
0.031722
  0
VERTEX
  8
0
 10
23.848247
 20
803.289807
 42
0.031000
  0
VERTEX
  8
0
 10
58.795854
 20
681.534613
 42
0.030893
  0
VERTEX
  8
0
 10
108.672920
 20
564.629244
 42
0.030995
  0
VERTEX
  8
0
 10
172.526937
 20
454.894085
 42
0.030417
  0
VERTEX
  8
0
 10
246.876551
 20
357.047948
 42
0.029819
  0
VERTEX
  8
0
 10
333.013358
 20
268.255764
 42
0.029813
  0
VERTEX
  8
0
 10
429.120224
 20
190.323335
 42
0.030374
  0
VERTEX
  8
0
 10
533.236914
 20
124.900604
 42
0.025286
  0
VERTEX
  8
0
 10
625.170596
 20
80.523064
 42
0.024862
  0
VERTEX
  8
0
 10
721.627822
 20
45.373857
 42
0.024928
  0
VERTEX
  8
0
 10
820.837208
 20
20.053499
 42
0.025756
  0
VERTEX
  8
0
 10
921.000000
 20
5.064921
 42
0.003822
  0
VERTEX
  8
0
 10
948.806521
 20
2.572504
 42
0.009430
  0
VERTEX
  8
0
 10
969.250175
 20
1.285078
 42
0.008454
  0
VERTEX
  8
0
 10
990.982521
 20
0.695466
 42
0.002554
  0
VERTEX
  8
0
 10
1024.000000
 20
0.526796
 42
0.002591
  0
VERTEX
  8
0
 10
1057.114594
 20
0.698379
 42
0.008448
  0
VERTEX
  8
0
 10
1079.033257
 20
1.295995
 42
0.009508
  0
VERTEX
  8
0
 10
1099.535397
 20
2.592844
 42
0.004020
  0
VERTEX
  8
0
 10
1127.000000
 20
5.077607
 42
0.048924
  0
VERTEX
  8
0
 10
1320.607471
 20
43.525453
 42
0.048629
  0
VERTEX
  8
0
 10
1503.470441
 20
118.903760
 42
0.048494
  0
VERTEX
  8
0
 10
1668.788210
 20
228.419956
 42
0.048098
  0
VERTEX
  8
0
 10
1810.415543
 20
368.000000
 42
0.038031
  0
VERTEX
  8
0
 10
1899.717022
 20
492.947493
 42
0.037482
  0
VERTEX
  8
0
 10
1969.552280
 20
630.571377
 42
0.037548
  0
VERTEX
  8
0
 10
2017.955152
 20
776.833641
 42
0.038477
  0
VERTEX
  8
0
 10
2043.447532
 20
927.500000
 42
0.010882
  0
VERTEX
  8
0
 10
2046.591400
 20
973.037359
 42
0.010430
  0
VERTEX
  8
0
 10
2047.809165
 20
1019.318115
 42
0.010519
  0
VERTEX
  8
0
 10
2047.093984
 20
1065.190180
 42
0.011612
  0
VERTEX
  8
0
 10
2044.438928
 20
1109.500000
 42
0.035914
  0
VERTEX
  8
0
 10
2021.769292
 20
1254.707456
 42
0.036120
  0
VERTEX
  8
0
 10
1978.578429
 20
1394.890159
 42
0.036067
  0
VERTEX
  8
0
 10
1915.588862
 20
1527.589410
 42
0.035577
  0
VERTEX
  8
0
 10
1833.930190
 20
1650.500000
 42
0.014055
  0
VERTEX
  8
0
 10
1801.774606
 20
1689.807834
 42
0.011952
  0
VERTEX
  8
0
 10
1765.719556
 20
1729.480815
 42
0.011878
  0
VERTEX
  8
0
 10
1727.540303
 20
1767.666280
 42
0.013333
  0
VERTEX
  8
0
 10
1689.000000
 20
1802.509484
 42
0.027057
  0
VERTEX
  8
0
 10
1602.079365
 20
1869.178006
 42
0.026900
  0
VERTEX
  8
0
 10
1508.303368
 20
1926.210123
 42
0.026840
  0
VERTEX
  8
0
 10
1408.733980
 20
1972.958353
 42
0.026653
  0
VERTEX
  8
0
 10
1304.500000
 20
2008.893577
 42
0.014039
  0
VERTEX
  8
0
 10
1252.311293
 20
2022.254344
 42
0.013469
  0
VERTEX
  8
0
 10
1198.732084
 20
2032.870880
 42
0.013188
  0
VERTEX
  8
0
 10
1143.536311
 20
2040.778781
 42
0.012168
  0
VERTEX
  8
0
 10
1086.500000
 20
2046.017565
 42
0.011370
  0
VERTEX
  8
0
 10
1069.979050
 20
2046.753554
 42
0.001866
  0
VERTEX
  8
0
 10
1038.004647
 20
2047.330685
 42
0.001827
  0
VERTEX
  8
0
 10
1006.021468
 20
2047.671664
 42
0.012011
  0
SEQEND
  0
POLYLINE
  8
0
 66
1
 70
1
  0
VERTEX
  8
0
 10
1069.000000
 20
2028.978055
 42
-0.041908
  0
VERTEX
  8
0
 10
1240.161301
 20
2006.425111
 42
-0.043384
  0
VERTEX
  8
0
 10
1403.113393
 20
1955.752010
 42
-0.043255
  0
VERTEX
  8
0
 10
1555.308527
 20
1877.548049
 42
-0.041166
  0
VERTEX
  8
0
 10
1694.500000
 20
1773.176607
 42
-0.012108
  0
VERTEX
  8
0
 10
1712.042491
 20
1756.837390
 42
-0.003891
  0
VERTEX
  8
0
 10
1737.288310
 20
1731.767824
 42
-0.003898
  0
VERTEX
  8
0
 10
1762.159865
 20
1706.288303
 42
-0.011954
  0
VERTEX
  8
0
 10
1778.455171
 20
1688.500000
 42
-0.015184
  0
VERTEX
  8
0
 10
1822.669132
 20
1634.639067
 42
-0.017120
  0
VERTEX
  8
0
 10
1861.717841
 20
1580.258645
 42
-0.017262
  0
VERTEX
  8
0
 10
1896.676052
 20
1523.747813
 42
-0.015973
  0
VERTEX
  8
0
 10
1928.620552
 20
1463.500000
 42
-0.028633
  0
VERTEX
  8
0
 10
1972.656188
 20
1358.860552
 42
-0.028556
  0
VERTEX
  8
0
 10
2004.493686
 20
1249.781710
 42
-0.028528
  0
VERTEX
  8
0
 10
2023.719937
 20
1137.677155
 42
-0.028442
  0
VERTEX
  8
0
 10
2030.085871
 20
1024.000000
 42
-0.036060
  0
VERTEX
  8
0
 10
2019.291389
 20
876.427529
 42
-0.037171
  0
VERTEX
  8
0
 10
1987.410707
 20
733.468125
 42
-0.037172
  0
VERTEX
  8
0
 10
1934.714212
 20
596.807876
 42
-0.036065
  0
VERTEX
  8
0
 10
1861.911348
 20
468.000000
 42
-0.038199
  0
VERTEX
  8
0
 10
1767.192238
 20
346.684338
 42
-0.038061
  0
VERTEX
  8
0
 10
1655.012601
 20
241.030767
 42
-0.038054
  0
VERTEX
  8
0
 10
1528.094093
 20
153.586376
 42
-0.038157
  0
VERTEX
  8
0
 10
1389.500000
 20
86.476260
 42
-0.018487
  0
VERTEX
  8
0
 10
1322.720938
 20
63.026735
 42
-0.017722
  0
VERTEX
  8
0
 10
1253.450411
 20
44.206256
 42
-0.017674
  0
VERTEX
  8
0
 10
1182.828101
 20
30.293801
 42
-0.018133
  0
VERTEX
  8
0
 10
1112.000000
 20
21.544871
 42
-0.010020
  0
VERTEX
  8
0
 10
1078.528110
 20
19.312351
 42
-0.007181
  0
VERTEX
  8
0
 10
1041.043244
 20
18.104948
 42
-0.007218
  0
VERTEX
  8
0
 10
1003.898328
 20
17.978589
 42
-0.010833
  0
VERTEX
  8
0
 10
971.500000
 20
19.038388
 42
-0.051543
  0
VERTEX
  8
0
 10
764.543174
 20
51.876568
 42
-0.052415
  0
VERTEX
  8
0
 10
569.909815
 20
126.269961
 42
-0.052324
  0
VERTEX
  8
0
 10
394.705278
 20
239.655215
 42
-0.051021
  0
VERTEX
  8
0
 10
245.209461
 20
387.807054
 42
-0.026574
  0
VERTEX
  8
0
 10
184.070806
 20
470.816228
 42
-0.025510
  0
VERTEX
  8
0
 10
131.175175
 20
560.954102
 42
-0.025457
  0
VERTEX
  8
0
 10
87.633094
 20
656.204873
 42
-0.026190
  0
VERTEX
  8
0
 10
54.458365
 20
754.500000
 42
-0.030447
  0
VERTEX
  8
0
 10
29.679055
 20
869.485427
 42
-0.029180
  0
VERTEX
  8
0
 10
18.595350
 20
988.277368
 42
-0.029118
  0
VERTEX
  8
0
 10
21.408482
 20
1107.808118
 42
-0.029999
  0
VERTEX
  8
0
 10
38.130268
 20
1225.000000
 42
-0.045419
  0
VERTEX
  8
0
 10
90.282325
 20
1398.192504
 42
-0.045096
  0
VERTEX
  8
0
 10
172.941851
 20
1559.560716
 42
-0.045000
  0
VERTEX
  8
0
 10
283.388124
 20
1703.805968
 42
-0.044815
  0
VERTEX
  8
0
 10
418.000000
 20
1826.182724
 42
-0.037186
  0
VERTEX
  8
0
 10
544.714942
 20
1908.105185
 42
-0.037801
  0
VERTEX
  8
0
 10
681.489846
 20
1969.844994
 42
-0.037783
  0
VERTEX
  8
0
 10
826.063311
 20
2010.311699
 42
-0.037076
  0
VERTEX
  8
0
 10
976.000000
 20
2028.888917
 42
-0.007911
  0
VERTEX
  8
0
 10
996.705621
 20
2029.579362
 42
-0.004138
  0
VERTEX
  8
0
 10
1022.499975
 20
2029.817588
 42
-0.004138
  0
VERTEX
  8
0
 10
1048.294376
 20
2029.628812
 42
-0.007912
  0
SEQEND
  0
POLYLINE
  8
0
 66
1
 70
1
  0
VERTEX
  8
0
 10
971.500000
 20
2006.982812
 42
0.026631
  0
VERTEX
  8
0
 10
858.177089
 20
1994.061281
 42
0.028488
  0
VERTEX
  8
0
 10
749.439655
 20
1969.317663
 42
0.028745
  0
VERTEX
  8
0
 10
645.120292
 20
1932.629831
 42
0.028195
  0
VERTEX
  8
0
 10
545.000000
 20
1884.015782
 42
0.058646
  0
VERTEX
  8
0
 10
358.827658
 20
1749.536930
 42
0.058345
  0
VERTEX
  8
0
 10
208.600434
 20
1575.295331
 42
0.058409
  0
VERTEX
  8
0
 10
102.820531
 20
1371.254093
 42
0.059025
  0
VERTEX
  8
0
 10
47.563786
 20
1149.000000
 42
0.007681
  0
VERTEX
  8
0
 10
43.676483
 20
1113.933914
 42
0.010643
  0
VERTEX
  8
0
 10
41.345469
 20
1082.388508
 42
0.010117
  0
VERTEX
  8
0
 10
40.287189
 20
1049.575601
 42
0.006031
  0
VERTEX
  8
0
 10
40.289343
 20
1010.500000
 42
0.005476
  0
VERTEX
  8
0
 10
41.135086
 20
973.844734
 42
0.010247
  0
VERTEX
  8
0
 10
42.751442
 20
944.223323
 42
0.010544
  0
VERTEX
  8
0
 10
45.543099
 20
915.261248
 42
0.006207
  0
VERTEX
  8
0
 10
50.038018
 20
880.771051
 42
0.022897
  0
VERTEX
  8
0
 10
66.039049
 20
796.569946
 42
0.021916
  0
VERTEX
  8
0
 10
89.857109
 20
712.923772
 42
0.021871
  0
VERTEX
  8
0
 10
120.962958
 20
631.512690
 42
0.022569
  0
VERTEX
  8
0
 10
158.772923
 20
554.000000
 42
0.049224
  0
VERTEX
  8
0
 10
268.043956
 20
393.360921
 42
0.049204
  0
VERTEX
  8
0
 10
406.621269
 20
257.155529
 42
0.049276
  0
VERTEX
  8
0
 10
568.935877
 20
150.820122
 42
0.049666
  0
VERTEX
  8
0
 10
748.500000
 20
78.632413
 42
0.026616
  0
VERTEX
  8
0
 10
850.602455
 20
54.750239
 42
0.026725
  0
VERTEX
  8
0
 10
954.525388
 20
41.890728
 42
0.026636
  0
VERTEX
  8
0
 10
1059.563773
 20
40.166145
 42
0.026037
  0
VERTEX
  8
0
 10
1165.000000
 20
49.564773
 42
0.012588
  0
VERTEX
  8
0
 10
1213.035182
 20
57.619747
 42
0.012926
  0
VERTEX
  8
0
 10
1260.178441
 20
68.021907
 42
0.012771
  0
VERTEX
  8
0
 10
1307.256514
 20
80.978356
 42
0.011645
  0
VERTEX
  8
0
 10
1355.097370
 20
96.694044
 42
0.000000
  0
VERTEX
  8
0
 10
1376.694739
 20
104.350418
 42
0.000000
  0
VERTEX
  8
0
 10
1367.684936
 20
118.425209
 42
-0.001496
  0
VERTEX
  8
0
 10
1352.593637
 20
142.156345
 42
-0.010831
  0
VERTEX
  8
0
 10
1345.618523
 20
153.746105
 42
-0.020251
  0
VERTEX
  8
0
 10
1341.935679
 20
160.826938
 42
-0.110221
  0
VERTEX
  8
0
 10
1341.000000
 20
165.019924
 42
-0.091103
  0
VERTEX
  8
0
 10
1341.966489
 20
170.280269
 42
-0.079560
  0
VERTEX
  8
0
 10
1344.760617
 20
175.135564
 42
-0.071259
  0
VERTEX
  8
0
 10
1349.255353
 20
179.302218
 42
-0.053321
  0
VERTEX
  8
0
 10
1355.193211
 20
182.536219
 42
0.032915
  0
VERTEX
  8
0
 10
1357.375469
 20
183.611946
 42
0.045784
  0
VERTEX
  8
0
 10
1359.153514
 20
184.868722
 42
0.047204
  0
VERTEX
  8
0
 10
1360.632920
 20
186.395450
 42
0.038291
  0
VERTEX
  8
0
 10
1361.918417
 20
188.279406
 42
-0.032403
  0
VERTEX
  8
0
 10
1364.714113
 20
192.481951
 42
-0.028139
  0
VERTEX
  8
0
 10
1368.155514
 20
196.501526
 42
-0.029249
  0
VERTEX
  8
0
 10
1371.788254
 20
199.872174
 42
-0.054495
  0
VERTEX
  8
0
 10
1375.141948
 20
202.072417
 42
-0.055267
  0
VERTEX
  8
0
 10
1378.803611
 20
203.456209
 42
-0.065374
  0
VERTEX
  8
0
 10
1382.475412
 20
203.900218
 42
-0.060532
  0
VERTEX
  8
0
 10
1386.360519
 20
203.387791
 42
-0.038886
  0
VERTEX
  8
0
 10
1390.667095
 20
201.913709
 42
0.069421
  0
VERTEX
  8
0
 10
1396.409743
 20
200.331190
 42
0.058499
  0
VERTEX
  8
0
 10
1402.720989
 20
200.246530
 42
0.044753
  0
VERTEX
  8
0
 10
1410.290983
 20
201.725159
 42
0.019596
  0
VERTEX
  8
0
 10
1420.000000
 20
204.959141
 42
0.004685
  0
VERTEX
  8
0
 10
1429.327058
 20
208.577703
 42
0.020819
  0
VERTEX
  8
0
 10
1434.690883
 20
210.980054
 42
0.035505
  0
VERTEX
  8
0
 10
1438.219325
 20
213.065012
 42
0.053844
  0
VERTEX
  8
0
 10
1440.914470
 20
215.392204
 42
0.013548
  0
VERTEX
  8
0
 10
1442.418916
 20
217.094245
 42
0.149018
  0
VERTEX
  8
0
 10
1442.770360
 20
217.923406
 42
0.186344
  0
VERTEX
  8
0
 10
1442.555167
 20
218.721345
 42
0.023587
  0
VERTEX
  8
0
 10
1441.414470
 20
220.134702
 42
0.073842
  0
VERTEX
  8
0
 10
1439.004394
 20
222.153055
 42
0.034461
  0
VERTEX
  8
0
 10
1435.383928
 20
224.041869
 42
0.030332
  0
VERTEX
  8
0
 10
1430.888931
 20
225.689400
 42
0.022650
  0
VERTEX
  8
0
 10
1425.767437
 20
226.971972
 42
-0.015585
  0
VERTEX
  8
0
 10
1421.713557
 20
227.926537
 42
-0.108003
  0
VERTEX
  8
0
 10
1419.912054
 20
228.858921
 42
-0.213069
  0
VERTEX
  8
0
 10
1419.274843
 20
230.150994
 42
-0.086626
  0
VERTEX
  8
0
 10
1419.543698
 20
232.137679
 42
-0.085764
  0
VERTEX
  8
0
 10
1420.127643
 20
233.263614
 42
-0.166195
  0
VERTEX
  8
0
 10
1420.959292
 20
233.822699
 42
-0.080826
  0
VERTEX
  8
0
 10
1422.388138
 20
233.967773
 42
-0.010683
  0
VERTEX
  8
0
 10
1425.430362
 20
233.719343
 42
-0.079672
  0
VERTEX
  8
0
 10
1436.290459
 20
230.808762
 42
-0.056796
  0
VERTEX
  8
0
 10
1447.146311
 20
224.384795
 42
-0.059950
  0
VERTEX
  8
0
 10
1455.379238
 20
216.440466
 42
-0.172552
  0
VERTEX
  8
0
 10
1458.000000
 20
209.072468
 42
-0.089775
  0
VERTEX
  8
0
 10
1457.185274
 20
204.571433
 42
-0.111051
  0
VERTEX
  8
0
 10
1454.858405
 20
201.014717
 42
-0.065926
  0
VERTEX
  8
0
 10
1450.226673
 20
197.576217
 42
-0.014891
  0
VERTEX
  8
0
 10
1441.500000
 20
193.064416
 42
-0.006911
  0
VERTEX
  8
0
 10
1431.080383
 20
188.240740
 42
-0.019144
  0
VERTEX
  8
0
 10
1423.584551
 20
185.234122
 42
-0.027079
  0
VERTEX
  8
0
 10
1417.871078
 20
183.535178
 42
-0.058722
  0
VERTEX
  8
0
 10
1413.329445
 20
182.998714
 42
0.000000
  0
VERTEX
  8
0
 10
1408.500000
 20
182.997427
 42
0.000000
  0
VERTEX
  8
0
 10
1408.498115
 20
176.223856
 42
-0.019241
  0
VERTEX
  8
0
 10
1408.350821
 20
172.425261
 42
-0.039977
  0
VERTEX
  8
0
 10
1407.887049
 20
169.498382
 42
-0.038504
  0
VERTEX
  8
0
 10
1406.950421
 20
166.614454
 42
-0.016619
  0
VERTEX
  8
0
 10
1405.286301
 20
162.929996
 42
-0.019175
  0
VERTEX
  8
0
 10
1403.792823
 20
160.168784
 42
-0.014624
  0
VERTEX
  8
0
 10
1401.957208
 20
157.262960
 42
-0.014851
  0
VERTEX
  8
0
 10
1400.074140
 20
154.638346
 42
-0.033349
  0
VERTEX
  8
0
 10
1398.460776
 20
152.794109
 42
-0.072370
  0
VERTEX
  8
0
 10
1392.427537
 20
148.293558
 42
-0.163047
  0
VERTEX
  8
0
 10
1386.874987
 20
147.322282
 42
-0.126128
  0
VERTEX
  8
0
 10
1380.885951
 20
149.861523
 42
-0.035921
  0
VERTEX
  8
0
 10
1373.254458
 20
156.605660
 42
0.010079
  0
VERTEX
  8
0
 10
1370.364500
 20
159.438424
 42
0.014329
  0
VERTEX
  8
0
 10
1367.676048
 20
161.827913
 42
0.010278
  0
VERTEX
  8
0
 10
1365.370191
 20
163.682599
 42
0.165698
  0
VERTEX
  8
0
 10
1364.438717
 20
164.000000
 42
0.079268
  0
VERTEX
  8
0
 10
1362.721488
 20
163.726037
 42
0.052040
  0
VERTEX
  8
0
 10
1360.889571
 20
162.907086
 42
0.053650
  0
VERTEX
  8
0
 10
1359.437688
 20
161.844986
 42
0.211058
  0
VERTEX
  8
0
 10
1359.000000
 20
160.854286
 42
0.122451
  0
VERTEX
  8
0
 10
1359.195030
 20
160.069869
 42
0.000799
  0
VERTEX
  8
0
 10
1362.559971
 20
153.745691
 42
0.003127
  0
VERTEX
  8
0
 10
1366.473602
 20
146.527559
 42
0.001984
  0
VERTEX
  8
0
 10
1371.119051
 20
138.164874
 42
0.000000
  0
VERTEX
  8
0
 10
1383.238102
 20
116.550809
 42
0.000000
  0
VERTEX
  8
0
 10
1381.648328
 20
111.579461
 42
0.006998
  0
VERTEX
  8
0
 10
1381.061407
 20
109.651508
 42
0.010981
  0
VERTEX
  8
0
 10
1380.616799
 20
107.977197
 42
0.005263
  0
VERTEX
  8
0
 10
1380.290712
 20
106.565905
 42
0.255859
  0
VERTEX
  8
0
 10
1380.369187
 20
106.297479
 42
0.294421
  0
VERTEX
  8
0
 10
1380.654872
 20
106.235770
 42
0.000697
  0
VERTEX
  8
0
 10
1384.821536
 20
107.810392
 42
0.003997
  0
VERTEX
  8
0
 10
1389.542604
 20
109.645352
 42
0.002437
  0
VERTEX
  8
0
 10
1395.089910
 20
111.884029
 42
0.011933
  0
VERTEX
  8
0
 10
1440.835362
 20
131.892274
 42
0.012830
  0
VERTEX
  8
0
 10
1484.466326
 20
153.609054
 42
0.012843
  0
VERTEX
  8
0
 10
1526.886382
 20
177.514512
 42
0.012008
  0
VERTEX
  8
0
 10
1569.000000
 20
204.086903
 42
0.039274
  0
VERTEX
  8
0
 10
1690.098315
 20
299.124847
 42
0.038881
  0
VERTEX
  8
0
 10
1795.287965
 20
412.228210
 42
0.038981
  0
VERTEX
  8
0
 10
1881.458964
 20
539.953548
 42
0.039938
  0
VERTEX
  8
0
 10
1945.967428
 20
678.500000
 42
0.016416
  0
VERTEX
  8
0
 10
1968.095755
 20
744.588447
 42
0.018233
  0
VERTEX
  8
0
 10
1984.992551
 20
809.726569
 42
0.017937
  0
VERTEX
  8
0
 10
1997.313229
 20
876.871887
 42
0.014910
  0
VERTEX
  8
0
 10
2005.702319
 20
949.000000
 42
0.017025
  0
VERTEX
  8
0
 10
2007.198369
 20
977.786436
 42
0.004466
  0
VERTEX
  8
0
 10
2007.611647
 20
1023.992282
 42
0.004467
  0
VERTEX
  8
0
 10
2007.199314
 20
1070.199893
 42
0.017009
  0
VERTEX
  8
0
 10
2005.704012
 20
1099.000000
 42
0.004541
  0
VERTEX
  8
0
 10
2003.532293
 20
1121.798379
 42
0.004763
  0
VERTEX
  8
0
 10
2000.977768
 20
1144.192634
 42
0.004903
  0
VERTEX
  8
0
 10
1998.079973
 20
1165.866362
 42
0.005630
  0
VERTEX
  8
0
 10
1994.877466
 20
1186.500000
 42
0.037297
  0
VERTEX
  8
0
 10
1960.017003
 20
1329.076347
 42
0.037553
  0
VERTEX
  8
0
 10
1904.419514
 20
1464.552086
 42
0.037518
  0
VERTEX
  8
0
 10
1829.126252
 20
1590.302740
 42
0.037078
  0
VERTEX
  8
0
 10
1735.616646
 20
1703.919897
 42
0.043303
  0
VERTEX
  8
0
 10
1607.212696
 20
1816.879988
 42
0.043529
  0
VERTEX
  8
0
 10
1461.485638
 20
1905.814286
 42
0.043570
  0
VERTEX
  8
0
 10
1302.696609
 20
1968.108224
 42
0.043557
  0
VERTEX
  8
0
 10
1135.500000
 20
2001.950504
 42
0.005584
  0
VERTEX
  8
0
 10
1109.625042
 20
2004.585443
 42
0.009201
  0
VERTEX
  8
0
 10
1087.695436
 20
2006.165195
 42
0.008175
  0
VERTEX
  8
0
 10
1063.992018
 20
2007.046465
 42
0.003410
  0
VERTEX
  8
0
 10
1032.000000
 20
2007.494181
 42
0.001842
  0
VERTEX
  8
0
 10
1013.170715
 20
2007.559920
 42
0.002065
  0
VERTEX
  8
0
 10
995.046875
 20
2007.481586
 42
0.001895
  0
VERTEX
  8
0
 10
979.616221
 20
2007.292664
 42
0.011063
  0
SEQEND
  0
POLYLINE
  8
0
 66
1
 70
1
  0
VERTEX
  8
0
 10
1047.500000
 20
1974.651858
 42
0.000000
  0
VERTEX
  8
0
 10
1066.500000
 20
1973.500000
 42
0.000000
  0
VERTEX
  8
0
 10
1066.500000
 20
1969.500000
 42
-0.017510
  0
VERTEX
  8
0
 10
1066.416159
 20
1967.106612
 42
-0.136610
  0
VERTEX
  8
0
 10
1066.045996
 20
1966.065377
 42
-0.182769
  0
VERTEX
  8
0
 10
1065.240687
 20
1965.518985
 42
-0.036717
  0
VERTEX
  8
0
 10
1063.500000
 20
1965.235941
 42
0.013069
  0
VERTEX
  8
0
 10
1058.801463
 20
1964.698310
 42
0.045527
  0
VERTEX
  8
0
 10
1055.831501
 20
1963.999601
 42
0.072508
  0
VERTEX
  8
0
 10
1053.846896
 20
1962.999442
 42
0.095081
  0
VERTEX
  8
0
 10
1052.437362
 20
1961.544747
 42
0.052243
  0
VERTEX
  8
0
 10
1051.657107
 20
1960.029956
 42
0.090496
  0
VERTEX
  8
0
 10
1051.389459
 20
1958.643919
 42
0.056152
  0
VERTEX
  8
0
 10
1051.574355
 20
1956.836297
 42
0.010329
  0
VERTEX
  8
0
 10
1052.355592
 20
1953.570058
 42
0.024279
  0
VERTEX
  8
0
 10
1055.848529
 20
1942.435525
 42
0.001399
  0
VERTEX
  8
0
 10
1068.304517
 20
1908.868369
 42
0.000188
  0
VERTEX
  8
0
 10
1082.173247
 20
1871.854700
 42
0.572691
  0
VERTEX
  8
0
 10
1082.991727
 20
1871.712748
 42
0.063467
  0
VERTEX
  8
0
 10
1085.295007
 20
1875.262555
 42
0.000369
  0
VERTEX
  8
0
 10
1102.396102
 20
1910.840380
 42
0.000498
  0
VERTEX
  8
0
 10
1119.176587
 20
1945.906793
 42
0.046030
  0
VERTEX
  8
0
 10
1121.136817
 20
1951.221727
 42
0.013310
  0
VERTEX
  8
0
 10
1121.794875
 20
1953.973606
 42
0.074506
  0
VERTEX
  8
0
 10
1121.884515
 20
1955.481783
 42
0.112730
  0
VERTEX
  8
0
 10
1121.505707
 20
1956.648729
 42
0.049332
  0
VERTEX
  8
0
 10
1120.532645
 20
1957.963928
 42
0.059353
  0
VERTEX
  8
0
 10
1119.533477
 20
1958.834389
 42
0.025446
  0
VERTEX
  8
0
 10
1118.019642
 20
1959.756745
 42
0.024743
  0
VERTEX
  8
0
 10
1116.288294
 20
1960.586389
 42
0.029855
  0
VERTEX
  8
0
 10
1114.587198
 20
1961.183718
 42
-0.019301
  0
VERTEX
  8
0
 10
1110.970803
 20
1962.368509
 42
-0.102150
  0
VERTEX
  8
0
 10
1109.212505
 20
1963.467904
 42
-0.175571
  0
VERTEX
  8
0
 10
1108.520820
 20
1964.861122
 42
-0.086227
  0
VERTEX
  8
0
 10
1108.638774
 20
1966.864422
 42
-0.014946
  0
VERTEX
  8
0
 10
1108.921504
 20
1967.924111
 42
-0.016564
  0
VERTEX
  8
0
 10
1109.258642
 20
1968.928838
 42
-0.016108
  0
VERTEX
  8
0
 10
1109.600605
 20
1969.762924
 42
-0.077799
  0
VERTEX
  8
0
 10
1109.879108
 20
1970.191197
 42
-0.229187
  0
VERTEX
  8
0
 10
1111.537382
 20
1970.869618
 42
-0.000937
  0
VERTEX
  8
0
 10
1131.914480
 20
1969.561064
 42
-0.001112
  0
VERTEX
  8
0
 10
1152.131004
 20
1968.179590
 42
-0.180664
  0
VERTEX
  8
0
 10
1154.134003
 20
1967.265997
 42
-0.110987
  0
VERTEX
  8
0
 10
1154.504385
 20
1966.680871
 42
-0.040615
  0
VERTEX
  8
0
 10
1154.759637
 20
1965.729295
 42
-0.037808
  0
VERTEX
  8
0
 10
1154.878259
 20
1964.607019
 42
-0.036895
  0
VERTEX
  8
0
 10
1154.828178
 20
1963.470314
 42
-0.068440
  0
VERTEX
  8
0
 10
1154.431466
 20
1961.945031
 42
-0.128654
  0
VERTEX
  8
0
 10
1153.669114
 20
1960.935983
 42
-0.081275
  0
VERTEX
  8
0
 10
1152.254806
 20
1960.152884
 42
-0.016254
  0
VERTEX
  8
0
 10
1149.500000
 20
1959.267470
 42
0.113109
  0
VERTEX
  8
0
 10
1142.766662
 20
1955.556320
 42
0.071840
  0
VERTEX
  8
0
 10
1136.984334
 20
1948.668540
 42
0.022572
  0
VERTEX
  8
0
 10
1129.099792
 20
1934.566240
 42
0.001499
  0
VERTEX
  8
0
 10
1108.419602
 20
1893.000000
 42
-0.000162
  0
VERTEX
  8
0
 10
1097.472759
 20
1870.848930
 42
-0.000259
  0
VERTEX
  8
0
 10
1088.113305
 20
1851.950000
 42
-0.000042
  0
VERTEX
  8
0
 10
1079.810781
 20
1835.210615
 42
-0.015549
  0
VERTEX
  8
0
 10
1079.162544
 20
1834.000000
 42
-0.169245
  0
VERTEX
  8
0
 10
1077.594269
 20
1832.644433
 42
-0.091691
  0
VERTEX
  8
0
 10
1075.063152
 20
1832.145586
 42
-0.093120
  0
VERTEX
  8
0
 10
1072.555724
 20
1832.586292
 42
-0.181895
  0
VERTEX
  8
0
 10
1071.050883
 20
1833.904924
 42
-0.032852
  0
VERTEX
  8
0
 10
1070.314780
 20
1835.528271
 42
-0.000187
  0
VERTEX
  8
0
 10
1064.407829
 20
1851.237467
 42
-0.000800
  0
VERTEX
  8
0
 10
1057.705117
 20
1869.170296
 42
-0.000508
  0
VERTEX
  8
0
 10
1049.955631
 20
1890.070298
 42
0.000224
  0
VERTEX
  8
0
 10
1032.088490
 20
1938.341248
 42
0.004862
  0
VERTEX
  8
0
 10
1026.691253
 20
1952.479248
 42
0.015274
  0
VERTEX
  8
0
 10
1023.616122
 20
1959.653431
 42
0.078749
  0
VERTEX
  8
0
 10
1021.209663
 20
1963.226885
 42
0.049909
  0
VERTEX
  8
0
 10
1019.250929
 20
1964.949059
 42
0.048872
  0
VERTEX
  8
0
 10
1016.976499
 20
1966.262867
 42
0.037314
  0
VERTEX
  8
0
 10
1013.990830
 20
1967.357995
 42
0.014769
  0
VERTEX
  8
0
 10
1009.750000
 20
1968.429240
 42
-0.045429
  0
VERTEX
  8
0
 10
1008.296330
 20
1968.892784
 42
-0.140907
  0
VERTEX
  8
0
 10
1007.503363
 20
1969.533307
 42
-0.122753
  0
VERTEX
  8
0
 10
1007.110505
 20
1970.554991
 42
-0.030711
  0
VERTEX
  8
0
 10
1007.000000
 20
1972.352385
 42
-0.019943
  0
VERTEX
  8
0
 10
1007.052734
 20
1973.673978
 42
-0.024162
  0
VERTEX
  8
0
 10
1007.211173
 20
1974.904270
 42
-0.023823
  0
VERTEX
  8
0
 10
1007.439783
 20
1975.907592
 42
-0.129144
  0
VERTEX
  8
0
 10
1007.718887
 20
1976.385554
 42
-0.191251
  0
VERTEX
  8
0
 10
1008.334518
 20
1976.651269
 42
-0.005787
  0
VERTEX
  8
0
 10
1011.173240
 20
1976.702224
 42
-0.010687
  0
VERTEX
  8
0
 10
1014.572736
 20
1976.651230
 42
-0.007093
  0
VERTEX
  8
0
 10
1018.468887
 20
1976.454078
 42
0.000516
  0
VERTEX
  8
0
 10
1023.599395
 20
1976.126758
 42
0.000170
  0
VERTEX
  8
0
 10
1031.134611
 20
1975.656402
 42
0.000170
  0
VERTEX
  8
0
 10
1039.490134
 20
1975.140546
 42
0.000193
  0
SEQEND
  0
POLYLINE
  8
0
 66
1
 70
1
  0
VERTEX
  8
0
 10
934.500000
 20
1966.044762
 42
-0.030320
  0
VERTEX
  8
0
 10
934.375524
 20
1963.993964
 42
-0.159934
  0
VERTEX
  8
0
 10
933.903390
 20
1962.986979
 42
-0.136066
  0
VERTEX
  8
0
 10
932.883038
 20
1962.368788
 42
-0.019788
  0
VERTEX
  8
0
 10
930.500000
 20
1961.799049
 42
0.005225
  0
VERTEX
  8
0
 10
925.588235
 20
1960.774954
 42
0.033142
  0
VERTEX
  8
0
 10
923.139126
 20
1960.064697
 42
0.060930
  0
VERTEX
  8
0
 10
921.504563
 20
1959.233914
 42
0.048401
  0
VERTEX
  8
0
 10
919.974564
 20
1957.974564
 42
0.069579
  0
VERTEX
  8
0
 10
919.029686
 20
1956.722471
 42
0.063170
  0
VERTEX
  8
0
 10
918.426473
 20
1955.218150
 42
0.046253
  0
VERTEX
  8
0
 10
918.099142
 20
1953.224635
 42
0.017578
  0
VERTEX
  8
0
 10
918.000000
 20
1950.405485
 42
0.031773
  0
VERTEX
  8
0
 10
918.516045
 20
1942.292802
 42
0.000615
  0
VERTEX
  8
0
 10
923.877804
 20
1900.724654
 42
0.000791
  0
VERTEX
  8
0
 10
929.255292
 20
1859.939081
 42
0.023538
  0
VERTEX
  8
0
 10
931.115782
 20
1849.699811
 42
0.061929
  0
VERTEX
  8
0
 10
932.577972
 20
1845.700427
 42
0.137339
  0
VERTEX
  8
0
 10
934.765348
 20
1843.339118
 42
0.105225
  0
VERTEX
  8
0
 10
938.276814
 20
1842.093155
 42
0.027926
  0
VERTEX
  8
0
 10
944.238597
 20
1841.642462
 42
0.000000
  0
VERTEX
  8
0
 10
951.500000
 20
1841.500000
 42
0.000000
  0
VERTEX
  8
0
 10
951.813871
 20
1838.243125
 42
-0.030610
  0
VERTEX
  8
0
 10
951.868233
 20
1836.684958
 42
-0.079340
  0
VERTEX
  8
0
 10
951.662475
 20
1835.583499
 42
-0.111303
  0
VERTEX
  8
0
 10
951.183168
 20
1834.826951
 42
-0.104876
  0
VERTEX
  8
0
 10
950.416118
 20
1834.329438
 42
-0.059200
  0
VERTEX
  8
0
 10
946.872585
 20
1833.431620
 42
-0.000568
  0
VERTEX
  8
0
 10
920.469696
 20
1830.013385
 42
-0.000314
  0
VERTEX
  8
0
 10
893.366222
 20
1826.553051
 42
-0.112717
  0
VERTEX
  8
0
 10
891.353734
 20
1826.751173
 42
-0.210994
  0
VERTEX
  8
0
 10
890.482774
 20
1827.544054
 42
-0.041045
  0
VERTEX
  8
0
 10
889.768857
 20
1829.599076
 42
-0.043015
  0
VERTEX
  8
0
 10
889.391298
 20
1831.847965
 42
-0.112158
  0
VERTEX
  8
0
 10
889.623697
 20
1833.461754
 42
-0.203278
  0
VERTEX
  8
0
 10
890.091653
 20
1833.946769
 42
-0.017762
  0
VERTEX
  8
0
 10
891.723600
 20
1834.573525
 42
-0.021068
  0
VERTEX
  8
0
 10
893.801550
 20
1835.191425
 42
-0.014776
  0
VERTEX
  8
0
 10
896.185742
 20
1835.717954
 42
0.035840
  0
VERTEX
  8
0
 10
901.525210
 20
1837.135241
 42
0.124949
  0
VERTEX
  8
0
 10
904.485783
 20
1839.073700
 42
0.141731
  0
VERTEX
  8
0
 10
905.956228
 20
1842.034998
 42
0.051311
  0
VERTEX
  8
0
 10
906.319800
 20
1846.761611
 42
0.025982
  0
VERTEX
  8
0
 10
905.522991
 20
1856.994050
 42
0.000808
  0
VERTEX
  8
0
 10
900.010843
 20
1898.739724
 42
0.000548
  0
VERTEX
  8
0
 10
894.230512
 20
1941.620013
 42
0.040747
  0
VERTEX
  8
0
 10
892.721809
 20
1948.478080
 42
0.078455
  0
VERTEX
  8
0
 10
891.170487
 20
1951.652369
 42
0.123676
  0
VERTEX
  8
0
 10
888.889794
 20
1953.626719
 42
0.089330
  0
VERTEX
  8
0
 10
885.382428
 20
1954.670454
 42
0.027217
  0
VERTEX
  8
0
 10
879.829455
 20
1954.985258
 42
-0.006761
  0
VERTEX
  8
0
 10
875.458676
 20
1955.054028
 42
-0.093114
  0
VERTEX
  8
0
 10
873.917385
 20
1955.390523
 42
-0.193321
  0
VERTEX
  8
0
 10
873.082499
 20
1956.220701
 42
-0.047559
  0
VERTEX
  8
0
 10
872.478292
 20
1958.098837
 42
-0.029501
  0
VERTEX
  8
0
 10
872.280372
 20
1959.347330
 42
-0.035369
  0
VERTEX
  8
0
 10
872.247634
 20
1960.536445
 42
-0.038076
  0
VERTEX
  8
0
 10
872.364936
 20
1961.515028
 42
-0.149074
  0
VERTEX
  8
0
 10
872.648837
 20
1962.045520
 42
-0.163722
  0
VERTEX
  8
0
 10
874.570101
 20
1962.994731
 42
-0.000611
  0
VERTEX
  8
0
 10
899.567051
 20
1966.341467
 42
-0.002006
  0
VERTEX
  8
0
 10
922.805419
 20
1969.329032
 42
-0.039464
  0
VERTEX
  8
0
 10
930.000000
 20
1969.652726
 42
-0.012666
  0
VERTEX
  8
0
 10
932.881700
 20
1969.481767
 42
-0.148894
  0
VERTEX
  8
0
 10
933.913357
 20
1969.069468
 42
-0.200337
  0
VERTEX
  8
0
 10
934.387710
 20
1968.200214
 42
-0.026030
  0
SEQEND
  0
POLYLINE
  8
0
 66
1
 70
1
  0
VERTEX
  8
0
 10
1284.000000
 20
1938.651172
 42
-0.000728
  0
VERTEX
  8
0
 10
1315.418105
 20
1929.582666
 42
-0.010263
  0
VERTEX
  8
0
 10
1326.612663
 20
1926.083159
 42
-0.022980
  0
VERTEX
  8
0
 10
1332.387248
 20
1923.846994
 42
-0.269969
  0
VERTEX
  8
0
 10
1333.749535
 20
1921.970783
 42
-0.066531
  0
VERTEX
  8
0
 10
1333.698243
 20
1920.379077
 42
-0.005410
  0
VERTEX
  8
0
 10
1332.966165
 20
1916.260168
 42
-0.007200
  0
VERTEX
  8
0
 10
1331.965255
 20
1911.350748
 42
-0.005475
  0
VERTEX
  8
0
 10
1330.732333
 20
1906.000000
 42
-0.003011
  0
VERTEX
  8
0
 10
1328.585201
 20
1897.354890
 42
-0.040954
  0
VERTEX
  8
0
 10
1327.529798
 20
1894.286886
 42
-0.131230
  0
VERTEX
  8
0
 10
1326.382968
 20
1892.851624
 42
-0.130944
  0
VERTEX
  8
0
 10
1324.672327
 20
1892.177742
 42
-0.087383
  0
VERTEX
  8
0
 10
1321.838693
 20
1892.346435
 42
-0.202451
  0
VERTEX
  8
0
 10
1320.154220
 20
1893.583111
 42
-0.115382
  0
VERTEX
  8
0
 10
1319.302654
 20
1896.257553
 42
-0.020936
  0
VERTEX
  8
0
 10
1319.110522
 20
1901.498304
 42
0.030854
  0
VERTEX
  8
0
 10
1318.776991
 20
1907.398532
 42
0.077016
  0
VERTEX
  8
0
 10
1317.620509
 20
1911.546743
 42
0.096905
  0
VERTEX
  8
0
 10
1315.466800
 20
1914.571050
 42
0.071879
  0
VERTEX
  8
0
 10
1312.108249
 20
1916.944776
 42
0.044057
  0
VERTEX
  8
0
 10
1307.076452
 20
1918.976088
 42
0.001966
  0
VERTEX
  8
0
 10
1289.101686
 20
1924.373280
 42
0.000446
  0
VERTEX
  8
0
 10
1269.586286
 20
1930.130588
 42
0.283454
  0
VERTEX
  8
0
 10
1268.531606
 20
1929.842741
 42
0.116880
  0
VERTEX
  8
0
 10
1267.975345
 20
1928.869493
 42
0.000144
  0
VERTEX
  8
0
 10
1261.555112
 20
1907.056322
 42
0.000068
  0
VERTEX
  8
0
 10
1255.063190
 20
1884.964895
 42
0.324201
  0
VERTEX
  8
0
 10
1255.212928
 20
1884.543383
 42
0.084723
  0
VERTEX
  8
0
 10
1256.934253
 20
1883.746849
 42
0.000691
  0
VERTEX
  8
0
 10
1271.414089
 20
1879.848707
 42
0.001547
  0
VERTEX
  8
0
 10
1285.131538
 20
1876.221588
 42
0.032556
  0
VERTEX
  8
0
 10
1289.282765
 20
1875.421858
 42
0.078754
  0
VERTEX
  8
0
 10
1293.369010
 20
1875.552475
 42
0.103203
  0
VERTEX
  8
0
 10
1296.808058
 20
1876.985508
 42
0.088189
  0
VERTEX
  8
0
 10
1299.762131
 20
1879.886979
 42
0.044174
  0
VERTEX
  8
0
 10
1302.417581
 20
1884.417364
 42
-0.012390
  0
VERTEX
  8
0
 10
1303.495250
 20
1886.556588
 42
-0.018635
  0
VERTEX
  8
0
 10
1304.548816
 20
1888.360101
 42
-0.013853
  0
VERTEX
  8
0
 10
1305.491682
 20
1889.757173
 42
-0.241915
  0
VERTEX
  8
0
 10
1305.964196
 20
1890.000000
 42
-0.081820
  0
VERTEX
  8
0
 10
1307.871058
 20
1889.685857
 42
-0.053104
  0
VERTEX
  8
0
 10
1309.903863
 20
1888.747011
 42
-0.054918
  0
VERTEX
  8
0
 10
1311.510734
 20
1887.529268
 42
-0.205985
  0
VERTEX
  8
0
 10
1312.000000
 20
1886.392032
 42
-0.066804
  0
VERTEX
  8
0
 10
1311.837383
 20
1885.180349
 42
-0.001120
  0
VERTEX
  8
0
 10
1310.036946
 20
1878.651056
 42
-0.002861
  0
VERTEX
  8
0
 10
1307.878267
 20
1871.059048
 42
-0.001896
  0
VERTEX
  8
0
 10
1305.317262
 20
1862.367282
 42
-0.001665
  0
VERTEX
  8
0
 10
1300.995552
 20
1848.076081
 42
-0.023851
  0
VERTEX
  8
0
 10
1299.199744
 20
1843.074028
 42
-0.081799
  0
VERTEX
  8
0
 10
1297.779210
 20
1840.785978
 42
-0.217830
  0
VERTEX
  8
0
 10
1296.067262
 20
1840.015313
 42
-0.058093
  0
VERTEX
  8
0
 10
1293.150530
 20
1840.372989
 42
-0.207368
  0
VERTEX
  8
0
 10
1291.683515
 20
1841.481327
 42
-0.135544
  0
VERTEX
  8
0
 10
1291.134921
 20
1843.671829
 42
-0.020661
  0
VERTEX
  8
0
 10
1291.431918
 20
1848.208859
 42
0.031790
  0
VERTEX
  8
0
 10
1291.650486
 20
1853.273755
 42
0.079978
  0
VERTEX
  8
0
 10
1290.990959
 20
1856.897150
 42
0.099714
  0
VERTEX
  8
0
 10
1289.350387
 20
1859.643770
 42
0.070539
  0
VERTEX
  8
0
 10
1286.578295
 20
1861.944503
 42
0.061391
  0
VERTEX
  8
0
 10
1282.960312
 20
1863.600604
 42
0.002152
  0
VERTEX
  8
0
 10
1268.218428
 20
1868.198650
 42
0.000633
  0
VERTEX
  8
0
 10
1252.418211
 20
1873.030403
 42
0.303002
  0
VERTEX
  8
0
 10
1251.445235
 20
1872.736966
 42
0.101277
  0
VERTEX
  8
0
 10
1251.267556
 20
1872.401918
 42
0.000014
  0
VERTEX
  8
0
 10
1244.832769
 20
1850.495703
 42
0.000234
  0
VERTEX
  8
0
 10
1239.040919
 20
1830.742015
 42
0.005074
  0
VERTEX
  8
0
 10
1237.400173
 20
1824.917781
 42
0.108735
  0
VERTEX
  8
0
 10
1237.365564
 20
1824.194679
 42
0.057640
  0
VERTEX
  8
0
 10
1237.618122
 20
1823.329258
 42
0.053334
  0
VERTEX
  8
0
 10
1238.097869
 20
1822.462795
 42
0.055807
  0
VERTEX
  8
0
 10
1238.743773
 20
1821.731882
 42
0.112959
  0
VERTEX
  8
0
 10
1242.649529
 20
1819.544092
 42
0.004309
  0
VERTEX
  8
0
 10
1258.775824
 20
1814.958972
 42
0.006301
  0
VERTEX
  8
0
 10
1274.533738
 20
1810.837889
 42
0.061351
  0
VERTEX
  8
0
 10
1281.364455
 20
1810.009769
 42
0.062092
  0
VERTEX
  8
0
 10
1286.573539
 20
1810.669223
 42
0.050701
  0
VERTEX
  8
0
 10
1291.852479
 20
1812.603774
 42
0.041811
  0
VERTEX
  8
0
 10
1297.502409
 20
1815.961066
 42
0.022736
  0
VERTEX
  8
0
 10
1303.859197
 20
1820.947728
 42
-0.006598
  0
VERTEX
  8
0
 10
1308.122971
 20
1824.520594
 42
-0.048593
  0
VERTEX
  8
0
 10
1310.331988
 20
1825.990572
 42
-0.106268
  0
VERTEX
  8
0
 10
1312.003399
 20
1826.468128
 42
-0.097346
  0
VERTEX
  8
0
 10
1313.780585
 20
1826.240272
 42
-0.042339
  0
VERTEX
  8
0
 10
1314.842391
 20
1825.783538
 42
-0.045380
  0
VERTEX
  8
0
 10
1315.786034
 20
1825.163204
 42
-0.050113
  0
VERTEX
  8
0
 10
1316.485853
 20
1824.481364
 42
-0.127318
  0
VERTEX
  8
0
 10
1316.788893
 20
1823.845920
 42
-0.200959
  0
VERTEX
  8
0
 10
1316.431834
 20
1822.127914
 42
-0.001134
  0
VERTEX
  8
0
 10
1306.815726
 20
1808.186643
 42
-0.001963
  0
VERTEX
  8
0
 10
1297.417724
 20
1794.740526
 42
-0.101164
  0
VERTEX
  8
0
 10
1295.109747
 20
1792.567827
 42
-0.207321
  0
VERTEX
  8
0
 10
1294.405199
 20
1792.465144
 42
-0.000231
  0
VERTEX
  8
0
 10
1279.506139
 20
1796.501883
 42
-0.002057
  0
VERTEX
  8
0
 10
1262.812373
 20
1801.106974
 42
-0.001256
  0
VERTEX
  8
0
 10
1243.144269
 20
1806.673066
 42
-0.000619
  0
VERTEX
  8
0
 10
1209.357567
 20
1816.371770
 42
-0.011021
  0
VERTEX
  8
0
 10
1198.545131
 20
1819.749884
 42
-0.030917
  0
VERTEX
  8
0
 10
1193.258227
 20
1821.902567
 42
-0.289770
  0
VERTEX
  8
0
 10
1192.015313
 20
1823.892920
 42
-0.052551
  0
VERTEX
  8
0
 10
1192.354832
 20
1826.942411
 42
-0.226584
  0
VERTEX
  8
0
 10
1193.445521
 20
1828.343318
 42
-0.146646
  0
VERTEX
  8
0
 10
1195.590469
 20
1828.716833
 42
-0.019353
  0
VERTEX
  8
0
 10
1200.199560
 20
1827.984795
 42
0.036940
  0
VERTEX
  8
0
 10
1205.202118
 20
1827.369587
 42
0.085094
  0
VERTEX
  8
0
 10
1208.952670
 20
1827.826625
 42
0.111323
  0
VERTEX
  8
0
 10
1211.704697
 20
1829.376027
 42
0.097646
  0
VERTEX
  8
0
 10
1213.682565
 20
1832.023568
 42
0.039541
  0
VERTEX
  8
0
 10
1215.953975
 20
1837.916448
 42
0.000371
  0
VERTEX
  8
0
 10
1229.153567
 20
1882.454840
 42
0.000391
  0
VERTEX
  8
0
 10
1242.248020
 20
1926.886815
 42
0.037417
  0
VERTEX
  8
0
 10
1243.638113
 20
1933.376397
 42
0.072691
  0
VERTEX
  8
0
 10
1243.606079
 20
1936.971275
 42
0.140511
  0
VERTEX
  8
0
 10
1242.408526
 20
1939.560359
 42
0.105105
  0
VERTEX
  8
0
 10
1239.726884
 20
1941.594416
 42
0.030379
  0
VERTEX
  8
0
 10
1234.870336
 20
1943.527120
 42
-0.016370
  0
VERTEX
  8
0
 10
1230.821853
 20
1945.008336
 42
-0.120270
  0
VERTEX
  8
0
 10
1229.160589
 20
1946.201537
 42
-0.202627
  0
VERTEX
  8
0
 10
1228.675565
 20
1947.722513
 42
-0.061147
  0
VERTEX
  8
0
 10
1229.199960
 20
1950.143760
 42
-0.042418
  0
VERTEX
  8
0
 10
1229.776735
 20
1951.434579
 42
-0.085506
  0
VERTEX
  8
0
 10
1230.471658
 20
1952.301712
 42
-0.103424
  0
VERTEX
  8
0
 10
1231.319509
 20
1952.785457
 42
-0.086390
  0
VERTEX
  8
0
 10
1232.347825
 20
1952.930389
 42
-0.059045
  0
VERTEX
  8
0
 10
1233.989697
 20
1952.681764
 42
-0.000369
  0
VERTEX
  8
0
 10
1248.408424
 20
1948.707154
 42
-0.001502
  0
VERTEX
  8
0
 10
1264.870734
 20
1944.102888
 42
-0.000956
  0
SEQEND
  0
POLYLINE
  8
0
 66
1
 70
1
  0
VERTEX
  8
0
 10
800.218185
 20
1945.009945
 42
-0.057437
  0
VERTEX
  8
0
 10
800.216100
 20
1943.784198
 42
-0.108923
  0
VERTEX
  8
0
 10
799.894545
 20
1942.855852
 42
-0.105304
  0
VERTEX
  8
0
 10
799.203082
 20
1942.128730
 42
-0.051307
  0
VERTEX
  8
0
 10
798.072634
 20
1941.513844
 42
0.023112
  0
VERTEX
  8
0
 10
790.748864
 20
1938.049268
 42
0.112951
  0
VERTEX
  8
0
 10
787.304445
 20
1935.070503
 42
0.162007
  0
VERTEX
  8
0
 10
786.145947
 20
1931.473645
 42
0.062946
  0
VERTEX
  8
0
 10
786.860508
 20
1926.226801
 42
0.014820
  0
VERTEX
  8
0
 10
787.883553
 20
1922.807507
 42
0.000347
  0
VERTEX
  8
0
 10
793.179381
 20
1906.883003
 42
0.000768
  0
VERTEX
  8
0
 10
799.427354
 20
1888.234372
 42
0.000521
  0
VERTEX
  8
0
 10
806.598118
 20
1867.013207
 42
-0.000690
  0
VERTEX
  8
0
 10
817.944029
 20
1833.398536
 42
-0.008400
  0
VERTEX
  8
0
 10
822.058766
 20
1820.434563
 42
-0.013971
  0
VERTEX
  8
0
 10
824.007765
 20
1813.184020
 42
-0.300246
  0
VERTEX
  8
0
 10
823.286410
 20
1811.199892
 42
-0.065657
  0
VERTEX
  8
0
 10
822.420427
 20
1810.718222
 42
-0.039034
  0
VERTEX
  8
0
 10
821.290383
 20
1810.370581
 42
-0.038412
  0
VERTEX
  8
0
 10
820.088203
 20
1810.196713
 42
-0.053114
  0
VERTEX
  8
0
 10
819.000000
 20
1810.239484
 42
-0.098483
  0
VERTEX
  8
0
 10
817.181424
 20
1810.886356
 42
-0.000549
  0
VERTEX
  8
0
 10
801.346821
 20
1820.360376
 42
-0.002337
  0
VERTEX
  8
0
 10
783.327294
 20
1831.283398
 42
-0.001480
  0
VERTEX
  8
0
 10
762.414709
 20
1844.179466
 42
0.000210
  0
VERTEX
  8
0
 10
741.540127
 20
1857.125362
 42
0.000333
  0
VERTEX
  8
0
 10
723.638321
 20
1868.200695
 42
0.000069
  0
VERTEX
  8
0
 10
707.877563
 20
1877.933889
 42
0.015425
  0
VERTEX
  8
0
 10
706.359540
 20
1878.807580
 42
0.600385
  0
VERTEX
  8
0
 10
705.669594
 20
1878.345616
 42
0.039318
  0
VERTEX
  8
0
 10
706.214704
 20
1875.336536
 42
0.014795
  0
VERTEX
  8
0
 10
707.991667
 20
1869.324695
 42
0.001940
  0
VERTEX
  8
0
 10
712.193786
 20
1856.680914
 42
0.000933
  0
VERTEX
  8
0
 10
721.890589
 20
1828.054839
 42
0.004630
  0
VERTEX
  8
0
 10
727.521612
 20
1812.020733
 42
0.005220
  0
VERTEX
  8
0
 10
731.356426
 20
1801.752859
 42
0.074800
  0
VERTEX
  8
0
 10
733.280292
 20
1798.370796
 42
0.044304
  0
VERTEX
  8
0
 10
734.632235
 20
1796.934249
 42
0.117039
  0
VERTEX
  8
0
 10
735.867349
 20
1796.268838
 42
0.077531
  0
VERTEX
  8
0
 10
737.566947
 20
1796.087331
 42
0.012411
  0
VERTEX
  8
0
 10
740.908125
 20
1796.332288
 42
0.006255
  0
VERTEX
  8
0
 10
743.249356
 20
1796.592088
 42
0.005681
  0
VERTEX
  8
0
 10
745.659840
 20
1796.917994
 42
0.005694
  0
VERTEX
  8
0
 10
747.809531
 20
1797.258604
 42
0.018176
  0
VERTEX
  8
0
 10
749.231754
 20
1797.554130
 42
-0.037995
  0
VERTEX
  8
0
 10
750.751448
 20
1797.807601
 42
-0.150604
  0
VERTEX
  8
0
 10
751.666792
 20
1797.612842
 42
-0.142760
  0
VERTEX
  8
0
 10
752.341604
 20
1796.928775
 42
-0.032928
  0
VERTEX
  8
0
 10
753.022568
 20
1795.440641
 42
-0.026912
  0
VERTEX
  8
0
 10
753.392770
 20
1794.282995
 42
-0.028058
  0
VERTEX
  8
0
 10
753.630416
 20
1793.108225
 42
-0.029193
  0
VERTEX
  8
0
 10
753.718495
 20
1792.076040
 42
-0.098609
  0
VERTEX
  8
0
 10
753.604647
 20
1791.412109
 42
-0.224439
  0
VERTEX
  8
0
 10
752.182832
 20
1790.053070
 42
-0.000839
  0
VERTEX
  8
0
 10
729.959573
 20
1782.698665
 42
-0.000849
  0
VERTEX
  8
0
 10
707.722376
 20
1775.422867
 42
-0.220494
  0
VERTEX
  8
0
 10
705.739463
 20
1775.661021
 42
-0.098251
  0
VERTEX
  8
0
 10
705.343997
 20
1776.029027
 42
-0.022653
  0
VERTEX
  8
0
 10
704.842387
 20
1776.794349
 42
-0.022551
  0
VERTEX
  8
0
 10
704.335549
 20
1777.745059
 42
-0.020346
  0
VERTEX
  8
0
 10
703.897221
 20
1778.770329
 42
-0.096381
  0
VERTEX
  8
0
 10
703.537186
 20
1780.853334
 42
-0.187512
  0
VERTEX
  8
0
 10
704.171791
 20
1782.389592
 42
-0.097930
  0
VERTEX
  8
0
 10
706.086225
 20
1783.736490
 42
-0.016554
  0
VERTEX
  8
0
 10
710.251675
 20
1785.423266
 42
0.043158
  0
VERTEX
  8
0
 10
713.704812
 20
1787.040175
 42
0.079373
  0
VERTEX
  8
0
 10
716.107162
 20
1788.993203
 42
0.094839
  0
VERTEX
  8
0
 10
717.510898
 20
1791.331412
 42
0.088118
  0
VERTEX
  8
0
 10
718.000000
 20
1794.085139
 42
0.081326
  0
VERTEX
  8
0
 10
717.190373
 20
1799.029888
 42
0.000458
  0
VERTEX
  8
0
 10
701.981131
 20
1844.092843
 42
0.000252
  0
VERTEX
  8
0
 10
686.382410
 20
1890.094163
 42
0.158796
  0
VERTEX
  8
0
 10
684.767050
 20
1892.252963
 42
0.058688
  0
VERTEX
  8
0
 10
679.731331
 20
1894.979190
 42
0.050444
  0
VERTEX
  8
0
 10
673.936955
 20
1896.633821
 42
0.047260
  0
VERTEX
  8
0
 10
667.561395
 20
1897.163588
 42
0.039618
  0
VERTEX
  8
0
 10
660.801399
 20
1896.548483
 42
-0.010275
  0
VERTEX
  8
0
 10
657.844044
 20
1896.103374
 42
-0.114589
  0
VERTEX
  8
0
 10
656.665901
 20
1896.220801
 42
-0.206457
  0
VERTEX
  8
0
 10
655.979601
 20
1896.840841
 42
-0.045777
  0
VERTEX
  8
0
 10
655.443552
 20
1898.368885
 42
-0.026943
  0
VERTEX
  8
0
 10
655.228969
 20
1899.472551
 42
-0.025300
  0
VERTEX
  8
0
 10
655.128547
 20
1900.616375
 42
-0.026166
  0
VERTEX
  8
0
 10
655.144232
 20
1901.638893
 42
-0.074826
  0
VERTEX
  8
0
 10
655.296943
 20
1902.331438
 42
-0.220214
  0
VERTEX
  8
0
 10
656.455170
 20
1903.456513
 42
-0.001031
  0
VERTEX
  8
0
 10
672.664252
 20
1909.104858
 42
-0.002279
  0
VERTEX
  8
0
 10
688.157299
 20
1914.388929
 42
-0.081211
  0
VERTEX
  8
0
 10
691.894738
 20
1915.000000
 42
-0.137594
  0
VERTEX
  8
0
 10
692.730042
 20
1914.765698
 42
-0.000178
  0
VERTEX
  8
0
 10
707.466410
 20
1905.785444
 42
-0.001526
  0
VERTEX
  8
0
 10
723.958847
 20
1895.657819
 42
-0.000937
  0
VERTEX
  8
0
 10
743.328862
 20
1883.631300
 42
0.000256
  0
VERTEX
  8
0
 10
762.770111
 20
1871.523788
 42
0.000401
  0
VERTEX
  8
0
 10
779.497336
 20
1861.136960
 42
0.000097
  0
VERTEX
  8
0
 10
794.153172
 20
1852.056595
 42
0.015775
  0
VERTEX
  8
0
 10
795.804761
 20
1851.104489
 42
0.629230
  0
VERTEX
  8
0
 10
796.589677
 20
1851.679038
 42
0.024039
  0
VERTEX
  8
0
 10
795.503335
 20
1856.268653
 42
0.010739
  0
VERTEX
  8
0
 10
792.761450
 20
1865.071115
 42
0.001234
  0
VERTEX
  8
0
 10
786.119808
 20
1884.723189
 42
0.000690
  0
VERTEX
  8
0
 10
781.472526
 20
1898.301660
 42
0.000992
  0
VERTEX
  8
0
 10
777.316609
 20
1910.312437
 42
0.000520
  0
VERTEX
  8
0
 10
773.764378
 20
1920.478931
 42
0.015752
  0
VERTEX
  8
0
 10
772.790356
 20
1923.000000
 42
0.041528
  0
VERTEX
  8
0
 10
770.995086
 20
1926.421656
 42
0.130984
  0
VERTEX
  8
0
 10
769.105246
 20
1928.161540
 42
0.120543
  0
VERTEX
  8
0
 10
766.502252
 20
1928.808737
 42
0.032628
  0
VERTEX
  8
0
 10
762.231291
 20
1928.545884
 42
-0.004477
  0
VERTEX
  8
0
 10
755.385776
 20
1927.736106
 42
-0.063743
  0
VERTEX
  8
0
 10
752.930121
 20
1927.781594
 42
-0.183106
  0
VERTEX
  8
0
 10
751.585809
 20
1928.530085
 42
-0.089640
  0
VERTEX
  8
0
 10
750.594070
 20
1930.255148
 42
-0.030934
  0
VERTEX
  8
0
 10
750.242401
 20
1931.473031
 42
-0.052223
  0
VERTEX
  8
0
 10
750.120669
 20
1932.527747
 42
-0.066579
  0
VERTEX
  8
0
 10
750.224170
 20
1933.369084
 42
-0.135077
  0
VERTEX
  8
0
 10
750.555148
 20
1933.941960
 42
-0.109218
  0
VERTEX
  8
0
 10
751.390801
 20
1934.466801
 42
-0.001118
  0
VERTEX
  8
0
 10
757.978700
 20
1936.804504
 42
-0.003548
  0
VERTEX
  8
0
 10
765.616219
 20
1939.434675
 42
-0.002288
  0
VERTEX
  8
0
 10
774.500000
 20
1942.378495
 42
-0.003042
  0
VERTEX
  8
0
 10
790.722978
 20
1947.563029
 42
-0.050361
  0
VERTEX
  8
0
 10
796.275222
 20
1948.703564
 42
-0.225098
  0
VERTEX
  8
0
 10
798.879947
 20
1947.779680
 42
-0.170134
  0
SEQEND
  0
POLYLINE
  8
0
 66
1
 70
1
  0
VERTEX
  8
0
 10
1444.951282
 20
1877.878710
 42
-0.006135
  0
VERTEX
  8
0
 10
1469.808041
 20
1864.198065
 42
-0.028844
  0
VERTEX
  8
0
 10
1483.500618
 20
1855.362030
 42
-0.050815
  0
VERTEX
  8
0
 10
1491.896143
 20
1847.814048
 42
-0.070252
  0
VERTEX
  8
0
 10
1497.580789
 20
1839.445527
 42
-0.021874
  0
VERTEX
  8
0
 10
1499.066693
 20
1836.051627
 42
-0.035565
  0
VERTEX
  8
0
 10
1499.989594
 20
1833.045106
 42
-0.031961
  0
VERTEX
  8
0
 10
1500.536065
 20
1829.718832
 42
-0.014055
  0
VERTEX
  8
0
 10
1500.851942
 20
1825.266423
 42
-0.011563
  0
VERTEX
  8
0
 10
1500.947523
 20
1820.389087
 42
-0.043643
  0
VERTEX
  8
0
 10
1500.670880
 20
1817.349389
 42
-0.048816
  0
VERTEX
  8
0
 10
1499.886892
 20
1814.576526
 42
-0.017063
  0
VERTEX
  8
0
 10
1498.243475
 20
1810.766423
 42
-0.078415
  0
VERTEX
  8
0
 10
1491.611236
 20
1801.027323
 42
-0.085401
  0
VERTEX
  8
0
 10
1482.472783
 20
1794.137086
 42
-0.084084
  0
VERTEX
  8
0
 10
1471.432157
 20
1790.626209
 42
-0.073137
  0
VERTEX
  8
0
 10
1459.283392
 20
1790.697930
 42
0.002867
  0
VERTEX
  8
0
 10
1456.666670
 20
1791.083203
 42
0.004578
  0
VERTEX
  8
0
 10
1454.426088
 20
1791.379082
 42
0.001148
  0
VERTEX
  8
0
 10
1452.472331
 20
1791.614353
 42
0.198490
  0
VERTEX
  8
0
 10
1452.273502
 20
1791.558395
 42
0.266523
  0
VERTEX
  8
0
 10
1451.829870
 20
1790.459290
 42
0.000313
  0
VERTEX
  8
0
 10
1455.322765
 20
1765.296307
 42
0.001945
  0
VERTEX
  8
0
 10
1458.586251
 20
1742.540973
 42
0.027674
  0
VERTEX
  8
0
 10
1460.230218
 20
1734.500000
 42
0.015670
  0
VERTEX
  8
0
 10
1461.681167
 20
1729.608202
 42
0.056107
  0
VERTEX
  8
0
 10
1463.043687
 20
1726.651172
 42
0.049631
  0
VERTEX
  8
0
 10
1465.110990
 20
1723.892197
 42
0.010435
  0
VERTEX
  8
0
 10
1469.282275
 20
1719.530651
 42
-0.006242
  0
VERTEX
  8
0
 10
1473.284771
 20
1715.415242
 42
-0.047662
  0
VERTEX
  8
0
 10
1474.946079
 20
1713.291184
 42
-0.111208
  0
VERTEX
  8
0
 10
1475.522186
 20
1711.698101
 42
-0.116438
  0
VERTEX
  8
0
 10
1475.345236
 20
1710.040366
 42
-0.050044
  0
VERTEX
  8
0
 10
1474.882221
 20
1709.052190
 42
-0.048640
  0
VERTEX
  8
0
 10
1474.228338
 20
1708.165444
 42
-0.052694
  0
VERTEX
  8
0
 10
1473.492389
 20
1707.502953
 42
-0.109781
  0
VERTEX
  8
0
 10
1472.787994
 20
1707.197688
 42
-0.168914
  0
VERTEX
  8
0
 10
1470.305548
 20
1707.558706
 42
-0.001895
  0
VERTEX
  8
0
 10
1455.131918
 20
1715.513816
 42
-0.001810
  0
VERTEX
  8
0
 10
1439.977025
 20
1723.602856
 42
-0.179512
  0
VERTEX
  8
0
 10
1438.403433
 20
1725.391054
 42
-0.057752
  0
VERTEX
  8
0
 10
1438.170981
 20
1726.297507
 42
-0.000217
  0
VERTEX
  8
0
 10
1436.709205
 20
1737.041790
 42
-0.001131
  0
VERTEX
  8
0
 10
1435.084474
 20
1749.229666
 42
-0.000710
  0
VERTEX
  8
0
 10
1433.237494
 20
1763.485272
 42
0.000000
  0
VERTEX
  8
0
 10
1428.500000
 20
1800.462983
 42
0.000000
  0
VERTEX
  8
0
 10
1424.263600
 20
1802.798914
 42
0.017143
  0
VERTEX
  8
0
 10
1422.577566
 20
1803.654582
 42
0.024137
  0
VERTEX
  8
0
 10
1421.016476
 20
1804.290963
 42
0.021919
  0
VERTEX
  8
0
 10
1419.722999
 20
1804.683993
 42
0.203942
  0
VERTEX
  8
0
 10
1419.158547
 20
1804.597987
 42
0.125853
  0
VERTEX
  8
0
 10
1418.272575
 20
1803.678491
 42
0.000384
  0
VERTEX
  8
0
 10
1410.131889
 20
1789.316747
 42
0.002363
  0
VERTEX
  8
0
 10
1402.822181
 20
1776.254205
 42
0.009496
  0
VERTEX
  8
0
 10
1398.544559
 20
1768.165687
 42
0.079909
  0
VERTEX
  8
0
 10
1396.974426
 20
1763.229925
 42
0.135609
  0
VERTEX
  8
0
 10
1397.494329
 20
1758.956409
 42
0.120852
  0
VERTEX
  8
0
 10
1400.223956
 20
1755.221869
 42
0.056372
  0
VERTEX
  8
0
 10
1405.250000
 20
1751.882358
 42
-0.018371
  0
VERTEX
  8
0
 10
1406.686413
 20
1751.077807
 42
-0.025884
  0
VERTEX
  8
0
 10
1407.898438
 20
1750.250277
 42
-0.024277
  0
VERTEX
  8
0
 10
1408.795313
 20
1749.495821
 42
-0.208674
  0
VERTEX
  8
0
 10
1409.000000
 20
1749.026729
 42
-0.094882
  0
VERTEX
  8
0
 10
1408.667447
 20
1747.290044
 42
-0.043594
  0
VERTEX
  8
0
 10
1407.628999
 20
1745.222870
 42
-0.041585
  0
VERTEX
  8
0
 10
1406.343722
 20
1743.481323
 42
-0.216252
  0
VERTEX
  8
0
 10
1405.282891
 20
1743.000000
 42
-0.124347
  0
VERTEX
  8
0
 10
1402.418487
 20
1743.723548
 42
-0.000732
  0
VERTEX
  8
0
 10
1378.179208
 20
1756.849678
 42
-0.000547
  0
VERTEX
  8
0
 10
1353.683496
 20
1770.195838
 42
-0.175734
  0
VERTEX
  8
0
 10
1352.252836
 20
1771.817461
 42
-0.164610
  0
VERTEX
  8
0
 10
1352.180046
 20
1773.310714
 42
-0.046845
  0
VERTEX
  8
0
 10
1353.034281
 20
1775.505258
 42
-0.046070
  0
VERTEX
  8
0
 10
1354.244939
 20
1777.449631
 42
-0.234622
  0
VERTEX
  8
0
 10
1355.353255
 20
1778.000000
 42
-0.085921
  0
VERTEX
  8
0
 10
1355.973903
 20
1777.892554
 42
-0.008430
  0
VERTEX
  8
0
 10
1357.400525
 20
1777.356053
 42
-0.010463
  0
VERTEX
  8
0
 10
1359.088558
 20
1776.647356
 42
-0.008107
  0
VERTEX
  8
0
 10
1360.896949
 20
1775.807840
 42
0.044776
  0
VERTEX
  8
0
 10
1365.395523
 20
1774.107642
 42
0.087975
  0
VERTEX
  8
0
 10
1369.191301
 20
1773.740759
 42
0.107020
  0
VERTEX
  8
0
 10
1372.383773
 20
1774.701681
 42
0.092657
  0
VERTEX
  8
0
 10
1375.085271
 20
1776.933076
 42
0.045923
  0
VERTEX
  8
0
 10
1379.254167
 20
1782.976746
 42
0.000621
  0
VERTEX
  8
0
 10
1401.325661
 20
1822.359294
 42
0.000673
  0
VERTEX
  8
0
 10
1423.182142
 20
1861.595927
 42
0.041950
  0
VERTEX
  8
0
 10
1426.443482
 20
1868.839811
 42
0.016055
  0
VERTEX
  8
0
 10
1427.235300
 20
1871.336800
 42
0.066236
  0
VERTEX
  8
0
 10
1427.460189
 20
1872.902123
 42
0.084986
  0
VERTEX
  8
0
 10
1427.240639
 20
1874.269977
 42
0.037151
  0
VERTEX
  8
0
 10
1426.517704
 20
1875.965764
 42
0.066287
  0
VERTEX
  8
0
 10
1425.631866
 20
1877.234201
 42
0.024994
  0
VERTEX
  8
0
 10
1424.088168
 20
1878.757683
 42
0.024234
  0
VERTEX
  8
0
 10
1422.221358
 20
1880.268445
 42
0.027115
  0
VERTEX
  8
0
 10
1420.283658
 20
1881.531594
 42
-0.001454
  0
VERTEX
  8
0
 10
1418.422801
 20
1882.612892
 42
-0.002130
  0
VERTEX
  8
0
 10
1416.792223
 20
1883.576080
 42
-0.001014
  0
VERTEX
  8
0
 10
1415.410059
 20
1884.404296
 42
-0.038655
  0
VERTEX
  8
0
 10
1415.115398
 20
1884.614276
 42
-0.329036
  0
VERTEX
  8
0
 10
1414.862711
 20
1885.653020
 42
-0.032227
  0
VERTEX
  8
0
 10
1416.082501
 20
1888.105383
 42
-0.033048
  0
VERTEX
  8
0
 10
1417.638270
 20
1890.418627
 42
-0.232209
  0
VERTEX
  8
0
 10
1418.822603
 20
1891.000000
 42
-0.115600
  0
VERTEX
  8
0
 10
1419.960019
 20
1890.733468
 42
-0.001259
  0
VERTEX
  8
0
 10
1427.149637
 20
1887.145621
 42
-0.003869
  0
VERTEX
  8
0
 10
1435.428072
 20
1882.907823
 42
-0.002499
  0
SEQEND
  0
POLYLINE
  8
0
 66
1
 70
1
  0
VERTEX
  8
0
 10
592.401299
 20
1869.190867
 42
-0.054273
  0
VERTEX
  8
0
 10
593.239529
 20
1867.022071
 42
-0.193484
  0
VERTEX
  8
0
 10
593.062045
 20
1865.572986
 42
-0.110722
  0
VERTEX
  8
0
 10
591.817806
 20
1864.167623
 42
-0.012652
  0
VERTEX
  8
0
 10
588.302719
 20
1861.761340
 42
0.067082
  0
VERTEX
  8
0
 10
584.898162
 20
1858.841244
 42
0.106798
  0
VERTEX
  8
0
 10
583.015546
 20
1855.515470
 42
0.108960
  0
VERTEX
  8
0
 10
582.694531
 20
1851.758726
 42
0.071949
  0
VERTEX
  8
0
 10
583.877753
 20
1847.572674
 42
0.031063
  0
VERTEX
  8
0
 10
585.285080
 20
1844.877543
 42
0.001597
  0
VERTEX
  8
0
 10
590.396921
 20
1836.474613
 42
0.002537
  0
VERTEX
  8
0
 10
596.560309
 20
1826.529270
 42
0.001838
  0
VERTEX
  8
0
 10
603.522695
 20
1815.511115
 42
-0.003412
  0
VERTEX
  8
0
 10
610.684426
 20
1804.098050
 42
-0.003760
  0
VERTEX
  8
0
 10
617.458910
 20
1792.950074
 42
-0.003503
  0
VERTEX
  8
0
 10
623.106611
 20
1783.344629
 42
-0.019080
  0
VERTEX
  8
0
 10
625.926586
 20
1778.011115
 42
0.000000
  0
VERTEX
  8
0
 10
630.500000
 20
1768.500000
 42
0.000000
  0
VERTEX
  8
0
 10
630.500000
 20
1757.478973
 42
-0.006999
  0
VERTEX
  8
0
 10
630.404349
 20
1750.645970
 42
-0.039796
  0
VERTEX
  8
0
 10
630.014393
 20
1747.033973
 42
-0.050920
  0
VERTEX
  8
0
 10
629.090109
 20
1743.923561
 42
-0.015905
  0
VERTEX
  8
0
 10
627.092438
 20
1739.478973
 42
-0.063160
  0
VERTEX
  8
0
 10
621.051406
 20
1730.265722
 42
-0.044106
  0
VERTEX
  8
0
 10
612.174381
 20
1721.551818
 42
-0.039998
  0
VERTEX
  8
0
 10
600.913092
 20
1713.714263
 42
-0.032311
  0
VERTEX
  8
0
 10
587.729736
 20
1707.125573
 42
-0.022344
  0
VERTEX
  8
0
 10
583.878093
 20
1705.701313
 42
-0.040644
  0
VERTEX
  8
0
 10
580.611765
 20
1704.942507
 42
-0.029707
  0
VERTEX
  8
0
 10
576.641658
 20
1704.593740
 42
-0.007057
  0
VERTEX
  8
0
 10
570.000000
 20
1704.500000
 42
-0.006529
  0
VERTEX
  8
0
 10
563.173920
 20
1704.589134
 42
-0.032984
  0
VERTEX
  8
0
 10
559.381041
 20
1704.939289
 42
-0.047085
  0
VERTEX
  8
0
 10
556.311695
 20
1705.729899
 42
-0.022947
  0
VERTEX
  8
0
 10
552.569866
 20
1707.277145
 42
-0.056702
  0
VERTEX
  8
0
 10
543.722466
 20
1712.716876
 42
-0.053587
  0
VERTEX
  8
0
 10
536.134971
 20
1720.098041
 42
-0.027314
  0
VERTEX
  8
0
 10
526.891218
 20
1732.578501
 42
-0.004198
  0
VERTEX
  8
0
 10
510.111824
 20
1758.500000
 42
0.001953
  0
VERTEX
  8
0
 10
503.290472
 20
1769.142332
 42
0.002581
  0
VERTEX
  8
0
 10
496.988053
 20
1778.781532
 42
0.001856
  0
VERTEX
  8
0
 10
491.635229
 20
1786.811913
 42
0.025238
  0
VERTEX
  8
0
 10
489.528805
 20
1789.628618
 42
0.047545
  0
VERTEX
  8
0
 10
486.075533
 20
1793.066744
 42
0.136387
  0
VERTEX
  8
0
 10
483.009123
 20
1794.425396
 42
0.120927
  0
VERTEX
  8
0
 10
479.449601
 20
1794.087279
 42
0.033587
  0
VERTEX
  8
0
 10
474.252890
 20
1791.874573
 42
-0.008982
  0
VERTEX
  8
0
 10
469.778234
 20
1789.703540
 42
-0.141183
  0
VERTEX
  8
0
 10
468.118053
 20
1789.447108
 42
-0.209583
  0
VERTEX
  8
0
 10
466.868786
 20
1790.196718
 42
-0.023443
  0
VERTEX
  8
0
 10
465.036288
 20
1793.053882
 42
-0.055792
  0
VERTEX
  8
0
 10
464.743884
 20
1793.723094
 42
-0.054092
  0
VERTEX
  8
0
 10
464.602783
 20
1794.447432
 42
-0.058721
  0
VERTEX
  8
0
 10
464.624858
 20
1795.116185
 42
-0.111280
  0
VERTEX
  8
0
 10
464.819775
 20
1795.615835
 42
-0.107985
  0
VERTEX
  8
0
 10
466.726586
 20
1797.435668
 42
-0.000493
  0
VERTEX
  8
0
 10
490.529541
 20
1811.896825
 42
-0.000400
  0
VERTEX
  8
0
 10
514.548354
 20
1826.430495
 42
-0.136681
  0
VERTEX
  8
0
 10
516.592765
 20
1827.000000
 42
-0.137179
  0
VERTEX
  8
0
 10
517.234762
 20
1826.820484
 42
-0.040886
  0
VERTEX
  8
0
 10
518.066632
 20
1826.217719
 42
-0.037621
  0
VERTEX
  8
0
 10
518.930711
 20
1825.356102
 42
-0.032907
  0
VERTEX
  8
0
 10
519.698814
 20
1824.336916
 42
-0.021137
  0
VERTEX
  8
0
 10
520.728828
 20
1822.609876
 42
-0.188495
  0
VERTEX
  8
0
 10
520.835225
 20
1821.748407
 42
-0.163122
  0
VERTEX
  8
0
 10
520.337710
 20
1820.977532
 42
-0.014903
  0
VERTEX
  8
0
 10
518.487291
 20
1819.586916
 42
0.023455
  0
VERTEX
  8
0
 10
514.604675
 20
1816.563835
 42
0.036378
  0
VERTEX
  8
0
 10
511.590508
 20
1813.574916
 42
0.043006
  0
VERTEX
  8
0
 10
509.600626
 20
1810.851013
 42
0.137089
  0
VERTEX
  8
0
 10
509.000000
 20
1808.701546
 42
0.112334
  0
VERTEX
  8
0
 10
509.823955
 20
1805.080393
 42
0.017852
  0
VERTEX
  8
0
 10
513.227610
 20
1798.592714
 42
0.010712
  0
VERTEX
  8
0
 10
519.434642
 20
1788.244430
 42
0.001750
  0
VERTEX
  8
0
 10
531.957019
 20
1768.500000
 42
0.006146
  0
VERTEX
  8
0
 10
547.269708
 20
1745.178541
 42
0.030210
  0
VERTEX
  8
0
 10
556.841897
 20
1732.682851
 42
0.055890
  0
VERTEX
  8
0
 10
564.502829
 20
1725.616555
 42
0.097022
  0
VERTEX
  8
0
 10
572.305575
 20
1721.943749
 42
0.150106
  0
VERTEX
  8
0
 10
588.564911
 20
1722.781646
 42
0.098707
  0
VERTEX
  8
0
 10
604.695930
 20
1732.588653
 42
0.101175
  0
VERTEX
  8
0
 10
615.537894
 20
1747.581005
 42
0.166485
  0
VERTEX
  8
0
 10
616.999497
 20
1763.002096
 42
0.026112
  0
VERTEX
  8
0
 10
616.296845
 20
1765.376993
 42
0.010090
  0
VERTEX
  8
0
 10
615.086590
 20
1768.591790
 42
0.009958
  0
VERTEX
  8
0
 10
613.631957
 20
1772.030891
 42
0.012128
  0
VERTEX
  8
0
 10
612.129132
 20
1775.187642
 42
0.021833
  0
VERTEX
  8
0
 10
606.718054
 20
1784.810902
 42
0.001956
  0
VERTEX
  8
0
 10
592.002391
 20
1808.293038
 42
0.001715
  0
VERTEX
  8
0
 10
576.966407
 20
1831.899273
 42
0.027036
  0
VERTEX
  8
0
 10
571.389724
 20
1839.634678
 42
0.048436
  0
VERTEX
  8
0
 10
568.058980
 20
1843.032090
 42
0.135176
  0
VERTEX
  8
0
 10
565.051239
 20
1844.410726
 42
0.120519
  0
VERTEX
  8
0
 10
561.543034
 20
1844.133639
 42
0.034706
  0
VERTEX
  8
0
 10
556.468227
 20
1842.058973
 42
-0.003576
  0
VERTEX
  8
0
 10
554.043566
 20
1840.886785
 42
-0.005318
  0
VERTEX
  8
0
 10
551.903110
 20
1839.898573
 42
-0.002473
  0
VERTEX
  8
0
 10
550.072054
 20
1839.087574
 42
-0.103366
  0
VERTEX
  8
0
 10
549.652965
 20
1839.000000
 42
-0.274649
  0
VERTEX
  8
0
 10
548.694247
 20
1839.569588
 42
-0.024123
  0
VERTEX
  8
0
 10
547.413853
 20
1842.217505
 42
-0.023953
  0
VERTEX
  8
0
 10
546.394467
 20
1844.973560
 42
-0.286533
  0
VERTEX
  8
0
 10
546.664902
 20
1846.025020
 42
-0.053978
  0
VERTEX
  8
0
 10
549.485805
 20
1848.183264
 42
-0.000707
  0
VERTEX
  8
0
 10
568.478884
 20
1859.667217
 42
-0.000314
  0
VERTEX
  8
0
 10
588.209283
 20
1871.542023
 42
-0.131417
  0
VERTEX
  8
0
 10
589.724320
 20
1871.977375
 42
-0.163282
  0
VERTEX
  8
0
 10
590.293461
 20
1871.798053
 42
-0.044156
  0
VERTEX
  8
0
 10
591.015714
 20
1871.168171
 42
-0.039801
  0
VERTEX
  8
0
 10
591.755220
 20
1870.264447
 42
-0.032257
  0
SEQEND
  0
POLYLINE
  8
0
 66
1
 70
1
  0
VERTEX
  8
0
 10
1058.500000
 20
1804.990942
 42
-0.002896
  0
VERTEX
  8
0
 10
1067.779934
 20
1804.492489
 42
-0.001974
  0
VERTEX
  8
0
 10
1078.325000
 20
1803.823025
 42
-0.001989
  0
VERTEX
  8
0
 10
1088.491262
 20
1803.096657
 42
-0.004008
  0
VERTEX
  8
0
 10
1096.500000
 20
1802.427799
 42
-0.044180
  0
VERTEX
  8
0
 10
1231.537187
 20
1777.905050
 42
-0.044315
  0
VERTEX
  8
0
 10
1360.021375
 20
1730.053429
 42
-0.044228
  0
VERTEX
  8
0
 10
1478.291044
 20
1660.201948
 42
-0.043646
  0
VERTEX
  8
0
 10
1583.000000
 20
1570.361050
 42
-0.058366
  0
VERTEX
  8
0
 10
1694.972748
 20
1425.439368
 42
-0.059078
  0
VERTEX
  8
0
 10
1769.881002
 20
1259.138495
 42
-0.058982
  0
VERTEX
  8
0
 10
1803.906060
 20
1079.678899
 42
-0.057832
  0
VERTEX
  8
0
 10
1795.452974
 20
896.000000
 42
-0.036041
  0
VERTEX
  8
0
 10
1769.849305
 20
788.384053
 42
-0.035865
  0
VERTEX
  8
0
 10
1729.026202
 20
685.377202
 42
-0.035707
  0
VERTEX
  8
0
 10
1673.699864
 20
588.839296
 42
-0.035031
  0
VERTEX
  8
0
 10
1604.880274
 20
500.500000
 42
-0.010615
  0
VERTEX
  8
0
 10
1591.430885
 20
486.152254
 42
-0.004318
  0
VERTEX
  8
0
 10
1572.549890
 20
467.178831
 42
-0.004286
  0
VERTEX
  8
0
 10
1553.469622
 20
448.653856
 42
-0.011547
  0
VERTEX
  8
0
 10
1539.500000
 20
435.924717
 42
-0.035796
  0
VERTEX
  8
0
 10
1445.703922
 20
365.458381
 42
-0.037387
  0
VERTEX
  8
0
 10
1344.126880
 20
310.228415
 42
-0.037576
  0
VERTEX
  8
0
 10
1235.951308
 20
270.967034
 42
-0.036940
  0
VERTEX
  8
0
 10
1122.500000
 20
248.064398
 42
-0.006097
  0
VERTEX
  8
0
 10
1097.385248
 20
245.210346
 42
-0.011400
  0
VERTEX
  8
0
 10
1076.991716
 20
243.613111
 42
-0.010089
  0
VERTEX
  8
0
 10
1054.975529
 20
242.838171
 42
-0.003752
  0
VERTEX
  8
0
 10
1024.000000
 20
242.605742
 42
-0.003752
  0
VERTEX
  8
0
 10
993.024471
 20
242.838171
 42
-0.010089
  0
VERTEX
  8
0
 10
971.008284
 20
243.613111
 42
-0.011400
  0
VERTEX
  8
0
 10
950.614752
 20
245.210346
 42
-0.006097
  0
VERTEX
  8
0
 10
925.500000
 20
248.064398
 42
-0.029236
  0
VERTEX
  8
0
 10
835.618264
 20
264.773560
 42
-0.029518
  0
VERTEX
  8
0
 10
748.594435
 20
291.814938
 42
-0.029491
  0
VERTEX
  8
0
 10
665.286088
 20
328.944258
 42
-0.029062
  0
VERTEX
  8
0
 10
586.500000
 20
375.779154
 42
-0.010829
  0
VERTEX
  8
0
 10
556.720748
 20
396.863889
 42
-0.012609
  0
VERTEX
  8
0
 10
529.386364
 20
418.208621
 42
-0.012464
  0
VERTEX
  8
0
 10
502.895426
 20
441.122047
 42
-0.010136
  0
VERTEX
  8
0
 10
475.648655
 20
466.931154
 42
-0.007630
  0
VERTEX
  8
0
 10
453.370599
 20
489.588445
 42
-0.010534
  0
VERTEX
  8
0
 10
434.124251
 20
510.640003
 42
-0.010735
  0
VERTEX
  8
0
 10
416.064197
 20
532.164741
 42
-0.008425
  0
VERTEX
  8
0
 10
397.389360
 20
556.238051
 42
-0.049270
  0
VERTEX
  8
0
 10
318.235801
 20
686.958269
 42
-0.049284
  0
VERTEX
  8
0
 10
266.196273
 20
830.626981
 42
-0.049180
  0
VERTEX
  8
0
 10
243.203771
 20
981.990931
 42
-0.048646
  0
VERTEX
  8
0
 10
250.077440
 20
1135.500000
 42
-0.057336
  0
VERTEX
  8
0
 10
295.149985
 20
1307.344176
 42
-0.057220
  0
VERTEX
  8
0
 10
378.089937
 20
1464.588789
 42
-0.057075
  0
VERTEX
  8
0
 10
494.738114
 20
1599.284915
 42
-0.056500
  0
VERTEX
  8
0
 10
639.190560
 20
1704.645721
 42
-0.035876
  0
VERTEX
  8
0
 10
737.164390
 20
1751.438580
 42
-0.034753
  0
VERTEX
  8
0
 10
841.856586
 20
1784.325865
 42
-0.034765
  0
VERTEX
  8
0
 10
950.060310
 20
1802.386824
 42
-0.035956
  0
SEQEND
  0
POLYLINE
  8
0
 66
1
 70
1
  0
VERTEX
  8
0
 10
1627.703907
 20
1761.496673
 42
-0.041382
  0
VERTEX
  8
0
 10
1634.624290
 20
1757.332052
 42
-0.040623
  0
VERTEX
  8
0
 10
1640.810553
 20
1752.061359
 42
-0.038470
  0
VERTEX
  8
0
 10
1646.346916
 20
1745.581465
 42
-0.030280
  0
VERTEX
  8
0
 10
1651.327497
 20
1737.804120
 42
0.008362
  0
VERTEX
  8
0
 10
1653.271323
 20
1734.454192
 42
0.011888
  0
VERTEX
  8
0
 10
1655.118229
 20
1731.549003
 42
0.008007
  0
VERTEX
  8
0
 10
1656.743001
 20
1729.204706
 42
0.146615
  0
VERTEX
  8
0
 10
1657.453075
 20
1728.656380
 42
0.113483
  0
VERTEX
  8
0
 10
1658.137028
 20
1728.559712
 42
0.034797
  0
VERTEX
  8
0
 10
1659.174346
 20
1728.721964
 42
0.032825
  0
VERTEX
  8
0
 10
1660.346086
 20
1729.072072
 42
0.030660
  0
VERTEX
  8
0
 10
1661.489885
 20
1729.579130
 42
-0.016511
  0
VERTEX
  8
0
 10
1662.628693
 20
1730.123015
 42
-0.017201
  0
VERTEX
  8
0
 10
1663.785632
 20
1730.582619
 42
-0.017147
  0
VERTEX
  8
0
 10
1664.809804
 20
1730.910071
 42
-0.068899
  0
VERTEX
  8
0
 10
1665.459319
 20
1731.000000
 42
-0.165996
  0
VERTEX
  8
0
 10
1666.894867
 20
1730.509905
 42
-0.056481
  0
VERTEX
  8
0
 10
1668.497390
 20
1728.953420
 42
-0.056792
  0
VERTEX
  8
0
 10
1669.679213
 20
1727.124409
 42
-0.211779
  0
VERTEX
  8
0
 10
1669.736497
 20
1725.787245
 42
-0.081921
  0
VERTEX
  8
0
 10
1669.206353
 20
1724.898917
 42
-0.000948
  0
VERTEX
  8
0
 10
1664.756173
 20
1719.652104
 42
-0.002865
  0
VERTEX
  8
0
 10
1659.561121
 20
1713.620942
 42
-0.001863
  0
VERTEX
  8
0
 10
1653.492846
 20
1706.709278
 42
-0.001877
  0
VERTEX
  8
0
 10
1643.669168
 20
1695.687628
 42
-0.023605
  0
VERTEX
  8
0
 10
1639.752982
 20
1691.720581
 42
-0.076967
  0
VERTEX
  8
0
 10
1637.433565
 20
1690.164181
 42
-0.261616
  0
VERTEX
  8
0
 10
1635.682774
 20
1690.294636
 42
-0.056180
  0
VERTEX
  8
0
 10
1633.369246
 20
1692.236892
 42
-0.184310
  0
VERTEX
  8
0
 10
1632.613315
 20
1694.046769
 42
-0.122930
  0
VERTEX
  8
0
 10
1633.118807
 20
1696.378133
 42
-0.019582
  0
VERTEX
  8
0
 10
1635.364640
 20
1700.515525
 42
0.033865
  0
VERTEX
  8
0
 10
1638.690802
 20
1707.083599
 42
0.044187
  0
VERTEX
  8
0
 10
1640.762304
 20
1713.489852
 42
0.048400
  0
VERTEX
  8
0
 10
1641.552004
 20
1719.640067
 42
0.058201
  0
VERTEX
  8
0
 10
1641.055599
 20
1725.446062
 42
0.045192
  0
VERTEX
  8
0
 10
1638.734900
 20
1733.169710
 42
0.060362
  0
VERTEX
  8
0
 10
1635.210363
 20
1739.578828
 42
0.063808
  0
VERTEX
  8
0
 10
1630.437651
 20
1744.693693
 42
0.059453
  0
VERTEX
  8
0
 10
1624.420279
 20
1748.582806
 42
0.019204
  0
VERTEX
  8
0
 10
1621.357973
 20
1749.937921
 42
0.045020
  0
VERTEX
  8
0
 10
1618.960668
 20
1750.648689
 42
0.047211
  0
VERTEX
  8
0
 10
1616.544891
 20
1750.900592
 42
0.023075
  0
VERTEX
  8
0
 10
1613.447204
 20
1750.787179
 42
0.044088
  0
VERTEX
  8
0
 10
1609.241428
 20
1750.061515
 42
0.069096
  0
VERTEX
  8
0
 10
1605.861918
 20
1748.644815
 42
0.067685
  0
VERTEX
  8
0
 10
1602.948666
 20
1746.336361
 42
0.040501
  0
VERTEX
  8
0
 10
1600.150220
 20
1742.908052
 42
0.148176
  0
VERTEX
  8
0
 10
1598.267010
 20
1737.017266
 42
0.059967
  0
VERTEX
  8
0
 10
1599.156459
 20
1728.543455
 42
0.027283
  0
VERTEX
  8
0
 10
1603.097830
 20
1714.781200
 42
0.004025
  0
VERTEX
  8
0
 10
1612.795110
 20
1687.500000
 42
-0.009963
  0
VERTEX
  8
0
 10
1614.879836
 20
1681.406751
 42
-0.034131
  0
VERTEX
  8
0
 10
1615.880232
 20
1677.345019
 42
-0.033405
  0
VERTEX
  8
0
 10
1616.329554
 20
1673.140788
 42
-0.009247
  0
VERTEX
  8
0
 10
1616.470307
 20
1666.500000
 42
-0.006504
  0
VERTEX
  8
0
 10
1616.402196
 20
1659.892806
 42
-0.036346
  0
VERTEX
  8
0
 10
1616.063127
 20
1656.370784
 42
-0.053785
  0
VERTEX
  8
0
 10
1615.270768
 20
1653.574273
 42
-0.025305
  0
VERTEX
  8
0
 10
1613.688813
 20
1650.162497
 42
-0.056656
  0
VERTEX
  8
0
 10
1608.574901
 20
1642.654663
 42
-0.060425
  0
VERTEX
  8
0
 10
1602.004431
 20
1636.667934
 42
-0.059863
  0
VERTEX
  8
0
 10
1594.135781
 20
1632.382961
 42
-0.053904
  0
VERTEX
  8
0
 10
1585.193379
 20
1629.894860
 42
-0.088114
  0
VERTEX
  8
0
 10
1570.884190
 20
1630.068066
 42
-0.084410
  0
VERTEX
  8
0
 10
1557.274401
 20
1635.133374
 42
-0.072717
  0
VERTEX
  8
0
 10
1544.522638
 20
1645.233865
 42
-0.045485
  0
VERTEX
  8
0
 10
1532.752279
 20
1660.250000
 42
0.009172
  0
VERTEX
  8
0
 10
1529.980570
 20
1664.369540
 42
0.013849
  0
VERTEX
  8
0
 10
1527.404244
 20
1667.842187
 42
0.008546
  0
VERTEX
  8
0
 10
1525.156621
 20
1670.604182
 42
0.221160
  0
VERTEX
  8
0
 10
1524.305522
 20
1671.000000
 42
0.071883
  0
VERTEX
  8
0
 10
1523.540411
 20
1670.889432
 42
0.020759
  0
VERTEX
  8
0
 10
1522.407079
 20
1670.503073
 42
0.020419
  0
VERTEX
  8
0
 10
1521.151079
 20
1669.955841
 42
0.020462
  0
VERTEX
  8
0
 10
1519.944821
 20
1669.308334
 42
-0.017817
  0
VERTEX
  8
0
 10
1518.161834
 20
1668.339062
 42
-0.124105
  0
VERTEX
  8
0
 10
1517.200190
 20
1668.128704
 42
-0.148160
  0
VERTEX
  8
0
 10
1516.335758
 20
1668.420716
 42
-0.028911
  0
VERTEX
  8
0
 10
1515.040529
 20
1669.463321
 42
-0.034988
  0
VERTEX
  8
0
 10
1514.259686
 20
1670.276225
 42
-0.034937
  0
VERTEX
  8
0
 10
1513.599406
 20
1671.190448
 42
-0.037132
  0
VERTEX
  8
0
 10
1513.140602
 20
1672.068691
 42
-0.102149
  0
VERTEX
  8
0
 10
1513.000000
 20
1672.749727
 42
-0.168590
  0
VERTEX
  8
0
 10
1513.331195
 20
1673.704060
 42
-0.002719
  0
VERTEX
  8
0
 10
1516.933605
 20
1678.218410
 42
-0.006777
  0
VERTEX
  8
0
 10
1521.258704
 20
1683.432146
 42
-0.004403
  0
VERTEX
  8
0
 10
1526.390995
 20
1689.344739
 42
-0.000616
  0
VERTEX
  8
0
 10
1540.340316
 20
1705.092756
 42
-0.027375
  0
VERTEX
  8
0
 10
1543.428996
 20
1708.209517
 42
-0.175543
  0
VERTEX
  8
0
 10
1545.372422
 20
1709.003017
 42
-0.156288
  0
VERTEX
  8
0
 10
1547.483584
 20
1708.418799
 42
-0.032976
  0
VERTEX
  8
0
 10
1548.446636
 20
1707.692792
 42
-0.037669
  0
VERTEX
  8
0
 10
1549.260803
 20
1706.875691
 42
-0.040945
  0
VERTEX
  8
0
 10
1549.830291
 20
1706.088777
 42
-0.137000
  0
VERTEX
  8
0
 10
1550.000000
 20
1705.481028
 42
-0.093747
  0
VERTEX
  8
0
 10
1549.840434
 20
1704.637464
 42
-0.005055
  0
VERTEX
  8
0
 10
1548.818626
 20
1702.108655
 42
-0.007751
  0
VERTEX
  8
0
 10
1547.518921
 20
1699.115182
 42
-0.005566
  0
VERTEX
  8
0
 10
1545.978300
 20
1695.810629
 42
0.025068
  0
VERTEX
  8
0
 10
1542.977764
 20
1688.659103
 42
0.051035
  0
VERTEX
  8
0
 10
1541.500533
 20
1682.754526
 42
0.059003
  0
VERTEX
  8
0
 10
1541.361411
 20
1677.257194
 42
0.046867
  0
VERTEX
  8
0
 10
1542.461797
 20
1671.417014
 42
0.085007
  0
VERTEX
  8
0
 10
1548.534553
 20
1658.829584
 42
0.095398
  0
VERTEX
  8
0
 10
1558.258550
 20
1649.560286
 42
0.108340
  0
VERTEX
  8
0
 10
1569.664095
 20
1645.326941
 42
0.142417
  0
VERTEX
  8
0
 10
1580.598931
 20
1646.905434
 42
0.091004
  0
VERTEX
  8
0
 10
1585.258795
 20
1650.147094
 42
0.081405
  0
VERTEX
  8
0
 10
1588.680519
 20
1654.949862
 42
0.077245
  0
VERTEX
  8
0
 10
1590.515799
 20
1660.832845
 42
0.070139
  0
VERTEX
  8
0
 10
1590.567789
 20
1667.200510
 42
0.037257
  0
VERTEX
  8
0
 10
1589.946797
 20
1670.166866
 42
0.004880
  0
VERTEX
  8
0
 10
1588.099037
 20
1676.345168
 42
0.005652
  0
VERTEX
  8
0
 10
1585.749286
 20
1683.638690
 42
0.004704
  0
VERTEX
  8
0
 10
1583.090992
 20
1691.339682
 42
-0.005322
  0
VERTEX
  8
0
 10
1577.491203
 20
1707.627277
 42
-0.021626
  0
VERTEX
  8
0
 10
1574.622623
 20
1717.706987
 42
-0.034322
  0
VERTEX
  8
0
 10
1573.342595
 20
1725.375373
 42
-0.038671
  0
VERTEX
  8
0
 10
1573.197105
 20
1732.843899
 42
-0.016078
  0
VERTEX
  8
0
 10
1573.580497
 20
1737.093360
 42
-0.035782
  0
VERTEX
  8
0
 10
1574.205329
 20
1740.279293
 42
-0.037258
  0
VERTEX
  8
0
 10
1575.260104
 20
1743.264145
 42
-0.018885
  0
VERTEX
  8
0
 10
1577.001463
 20
1746.851365
 42
-0.050630
  0
VERTEX
  8
0
 10
1581.217706
 20
1753.136639
 42
-0.051466
  0
VERTEX
  8
0
 10
1586.590272
 20
1758.408242
 42
-0.052085
  0
VERTEX
  8
0
 10
1592.861219
 20
1762.418847
 42
-0.054449
  0
VERTEX
  8
0
 10
1599.734467
 20
1764.975632
 42
-0.038432
  0
VERTEX
  8
0
 10
1601.731665
 20
1765.319519
 42
-0.011206
  0
VERTEX
  8
0
 10
1604.845484
 20
1765.541832
 42
-0.011190
  0
VERTEX
  8
0
 10
1608.374446
 20
1765.635317
 42
-0.011761
  0
VERTEX
  8
0
 10
1611.845902
 20
1765.567910
 42
-0.014402
  0
VERTEX
  8
0
 10
1616.645110
 20
1765.223040
 42
-0.037709
  0
VERTEX
  8
0
 10
1620.044971
 20
1764.618687
 42
-0.037641
  0
VERTEX
  8
0
 10
1623.318975
 20
1763.509862
 42
-0.014306
  0
SEQEND
  0
POLYLINE
  8
0
 66
1
 70
1
  0
VERTEX
  8
0
 10
339.490348
 20
1659.708565
 42
-0.006199
  0
VERTEX
  8
0
 10
344.489425
 20
1656.054430
 42
-0.009310
  0
VERTEX
  8
0
 10
348.750063
 20
1652.732528
 42
-0.004805
  0
VERTEX
  8
0
 10
352.247121
 20
1649.843626
 42
-0.171781
  0
VERTEX
  8
0
 10
352.771018
 20
1648.950489
 42
-0.117154
  0
VERTEX
  8
0
 10
352.739472
 20
1648.217149
 42
-0.042218
  0
VERTEX
  8
0
 10
352.368644
 20
1647.233817
 42
-0.039042
  0
VERTEX
  8
0
 10
351.763336
 20
1646.184069
 42
-0.037249
  0
VERTEX
  8
0
 10
350.993547
 20
1645.223448
 42
0.000000
  0
VERTEX
  8
0
 10
348.925753
 20
1643.003932
 42
0.000000
  0
VERTEX
  8
0
 10
344.157648
 20
1645.420114
 42
0.071028
  0
VERTEX
  8
0
 10
335.355996
 20
1648.407439
 42
0.136936
  0
VERTEX
  8
0
 10
327.998406
 20
1647.767253
 42
0.104269
  0
VERTEX
  8
0
 10
320.715297
 20
1643.132257
 42
0.031041
  0
VERTEX
  8
0
 10
311.834013
 20
1633.291401
 42
0.007261
  0
VERTEX
  8
0
 10
309.066600
 20
1629.707957
 42
0.048841
  0
VERTEX
  8
0
 10
307.902412
 20
1627.789718
 42
0.125216
  0
VERTEX
  8
0
 10
307.648936
 20
1626.531146
 42
0.192496
  0
VERTEX
  8
0
 10
308.107096
 20
1625.534079
 42
0.025845
  0
VERTEX
  8
0
 10
315.080623
 20
1619.563789
 42
0.000509
  0
VERTEX
  8
0
 10
352.292454
 20
1590.959850
 42
0.000215
  0
VERTEX
  8
0
 10
391.248960
 20
1561.104450
 42
0.065539
  0
VERTEX
  8
0
 10
394.676281
 20
1559.130335
 42
0.076695
  0
VERTEX
  8
0
 10
397.730182
 20
1558.387527
 42
0.114740
  0
VERTEX
  8
0
 10
400.436792
 20
1558.777155
 42
0.085314
  0
VERTEX
  8
0
 10
403.242735
 20
1560.465492
 42
0.028190
  0
VERTEX
  8
0
 10
406.713540
 20
1563.819268
 42
-0.008450
  0
VERTEX
  8
0
 10
409.418185
 20
1566.647425
 42
-0.090929
  0
VERTEX
  8
0
 10
410.712088
 20
1567.550717
 42
-0.178181
  0
VERTEX
  8
0
 10
411.890630
 20
1567.639793
 42
-0.053594
  0
VERTEX
  8
0
 10
413.584639
 20
1566.954703
 42
-0.025346
  0
VERTEX
  8
0
 10
414.635840
 20
1566.321609
 42
-0.026796
  0
VERTEX
  8
0
 10
415.597400
 20
1565.596167
 42
-0.027710
  0
VERTEX
  8
0
 10
416.352072
 20
1564.885577
 42
-0.098734
  0
VERTEX
  8
0
 10
416.704704
 20
1564.327147
 42
-0.266615
  0
VERTEX
  8
0
 10
416.406146
 20
1562.412668
 42
-0.000661
  0
VERTEX
  8
0
 10
398.484494
 20
1540.120102
 42
-0.000733
  0
VERTEX
  8
0
 10
380.566759
 20
1517.959215
 42
-0.226091
  0
VERTEX
  8
0
 10
378.553891
 20
1517.000000
 42
-0.120183
  0
VERTEX
  8
0
 10
377.949658
 20
1517.147365
 42
-0.030041
  0
VERTEX
  8
0
 10
377.071251
 20
1517.672119
 42
-0.028946
  0
VERTEX
  8
0
 10
376.110522
 20
1518.412280
 42
-0.025578
  0
VERTEX
  8
0
 10
375.199103
 20
1519.288064
 42
0.000000
  0
VERTEX
  8
0
 10
373.049579
 20
1521.576128
 42
0.000000
  0
VERTEX
  8
0
 10
376.524789
 20
1526.464087
 42
0.043342
  0
VERTEX
  8
0
 10
379.152479
 20
1530.934241
 42
0.108747
  0
VERTEX
  8
0
 10
380.003141
 20
1534.597838
 42
0.128202
  0
VERTEX
  8
0
 10
379.182767
 20
1537.900006
 42
0.072685
  0
VERTEX
  8
0
 10
376.694579
 20
1541.216667
 42
0.026842
  0
VERTEX
  8
0
 10
374.178019
 20
1543.461424
 42
0.000692
  0
VERTEX
  8
0
 10
362.348137
 20
1552.897759
 42
0.001467
  0
VERTEX
  8
0
 10
348.405656
 20
1563.921038
 42
0.001001
  0
VERTEX
  8
0
 10
332.497283
 20
1576.371447
 42
0.000000
  0
VERTEX
  8
0
 10
291.605409
 20
1608.242895
 42
0.000000
  0
VERTEX
  8
0
 10
289.241294
 20
1605.371447
 42
0.005712
  0
VERTEX
  8
0
 10
284.318585
 20
1599.251170
 42
0.011354
  0
VERTEX
  8
0
 10
280.586362
 20
1594.272194
 42
0.013804
  0
VERTEX
  8
0
 10
277.895489
 20
1590.278647
 42
0.042411
  0
VERTEX
  8
0
 10
276.389534
 20
1587.389860
 42
0.090920
  0
VERTEX
  8
0
 10
275.480507
 20
1583.215912
 42
0.074681
  0
VERTEX
  8
0
 10
276.009242
 20
1578.677888
 42
0.065968
  0
VERTEX
  8
0
 10
277.967879
 20
1574.003874
 42
0.048344
  0
VERTEX
  8
0
 10
281.262464
 20
1569.439165
 42
-0.008114
  0
VERTEX
  8
0
 10
283.821330
 20
1566.435229
 42
-0.090649
  0
VERTEX
  8
0
 10
284.583319
 20
1565.068260
 42
-0.171955
  0
VERTEX
  8
0
 10
284.567926
 20
1563.870783
 42
-0.047649
  0
VERTEX
  8
0
 10
283.740205
 20
1562.151392
 42
-0.030253
  0
VERTEX
  8
0
 10
283.024863
 20
1561.115531
 42
-0.032050
  0
VERTEX
  8
0
 10
282.202387
 20
1560.194516
 42
-0.033863
  0
VERTEX
  8
0
 10
281.396052
 20
1559.501337
 42
-0.109765
  0
VERTEX
  8
0
 10
280.756614
 20
1559.212919
 42
-0.233226
  0
VERTEX
  8
0
 10
278.279387
 20
1559.853880
 42
-0.003405
  0
VERTEX
  8
0
 10
266.555817
 20
1570.100191
 42
-0.002953
  0
VERTEX
  8
0
 10
254.864836
 20
1580.583185
 42
-0.309425
  0
VERTEX
  8
0
 10
254.390508
 20
1582.575264
 42
-0.079591
  0
VERTEX
  8
0
 10
256.762974
 20
1586.668822
 42
-0.000334
  0
VERTEX
  8
0
 10
289.627111
 20
1626.914731
 42
-0.000139
  0
VERTEX
  8
0
 10
323.337432
 20
1668.117224
 42
-0.219234
  0
VERTEX
  8
0
 10
325.000000
 20
1668.926828
 42
-0.144095
  0
VERTEX
  8
0
 10
325.998302
 20
1668.656230
 42
-0.003918
  0
VERTEX
  8
0
 10
329.875290
 20
1666.232282
 42
-0.007814
  0
VERTEX
  8
0
 10
334.403742
 20
1663.251022
 42
-0.005241
  0
SEQEND
  0
POLYLINE
  8
0
 66
1
 70
1
  0
VERTEX
  8
0
 10
1749.268883
 20
1639.500000
 42
-0.000818
  0
VERTEX
  8
0
 10
1763.663941
 20
1622.345245
 42
-0.017204
  0
VERTEX
  8
0
 10
1767.767153
 20
1617.081281
 42
-0.069983
  0
VERTEX
  8
0
 10
1769.251546
 20
1614.284653
 42
-0.266277
  0
VERTEX
  8
0
 10
1768.925437
 20
1612.410157
 42
-0.059994
  0
VERTEX
  8
0
 10
1766.738787
 20
1610.339213
 42
-0.203986
  0
VERTEX
  8
0
 10
1764.870769
 20
1609.890118
 42
-0.133158
  0
VERTEX
  8
0
 10
1762.721502
 20
1610.879131
 42
-0.021032
  0
VERTEX
  8
0
 10
1759.250626
 20
1614.036215
 42
0.043193
  0
VERTEX
  8
0
 10
1754.869962
 20
1617.679917
 42
0.126537
  0
VERTEX
  8
0
 10
1751.217660
 20
1619.036949
 42
0.132887
  0
VERTEX
  8
0
 10
1747.474780
 20
1618.432105
 42
0.049809
  0
VERTEX
  8
0
 10
1742.833267
 20
1615.750000
 42
0.013457
  0
VERTEX
  8
0
 10
1734.858450
 20
1609.682203
 42
0.000416
  0
VERTEX
  8
0
 10
1702.752520
 20
1583.816688
 42
0.000312
  0
VERTEX
  8
0
 10
1670.015326
 20
1557.363926
 42
0.018811
  0
VERTEX
  8
0
 10
1664.310473
 20
1552.381923
 42
0.028203
  0
VERTEX
  8
0
 10
1662.722656
 20
1550.707732
 42
0.058094
  0
VERTEX
  8
0
 10
1661.724915
 20
1549.206162
 42
0.067007
  0
VERTEX
  8
0
 10
1661.185139
 20
1547.663600
 42
0.051131
  0
VERTEX
  8
0
 10
1661.005265
 20
1545.881923
 42
0.052611
  0
VERTEX
  8
0
 10
1661.251280
 20
1543.584631
 42
0.058625
  0
VERTEX
  8
0
 10
1661.970880
 20
1541.476364
 42
0.035165
  0
VERTEX
  8
0
 10
1663.457976
 20
1538.856910
 42
0.007326
  0
VERTEX
  8
0
 10
1666.449950
 20
1534.495659
 42
0.000000
  0
VERTEX
  8
0
 10
1668.399900
 20
1531.740730
 42
0.000000
  0
VERTEX
  8
0
 10
1665.551985
 20
1529.291057
 42
0.000000
  0
VERTEX
  8
0
 10
1662.704071
 20
1526.841384
 42
0.000000
  0
VERTEX
  8
0
 10
1660.404974
 20
1529.170692
 42
-0.021601
  0
VERTEX
  8
0
 10
1653.131261
 20
1537.206249
 42
-0.003185
  0
VERTEX
  8
0
 10
1639.242120
 20
1554.168700
 42
-0.000502
  0
VERTEX
  8
0
 10
1623.903655
 20
1573.185544
 42
-0.267130
  0
VERTEX
  8
0
 10
1623.680249
 20
1574.609126
 42
-0.080863
  0
VERTEX
  8
0
 10
1624.026205
 20
1575.202592
 42
-0.025537
  0
VERTEX
  8
0
 10
1624.720447
 20
1575.962578
 42
-0.024755
  0
VERTEX
  8
0
 10
1625.594063
 20
1576.744413
 42
-0.025124
  0
VERTEX
  8
0
 10
1626.536513
 20
1577.431967
 42
-0.068755
  0
VERTEX
  8
0
 10
1628.076734
 20
1578.162246
 42
-0.188888
  0
VERTEX
  8
0
 10
1629.255881
 20
1578.082029
 42
-0.081362
  0
VERTEX
  8
0
 10
1630.663319
 20
1577.111553
 42
-0.006813
  0
VERTEX
  8
0
 10
1633.818929
 20
1573.991959
 42
0.044444
  0
VERTEX
  8
0
 10
1638.120281
 20
1570.336102
 42
0.126811
  0
VERTEX
  8
0
 10
1641.763728
 20
1568.950748
 42
0.133398
  0
VERTEX
  8
0
 10
1645.507380
 20
1569.532469
 42
0.051507
  0
VERTEX
  8
0
 10
1650.099962
 20
1572.176093
 42
0.012899
  0
VERTEX
  8
0
 10
1660.078533
 20
1579.777996
 42
0.000662
  0
VERTEX
  8
0
 10
1691.705660
 20
1605.256665
 42
0.000293
  0
VERTEX
  8
0
 10
1725.124135
 20
1632.283788
 42
0.033682
  0
VERTEX
  8
0
 10
1729.250000
 20
1636.111872
 42
0.084752
  0
VERTEX
  8
0
 10
1731.367287
 20
1639.299004
 42
0.118759
  0
VERTEX
  8
0
 10
1731.979663
 20
1642.647755
 42
0.095928
  0
VERTEX
  8
0
 10
1731.026018
 20
1646.432839
 42
0.041139
  0
VERTEX
  8
0
 10
1728.423647
 20
1650.974678
 42
-0.007125
  0
VERTEX
  8
0
 10
1726.210265
 20
1654.292648
 42
-0.081920
  0
VERTEX
  8
0
 10
1725.586461
 20
1655.725657
 42
-0.182389
  0
VERTEX
  8
0
 10
1725.711355
 20
1656.819230
 42
-0.065352
  0
VERTEX
  8
0
 10
1726.618473
 20
1658.130911
 42
-0.057214
  0
VERTEX
  8
0
 10
1727.445724
 20
1658.857828
 42
-0.048355
  0
VERTEX
  8
0
 10
1728.462866
 20
1659.426765
 42
-0.050575
  0
VERTEX
  8
0
 10
1729.507035
 20
1659.763884
 42
-0.089170
  0
VERTEX
  8
0
 10
1730.410072
 20
1659.794020
 42
-0.166674
  0
VERTEX
  8
0
 10
1731.755049
 20
1659.102640
 42
-0.004226
  0
VERTEX
  8
0
 10
1736.521051
 20
1654.060088
 42
-0.008027
  0
VERTEX
  8
0
 10
1742.291401
 20
1647.647149
 42
-0.004216
  0
SEQEND
  0
POLYLINE
  8
0
 66
1
 70
1
  0
VERTEX
  8
0
 10
1844.255460
 20
1503.500000
 42
-0.000688
  0
VERTEX
  8
0
 10
1854.639300
 20
1485.370175
 42
-0.001098
  0
VERTEX
  8
0
 10
1863.456040
 20
1469.848172
 42
-0.000197
  0
VERTEX
  8
0
 10
1871.210223
 20
1456.114092
 42
-0.060236
  0
VERTEX
  8
0
 10
1871.697075
 20
1454.940586
 42
-0.288055
  0
VERTEX
  8
0
 10
1871.374762
 20
1453.852528
 42
-0.019651
  0
VERTEX
  8
0
 10
1868.761161
 20
1451.727824
 42
-0.017705
  0
VERTEX
  8
0
 10
1864.621649
 20
1448.847690
 42
-0.005103
  0
VERTEX
  8
0
 10
1858.024255
 20
1444.690586
 42
-0.003963
  0
VERTEX
  8
0
 10
1852.520042
 20
1441.360177
 42
-0.005968
  0
VERTEX
  8
0
 10
1847.665196
 20
1438.552860
 42
-0.002637
  0
VERTEX
  8
0
 10
1843.495556
 20
1436.236582
 42
-0.126110
  0
VERTEX
  8
0
 10
1842.572473
 20
1436.000000
 42
-0.136495
  0
VERTEX
  8
0
 10
1841.940100
 20
1436.175908
 42
-0.041109
  0
VERTEX
  8
0
 10
1841.122999
 20
1436.765182
 42
-0.037805
  0
VERTEX
  8
0
 10
1840.275377
 20
1437.607977
 42
-0.033172
  0
VERTEX
  8
0
 10
1839.523240
 20
1438.604875
 42
-0.057561
  0
VERTEX
  8
0
 10
1838.658068
 20
1440.329193
 42
-0.203025
  0
VERTEX
  8
0
 10
1838.719407
 20
1441.541446
 42
-0.084244
  0
VERTEX
  8
0
 10
1839.725428
 20
1442.952851
 42
-0.005501
  0
VERTEX
  8
0
 10
1843.332842
 20
1446.468046
 42
0.038713
  0
VERTEX
  8
0
 10
1847.685067
 20
1451.312184
 42
0.084287
  0
VERTEX
  8
0
 10
1850.013490
 20
1455.715684
 42
0.095863
  0
VERTEX
  8
0
 10
1850.594460
 20
1460.262870
 42
0.061834
  0
VERTEX
  8
0
 10
1849.601071
 20
1465.496501
 42
0.038343
  0
VERTEX
  8
0
 10
1847.544667
 20
1470.531626
 42
0.011674
  0
VERTEX
  8
0
 10
1843.682272
 20
1477.812593
 42
0.004654
  0
VERTEX
  8
0
 10
1839.424319
 20
1485.242602
 42
0.266317
  0
VERTEX
  8
0
 10
1838.103185
 20
1486.000000
 42
0.115117
  0
VERTEX
  8
0
 10
1837.527617
 20
1485.865705
 42
0.002450
  0
VERTEX
  8
0
 10
1834.907281
 20
1484.556513
 42
0.005527
  0
VERTEX
  8
0
 10
1831.852986
 20
1482.969116
 42
0.003683
  0
VERTEX
  8
0
 10
1828.387236
 20
1481.086002
 42
-0.000271
  0
VERTEX
  8
0
 10
1822.952554
 20
1478.084857
 42
-0.000033
  0
VERTEX
  8
0
 10
1811.095001
 20
1471.546271
 42
-0.000039
  0
VERTEX
  8
0
 10
1797.009510
 20
1463.781815
 42
-0.000033
  0
VERTEX
  8
0
 10
1782.000000
 20
1455.510827
 42
0.002090
  0
VERTEX
  8
0
 10
1767.431341
 20
1447.404459
 42
0.003076
  0
VERTEX
  8
0
 10
1754.707813
 20
1440.151619
 42
0.001440
  0
VERTEX
  8
0
 10
1743.935868
 20
1433.881672
 42
0.057474
  0
VERTEX
  8
0
 10
1741.750000
 20
1432.237733
 42
0.088252
  0
VERTEX
  8
0
 10
1739.797117
 20
1429.587780
 42
0.110666
  0
VERTEX
  8
0
 10
1739.077554
 20
1426.629613
 42
0.090954
  0
VERTEX
  8
0
 10
1739.641557
 20
1423.205150
 42
0.043699
  0
VERTEX
  8
0
 10
1741.512045
 20
1419.147926
 42
-0.007991
  0
VERTEX
  8
0
 10
1742.464971
 20
1417.417396
 42
-0.010729
  0
VERTEX
  8
0
 10
1743.269163
 20
1415.818052
 42
-0.008065
  0
VERTEX
  8
0
 10
1743.886703
 20
1414.465536
 42
-0.103413
  0
VERTEX
  8
0
 10
1744.000000
 20
1413.923607
 42
-0.259301
  0
VERTEX
  8
0
 10
1743.383477
 20
1412.814722
 42
-0.030897
  0
VERTEX
  8
0
 10
1740.818227
 20
1411.432678
 42
-0.030611
  0
VERTEX
  8
0
 10
1738.111844
 20
1410.379254
 42
-0.281576
  0
VERTEX
  8
0
 10
1736.939246
 20
1410.664902
 42
-0.066935
  0
VERTEX
  8
0
 10
1734.681135
 20
1413.640005
 42
-0.000689
  0
VERTEX
  8
0
 10
1721.750336
 20
1436.531542
 42
-0.000381
  0
VERTEX
  8
0
 10
1708.520557
 20
1460.069896
 42
-0.128522
  0
VERTEX
  8
0
 10
1708.000000
 20
1462.061607
 42
-0.200731
  0
VERTEX
  8
0
 10
1708.481174
 20
1463.211868
 42
-0.046757
  0
VERTEX
  8
0
 10
1710.136985
 20
1464.564487
 42
-0.047576
  0
VERTEX
  8
0
 10
1712.140187
 20
1465.649575
 42
-0.100676
  0
VERTEX
  8
0
 10
1713.862912
 20
1466.000000
 42
-0.218052
  0
VERTEX
  8
0
 10
1714.270226
 20
1465.813501
 42
-0.016149
  0
VERTEX
  8
0
 10
1715.059684
 20
1464.836715
 42
-0.020085
  0
VERTEX
  8
0
 10
1715.948838
 20
1463.557115
 42
-0.013770
  0
VERTEX
  8
0
 10
1716.857429
 20
1462.039881
 42
0.039845
  0
VERTEX
  8
0
 10
1719.015802
 20
1458.827980
 42
0.049827
  0
VERTEX
  8
0
 10
1721.516926
 20
1456.253262
 42
0.057452
  0
VERTEX
  8
0
 10
1724.072278
 20
1454.558749
 42
0.119409
  0
VERTEX
  8
0
 10
1726.384859
 20
1454.009769
 42
0.108142
  0
VERTEX
  8
0
 10
1730.094257
 20
1454.839514
 42
0.009793
  0
VERTEX
  8
0
 10
1738.674033
 20
1459.038070
 42
0.006383
  0
VERTEX
  8
0
 10
1752.940900
 20
1466.601109
 42
0.000825
  0
VERTEX
  8
0
 10
1783.208060
 20
1483.209403
 42
0.000000
  0
VERTEX
  8
0
 10
1826.916119
 20
1507.286992
 42
0.000000
  0
VERTEX
  8
0
 10
1824.265087
 20
1511.893496
 42
0.005926
  0
VERTEX
  8
0
 10
1818.896447
 20
1520.971587
 42
0.026692
  0
VERTEX
  8
0
 10
1815.420590
 20
1526.060055
 42
0.046652
  0
VERTEX
  8
0
 10
1812.561789
 20
1529.154161
 42
0.076486
  0
VERTEX
  8
0
 10
1809.581968
 20
1531.102160
 42
0.041278
  0
VERTEX
  8
0
 10
1805.923383
 20
1532.412036
 42
0.061833
  0
VERTEX
  8
0
 10
1802.565968
 20
1532.877606
 42
0.051684
  0
VERTEX
  8
0
 10
1798.779547
 20
1532.539742
 42
0.020323
  0
VERTEX
  8
0
 10
1793.676985
 20
1531.329330
 42
-0.006383
  0
VERTEX
  8
0
 10
1789.926789
 20
1530.328538
 42
-0.068643
  0
VERTEX
  8
0
 10
1788.367921
 20
1530.154868
 42
-0.157058
  0
VERTEX
  8
0
 10
1787.352537
 20
1530.511411
 42
-0.072668
  0
VERTEX
  8
0
 10
1786.361381
 20
1531.520460
 42
-0.129314
  0
VERTEX
  8
0
 10
1785.246091
 20
1534.360741
 42
-0.233564
  0
VERTEX
  8
0
 10
1786.065193
 20
1536.662158
 42
-0.073480
  0
VERTEX
  8
0
 10
1789.570052
 20
1539.181624
 42
-0.006642
  0
VERTEX
  8
0
 10
1799.250000
 20
1544.017202
 42
-0.005855
  0
VERTEX
  8
0
 10
1804.845842
 20
1546.639942
 42
-0.008419
  0
VERTEX
  8
0
 10
1809.864896
 20
1548.819848
 42
-0.005001
  0
VERTEX
  8
0
 10
1814.114155
 20
1550.531376
 42
-0.120415
  0
VERTEX
  8
0
 10
1815.375177
 20
1550.700375
 42
-0.230276
  0
VERTEX
  8
0
 10
1816.797480
 20
1549.810417
 42
-0.002480
  0
VERTEX
  8
0
 10
1823.028435
 20
1539.739444
 42
-0.005401
  0
VERTEX
  8
0
 10
1831.405789
 20
1525.709761
 42
-0.001495
  0
SEQEND
  0
POLYLINE
  8
0
 66
1
 70
1
  0
VERTEX
  8
0
 10
216.800263
 20
1514.185549
 42
0.000000
  0
VERTEX
  8
0
 10
219.100527
 20
1512.415570
 42
0.000000
  0
VERTEX
  8
0
 10
216.560032
 20
1506.957785
 42
0.025293
  0
VERTEX
  8
0
 10
214.608088
 20
1502.141892
 42
0.098438
  0
VERTEX
  8
0
 10
214.167008
 20
1498.972036
 42
0.130766
  0
VERTEX
  8
0
 10
215.023716
 20
1496.369747
 42
0.060276
  0
VERTEX
  8
0
 10
217.334367
 20
1493.618077
 42
0.064787
  0
VERTEX
  8
0
 10
222.302270
 20
1490.052693
 42
0.000572
  0
VERTEX
  8
0
 10
263.217767
 20
1468.125836
 42
0.000943
  0
VERTEX
  8
0
 10
302.904639
 20
1447.011978
 42
0.036774
  0
VERTEX
  8
0
 10
312.050611
 20
1442.998452
 42
0.099561
  0
VERTEX
  8
0
 10
315.588092
 20
1442.494370
 42
0.109804
  0
VERTEX
  8
0
 10
318.911859
 20
1443.434515
 42
0.087814
  0
VERTEX
  8
0
 10
322.069201
 20
1445.933697
 42
0.043641
  0
VERTEX
  8
0
 10
325.122507
 20
1450.044675
 42
-0.006350
  0
VERTEX
  8
0
 10
326.324697
 20
1451.944013
 42
-0.009923
  0
VERTEX
  8
0
 10
327.412159
 20
1453.544373
 42
-0.004502
  0
VERTEX
  8
0
 10
328.365194
 20
1454.863389
 42
-0.238394
  0
VERTEX
  8
0
 10
328.635434
 20
1455.000000
 42
-0.124313
  0
VERTEX
  8
0
 10
330.178271
 20
1454.610391
 42
-0.029528
  0
VERTEX
  8
0
 10
332.451025
 20
1453.205196
 42
-0.024628
  0
VERTEX
  8
0
 10
334.516671
 20
1451.595286
 42
-0.284483
  0
VERTEX
  8
0
 10
334.812186
 20
1450.657248
 42
-0.063676
  0
VERTEX
  8
0
 10
333.697907
 20
1447.837284
 42
-0.000400
  0
VERTEX
  8
0
 10
320.542138
 20
1423.999447
 42
-0.000209
  0
VERTEX
  8
0
 10
307.045565
 20
1399.614379
 42
-0.128524
  0
VERTEX
  8
0
 10
305.958750
 20
1398.474506
 42
-0.234016
  0
VERTEX
  8
0
 10
304.500438
 20
1398.337291
 42
-0.040129
  0
VERTEX
  8
0
 10
301.915992
 20
1399.573499
 42
-0.040249
  0
VERTEX
  8
0
 10
299.626439
 20
1401.162923
 42
-0.333748
  0
VERTEX
  8
0
 10
299.344770
 20
1402.317593
 42
-0.000686
  0
VERTEX
  8
0
 10
299.657503
 20
1403.044369
 42
-0.000081
  0
VERTEX
  8
0
 10
300.353742
 20
1404.655574
 42
-0.000097
  0
VERTEX
  8
0
 10
301.182105
 20
1406.570656
 42
-0.000080
  0
VERTEX
  8
0
 10
302.067792
 20
1408.616275
 42
0.041865
  0
VERTEX
  8
0
 10
303.491659
 20
1412.840964
 42
0.105845
  0
VERTEX
  8
0
 10
303.590002
 20
1416.065142
 42
0.121370
  0
VERTEX
  8
0
 10
302.373592
 20
1418.774670
 42
0.064821
  0
VERTEX
  8
0
 10
299.742234
 20
1421.366378
 42
0.040238
  0
VERTEX
  8
0
 10
293.611123
 20
1425.278218
 42
0.000514
  0
VERTEX
  8
0
 10
252.988699
 20
1446.761098
 42
0.000490
  0
VERTEX
  8
0
 10
212.205111
 20
1468.224480
 42
0.042438
  0
VERTEX
  8
0
 10
205.811231
 20
1470.917533
 42
0.025367
  0
VERTEX
  8
0
 10
203.737116
 20
1471.476166
 42
0.068937
  0
VERTEX
  8
0
 10
202.222925
 20
1471.589507
 42
0.072862
  0
VERTEX
  8
0
 10
200.783825
 20
1471.285168
 42
0.030854
  0
VERTEX
  8
0
 10
198.974133
 20
1470.486624
 42
0.044756
  0
VERTEX
  8
0
 10
197.647120
 20
1469.642212
 42
0.028511
  0
VERTEX
  8
0
 10
196.262148
 20
1468.444157
 42
0.028569
  0
VERTEX
  8
0
 10
195.028172
 20
1467.102209
 42
0.046452
  0
VERTEX
  8
0
 10
194.162902
 20
1465.819765
 42
-0.009675
  0
VERTEX
  8
0
 10
193.412296
 20
1464.508986
 42
-0.007070
  0
VERTEX
  8
0
 10
192.530318
 20
1463.081835
 42
-0.007147
  0
VERTEX
  8
0
 10
191.655792
 20
1461.752780
 42
-0.015635
  0
VERTEX
  8
0
 10
190.940307
 20
1460.766394
 42
-0.034766
  0
VERTEX
  8
0
 10
189.911569
 20
1459.612958
 42
-0.178417
  0
VERTEX
  8
0
 10
189.141642
 20
1459.269262
 42
-0.123361
  0
VERTEX
  8
0
 10
188.174497
 20
1459.443998
 42
-0.013257
  0
VERTEX
  8
0
 10
186.109256
 20
1460.443501
 42
-0.026775
  0
VERTEX
  8
0
 10
184.602641
 20
1461.327848
 42
-0.080831
  0
VERTEX
  8
0
 10
183.730704
 20
1462.133064
 42
-0.128068
  0
VERTEX
  8
0
 10
183.379765
 20
1462.942496
 42
-0.129113
  0
VERTEX
  8
0
 10
183.469737
 20
1463.817593
 42
-0.034824
  0
VERTEX
  8
0
 10
184.842067
 20
1466.818765
 42
-0.000288
  0
VERTEX
  8
0
 10
197.209824
 20
1489.507642
 42
-0.000251
  0
VERTEX
  8
0
 10
209.686478
 20
1512.337739
 42
-0.040308
  0
VERTEX
  8
0
 10
211.271149
 20
1514.750000
 42
-0.101451
  0
VERTEX
  8
0
 10
212.326858
 20
1515.651530
 42
-0.152749
  0
VERTEX
  8
0
 10
213.503705
 20
1515.891830
 42
-0.105251
  0
VERTEX
  8
0
 10
214.933317
 20
1515.431576
 42
-0.033675
  0
SEQEND
  0
POLYLINE
  8
0
 66
1
 70
1
  0
VERTEX
  8
0
 10
156.732261
 20
1394.666220
 42
-0.126424
  0
VERTEX
  8
0
 10
157.253920
 20
1393.808156
 42
-0.089208
  0
VERTEX
  8
0
 10
157.386021
 20
1392.682143
 42
-0.049919
  0
VERTEX
  8
0
 10
157.119835
 20
1391.042260
 42
-0.012210
  0
VERTEX
  8
0
 10
156.349343
 20
1388.413258
 42
0.012980
  0
VERTEX
  8
0
 10
155.457872
 20
1385.354033
 42
0.065995
  0
VERTEX
  8
0
 10
155.235754
 20
1383.597645
 42
0.082604
  0
VERTEX
  8
0
 10
155.506046
 20
1382.030914
 42
0.026855
  0
VERTEX
  8
0
 10
156.400754
 20
1379.850388
 42
0.046251
  0
VERTEX
  8
0
 10
157.312532
 20
1378.313680
 42
0.037919
  0
VERTEX
  8
0
 10
158.548502
 20
1376.857374
 42
0.038128
  0
VERTEX
  8
0
 10
159.981295
 20
1375.613246
 42
0.048500
  0
VERTEX
  8
0
 10
161.480692
 20
1374.710598
 42
0.031811
  0
VERTEX
  8
0
 10
163.966360
 20
1373.713841
 42
0.001083
  0
VERTEX
  8
0
 10
173.967869
 20
1370.448187
 42
0.002035
  0
VERTEX
  8
0
 10
185.806461
 20
1366.664250
 42
0.001418
  0
VERTEX
  8
0
 10
199.197020
 20
1362.485985
 42
-0.004608
  0
VERTEX
  8
0
 10
223.370124
 20
1354.773669
 42
-0.018563
  0
VERTEX
  8
0
 10
237.895946
 20
1349.386006
 42
-0.030499
  0
VERTEX
  8
0
 10
247.614047
 20
1344.652334
 42
-0.054569
  0
VERTEX
  8
0
 10
254.818693
 20
1339.473102
 42
-0.052542
  0
VERTEX
  8
0
 10
259.227552
 20
1334.581110
 42
-0.035868
  0
VERTEX
  8
0
 10
263.186096
 20
1328.222114
 42
-0.035159
  0
VERTEX
  8
0
 10
266.287333
 20
1321.179697
 42
-0.042964
  0
VERTEX
  8
0
 10
268.127493
 20
1314.224589
 42
-0.080791
  0
VERTEX
  8
0
 10
268.279688
 20
1301.040584
 42
-0.042460
  0
VERTEX
  8
0
 10
264.460367
 20
1285.057303
 42
-0.042285
  0
VERTEX
  8
0
 10
257.928966
 20
1269.777588
 42
-0.073521
  0
VERTEX
  8
0
 10
249.762167
 20
1258.699198
 42
-0.028704
  0
VERTEX
  8
0
 10
247.270149
 20
1256.462852
 42
-0.019348
  0
VERTEX
  8
0
 10
244.193303
 20
1254.194421
 42
-0.018557
  0
VERTEX
  8
0
 10
240.775033
 20
1252.053736
 42
-0.019225
  0
VERTEX
  8
0
 10
237.246817
 20
1250.199198
 42
-0.012638
  0
VERTEX
  8
0
 10
232.363567
 20
1248.017181
 42
-0.048187
  0
VERTEX
  8
0
 10
229.178250
 20
1247.036569
 42
-0.043246
  0
VERTEX
  8
0
 10
225.700336
 20
1246.631630
 42
-0.008827
  0
VERTEX
  8
0
 10
219.500000
 20
1246.558346
 42
-0.026827
  0
VERTEX
  8
0
 10
211.045331
 20
1247.061790
 42
-0.030597
  0
VERTEX
  8
0
 10
203.062877
 20
1248.467331
 42
-0.014150
  0
VERTEX
  8
0
 10
191.480171
 20
1251.595317
 42
-0.001563
  0
VERTEX
  8
0
 10
165.207850
 20
1259.583981
 42
0.001647
  0
VERTEX
  8
0
 10
142.605812
 20
1266.452457
 42
0.013445
  0
VERTEX
  8
0
 10
132.187445
 20
1269.277992
 42
0.028329
  0
VERTEX
  8
0
 10
126.054986
 20
1270.402188
 42
0.122605
  0
VERTEX
  8
0
 10
122.407612
 20
1269.964874
 42
0.061285
  0
VERTEX
  8
0
 10
120.106185
 20
1268.749892
 42
0.079179
  0
VERTEX
  8
0
 10
118.387223
 20
1267.095757
 42
0.059476
  0
VERTEX
  8
0
 10
116.945818
 20
1264.623075
 42
0.020420
  0
VERTEX
  8
0
 10
115.451923
 20
1260.750000
 42
-0.053015
  0
VERTEX
  8
0
 10
114.012919
 20
1257.638865
 42
-0.156127
  0
VERTEX
  8
0
 10
112.264456
 20
1256.099508
 42
-0.184262
  0
VERTEX
  8
0
 10
110.148090
 20
1255.998494
 42
-0.078820
  0
VERTEX
  8
0
 10
107.587855
 20
1257.312100
 42
-0.287774
  0
VERTEX
  8
0
 10
106.763309
 20
1259.382395
 42
-0.022350
  0
VERTEX
  8
0
 10
108.161312
 20
1265.460313
 42
-0.009777
  0
VERTEX
  8
0
 10
111.576041
 20
1276.889599
 42
-0.000639
  0
VERTEX
  8
0
 10
122.144193
 20
1309.750000
 42
-0.009828
  0
VERTEX
  8
0
 10
123.411860
 20
1313.425825
 42
-0.076315
  0
VERTEX
  8
0
 10
124.286081
 20
1315.010659
 42
-0.152826
  0
VERTEX
  8
0
 10
125.339855
 20
1315.748843
 42
-0.077094
  0
VERTEX
  8
0
 10
126.959086
 20
1316.000000
 42
-0.078107
  0
VERTEX
  8
0
 10
129.551596
 20
1315.592526
 42
-0.178325
  0
VERTEX
  8
0
 10
131.087224
 20
1314.389021
 42
-0.159569
  0
VERTEX
  8
0
 10
131.575116
 20
1312.365985
 42
-0.059809
  0
VERTEX
  8
0
 10
130.990325
 20
1309.470684
 42
0.039258
  0
VERTEX
  8
0
 10
130.123330
 20
1305.932422
 42
0.042403
  0
VERTEX
  8
0
 10
129.850004
 20
1302.392954
 42
0.046551
  0
VERTEX
  8
0
 10
130.157598
 20
1299.349348
 42
0.125393
  0
VERTEX
  8
0
 10
131.083102
 20
1297.399868
 42
0.110092
  0
VERTEX
  8
0
 10
134.083040
 20
1295.077501
 42
0.021715
  0
VERTEX
  8
0
 10
140.400962
 20
1292.435707
 42
0.012074
  0
VERTEX
  8
0
 10
151.158935
 20
1288.769117
 42
0.001893
  0
VERTEX
  8
0
 10
172.557979
 20
1282.136836
 42
0.004784
  0
VERTEX
  8
0
 10
195.784381
 20
1275.276746
 42
0.015021
  0
VERTEX
  8
0
 10
211.551779
 20
1271.291200
 42
0.021451
  0
VERTEX
  8
0
 10
222.754526
 20
1269.314494
 42
0.071082
  0
VERTEX
  8
0
 10
230.222562
 20
1269.390446
 42
0.141206
  0
VERTEX
  8
0
 10
241.389186
 20
1274.547597
 42
0.096278
  0
VERTEX
  8
0
 10
250.078476
 20
1285.614607
 42
0.088064
  0
VERTEX
  8
0
 10
254.533519
 20
1300.120071
 42
0.092681
  0
VERTEX
  8
0
 10
253.601841
 20
1315.001739
 42
0.051380
  0
VERTEX
  8
0
 10
250.863893
 20
1322.501744
 42
0.077104
  0
VERTEX
  8
0
 10
246.898890
 20
1328.216069
 42
0.069167
  0
VERTEX
  8
0
 10
241.049832
 20
1332.870779
 42
0.033560
  0
VERTEX
  8
0
 10
232.500000
 20
1337.181256
 42
0.024156
  0
VERTEX
  8
0
 10
222.324646
 20
1340.913703
 42
0.001680
  0
VERTEX
  8
0
 10
193.190028
 20
1349.923224
 42
0.001183
  0
VERTEX
  8
0
 10
163.171991
 20
1359.017946
 42
0.039098
  0
VERTEX
  8
0
 10
155.801889
 20
1360.617073
 42
0.019955
  0
VERTEX
  8
0
 10
153.009290
 20
1360.884866
 42
0.088055
  0
VERTEX
  8
0
 10
151.374559
 20
1360.687817
 42
0.096330
  0
VERTEX
  8
0
 10
149.981431
 20
1359.948875
 42
0.026417
  0
VERTEX
  8
0
 10
148.125429
 20
1358.279275
 42
0.041061
  0
VERTEX
  8
0
 10
146.932462
 20
1356.872444
 42
0.028729
  0
VERTEX
  8
0
 10
145.820961
 20
1355.114458
 42
0.029091
  0
VERTEX
  8
0
 10
144.943439
 20
1353.289432
 42
0.051190
  0
VERTEX
  8
0
 10
144.468933
 20
1351.686092
 42
-0.026399
  0
VERTEX
  8
0
 10
144.113668
 20
1350.223151
 42
-0.026958
  0
VERTEX
  8
0
 10
143.608193
 20
1348.816250
 42
-0.027962
  0
VERTEX
  8
0
 10
143.037331
 20
1347.648618
 42
-0.092117
  0
VERTEX
  8
0
 10
142.491046
 20
1346.992569
 42
-0.165308
  0
VERTEX
  8
0
 10
140.932640
 20
1346.396942
 42
-0.062976
  0
VERTEX
  8
0
 10
138.585741
 20
1346.604875
 42
-0.063436
  0
VERTEX
  8
0
 10
136.397099
 20
1347.381190
 42
-0.186319
  0
VERTEX
  8
0
 10
135.343563
 20
1348.547071
 42
-0.158460
  0
VERTEX
  8
0
 10
135.292130
 20
1349.533358
 42
-0.002059
  0
VERTEX
  8
0
 10
136.940923
 20
1355.577217
 42
-0.005710
  0
VERTEX
  8
0
 10
138.971879
 20
1362.590860
 42
-0.003687
  0
VERTEX
  8
0
 10
141.476363
 20
1370.668393
 42
-0.000880
  0
VERTEX
  8
0
 10
147.561694
 20
1389.679362
 42
-0.026200
  0
VERTEX
  8
0
 10
149.358695
 20
1394.397061
 42
-0.146902
  0
VERTEX
  8
0
 10
150.873400
 20
1396.166297
 42
-0.205612
  0
VERTEX
  8
0
 10
152.900571
 20
1396.504812
 42
-0.028309
  0
VERTEX
  8
0
 10
153.986157
 20
1396.172909
 42
-0.023523
  0
VERTEX
  8
0
 10
155.098394
 20
1395.702202
 42
-0.024163
  0
VERTEX
  8
0
 10
156.077844
 20
1395.172576
 42
-0.057317
  0
SEQEND
  0
POLYLINE
  8
0
 66
1
 70
1
  0
VERTEX
  8
0
 10
1913.659770
 20
1355.000000
 42
-0.001518
  0
VERTEX
  8
0
 10
1916.849877
 20
1344.341374
 42
-0.002334
  0
VERTEX
  8
0
 10
1919.539715
 20
1335.095490
 42
-0.000759
  0
VERTEX
  8
0
 10
1921.817625
 20
1327.080985
 42
-0.067546
  0
VERTEX
  8
0
 10
1921.990755
 20
1325.856989
 42
-0.156055
  0
VERTEX
  8
0
 10
1921.613345
 20
1324.653933
 42
-0.119969
  0
VERTEX
  8
0
 10
1920.570832
 20
1323.742526
 42
-0.081985
  0
VERTEX
  8
0
 10
1918.848784
 20
1323.179495
 42
-0.038117
  0
VERTEX
  8
0
 10
1916.497668
 20
1323.000000
 42
-0.069358
  0
VERTEX
  8
0
 10
1915.332520
 20
1323.162406
 42
-0.128678
  0
VERTEX
  8
0
 10
1914.515673
 20
1323.644240
 42
-0.105038
  0
VERTEX
  8
0
 10
1913.936244
 20
1324.543077
 42
-0.036788
  0
VERTEX
  8
0
 10
1913.494739
 20
1326.023955
 42
0.073591
  0
VERTEX
  8
0
 10
1912.342294
 20
1329.056933
 42
0.051991
  0
VERTEX
  8
0
 10
1910.239380
 20
1332.040718
 42
0.054079
  0
VERTEX
  8
0
 10
1907.795935
 20
1334.293989
 42
0.161168
  0
VERTEX
  8
0
 10
1905.661106
 20
1334.995033
 42
0.156021
  0
VERTEX
  8
0
 10
1902.821743
 20
1334.079730
 42
0.038293
  0
VERTEX
  8
0
 10
1899.014825
 20
1330.886600
 42
0.017622
  0
VERTEX
  8
0
 10
1893.036657
 20
1324.610235
 42
0.002207
  0
VERTEX
  8
0
 10
1880.625622
 20
1310.500000
 42
0.000000
  0
VERTEX
  8
0
 10
1863.190034
 20
1290.500000
 42
0.000000
  0
VERTEX
  8
0
 10
1869.345017
 20
1288.734960
 42
0.002488
  0
VERTEX
  8
0
 10
1886.630199
 20
1283.871113
 42
0.003584
  0
VERTEX
  8
0
 10
1901.977092
 20
1279.753140
 42
0.001773
  0
VERTEX
  8
0
 10
1915.067739
 20
1276.390516
 42
0.062052
  0
VERTEX
  8
0
 10
1918.202311
 20
1276.000000
 42
0.063028
  0
VERTEX
  8
0
 10
1919.551660
 20
1276.170773
 42
0.045484
  0
VERTEX
  8
0
 10
1920.981975
 20
1276.681053
 42
0.043475
  0
VERTEX
  8
0
 10
1922.366636
 20
1277.474749
 42
0.044534
  0
VERTEX
  8
0
 10
1923.581187
 20
1278.490278
 42
0.037886
  0
VERTEX
  8
0
 10
1924.924550
 20
1280.054250
 42
0.098687
  0
VERTEX
  8
0
 10
1925.549749
 20
1281.391993
 42
0.076525
  0
VERTEX
  8
0
 10
1925.696956
 20
1283.066162
 42
0.016710
  0
VERTEX
  8
0
 10
1925.411563
 20
1285.955141
 42
-0.011797
  0
VERTEX
  8
0
 10
1925.082079
 20
1288.985783
 42
-0.096503
  0
VERTEX
  8
0
 10
1925.230988
 20
1290.362925
 42
-0.161926
  0
VERTEX
  8
0
 10
1925.869290
 20
1291.254782
 42
-0.050297
  0
VERTEX
  8
0
 10
1927.312061
 20
1292.096323
 42
-0.033291
  0
VERTEX
  8
0
 10
1928.392432
 20
1292.504173
 42
-0.032976
  0
VERTEX
  8
0
 10
1929.520792
 20
1292.766565
 42
-0.034841
  0
VERTEX
  8
0
 10
1930.535610
 20
1292.861112
 42
-0.097722
  0
VERTEX
  8
0
 10
1931.235691
 20
1292.739799
 42
-0.227684
  0
VERTEX
  8
0
 10
1932.472612
 20
1291.429641
 42
-0.000806
  0
VERTEX
  8
0
 10
1939.143995
 20
1270.408132
 42
-0.001890
  0
VERTEX
  8
0
 10
1945.397621
 20
1250.328153
 42
-0.079022
  0
VERTEX
  8
0
 10
1946.028255
 20
1245.866631
 42
-0.196447
  0
VERTEX
  8
0
 10
1945.573757
 20
1244.807184
 42
-0.080786
  0
VERTEX
  8
0
 10
1944.274708
 20
1243.886880
 42
-0.063776
  0
VERTEX
  8
0
 10
1942.387987
 20
1243.245329
 42
-0.047510
  0
VERTEX
  8
0
 10
1940.198973
 20
1243.013655
 42
-0.187245
  0
VERTEX
  8
0
 10
1939.600431
 20
1243.238748
 42
-0.043079
  0
VERTEX
  8
0
 10
1938.847627
 20
1244.039120
 42
-0.038770
  0
VERTEX
  8
0
 10
1938.084708
 20
1245.175668
 42
-0.029483
  0
VERTEX
  8
0
 10
1937.425619
 20
1246.523775
 42
0.069733
  0
VERTEX
  8
0
 10
1935.124670
 20
1250.406058
 42
0.041907
  0
VERTEX
  8
0
 10
1931.435871
 20
1254.302544
 42
0.040831
  0
VERTEX
  8
0
 10
1926.987521
 20
1257.665909
 42
0.051984
  0
VERTEX
  8
0
 10
1922.384736
 20
1259.957242
 42
0.017042
  0
VERTEX
  8
0
 10
1918.773264
 20
1261.169866
 42
0.001303
  0
VERTEX
  8
0
 10
1908.925785
 20
1264.079068
 42
0.001789
  0
VERTEX
  8
0
 10
1897.155148
 20
1267.477428
 42
0.001362
  0
VERTEX
  8
0
 10
1884.239548
 20
1271.118333
 42
0.000000
  0
VERTEX
  8
0
 10
1851.558123
 20
1280.235169
 42
0.000000
  0
VERTEX
  8
0
 10
1835.029061
 20
1275.489019
 42
0.004607
  0
VERTEX
  8
0
 10
1816.070856
 20
1269.855763
 42
0.061895
  0
VERTEX
  8
0
 10
1809.468335
 20
1266.893952
 42
0.185965
  0
VERTEX
  8
0
 10
1806.802563
 20
1263.443178
 42
0.105262
  0
VERTEX
  8
0
 10
1806.373064
 20
1258.104190
 42
-0.003918
  0
VERTEX
  8
0
 10
1807.158876
 20
1251.676085
 42
-0.067836
  0
VERTEX
  8
0
 10
1807.113206
 20
1249.567689
 42
-0.180763
  0
VERTEX
  8
0
 10
1806.410492
 20
1248.325396
 42
-0.061459
  0
VERTEX
  8
0
 10
1804.642029
 20
1247.177884
 42
-0.019612
  0
VERTEX
  8
0
 10
1803.058126
 20
1246.482676
 42
-0.091760
  0
VERTEX
  8
0
 10
1802.084666
 20
1246.294070
 42
-0.140590
  0
VERTEX
  8
0
 10
1801.325481
 20
1246.504982
 42
-0.071253
  0
VERTEX
  8
0
 10
1800.555685
 20
1247.143685
 42
-0.103443
  0
VERTEX
  8
0
 10
1799.875310
 20
1248.305471
 42
-0.001410
  0
VERTEX
  8
0
 10
1797.263843
 20
1256.164469
 42
-0.003919
  0
VERTEX
  8
0
 10
1794.326216
 20
1265.330351
 42
-0.002560
  0
VERTEX
  8
0
 10
1791.074364
 20
1275.948124
 42
-0.001353
  0
VERTEX
  8
0
 10
1786.017705
 20
1292.932342
 42
-0.016308
  0
VERTEX
  8
0
 10
1784.303465
 20
1299.534135
 42
-0.043085
  0
VERTEX
  8
0
 10
1783.822732
 20
1303.064906
 42
-0.252317
  0
VERTEX
  8
0
 10
1784.601838
 20
1304.698124
 42
-0.079142
  0
VERTEX
  8
0
 10
1787.167259
 20
1306.012321
 42
-0.186944
  0
VERTEX
  8
0
 10
1789.277494
 20
1305.897924
 42
-0.156228
  0
VERTEX
  8
0
 10
1791.016127
 20
1304.330272
 42
-0.051654
  0
VERTEX
  8
0
 10
1792.447197
 20
1301.158976
 42
0.020967
  0
VERTEX
  8
0
 10
1793.210426
 20
1299.147224
 42
0.018165
  0
VERTEX
  8
0
 10
1794.173644
 20
1297.105803
 42
0.018550
  0
VERTEX
  8
0
 10
1795.182665
 20
1295.319930
 42
0.049701
  0
VERTEX
  8
0
 10
1796.066519
 20
1294.158976
 42
0.134481
  0
VERTEX
  8
0
 10
1799.099723
 20
1292.285027
 42
0.098639
  0
VERTEX
  8
0
 10
1803.057826
 20
1291.930178
 42
0.037580
  0
VERTEX
  8
0
 10
1809.704919
 20
1293.155929
 42
0.004095
  0
VERTEX
  8
0
 10
1824.730704
 20
1297.244480
 42
0.000000
  0
VERTEX
  8
0
 10
1842.961408
 20
1302.365816
 42
0.000000
  0
VERTEX
  8
0
 10
1868.230704
 20
1331.679978
 42
0.002238
  0
VERTEX
  8
0
 10
1878.052851
 20
1343.178033
 42
0.003210
  0
VERTEX
  8
0
 10
1886.646032
 20
1353.462243
 42
0.001735
  0
VERTEX
  8
0
 10
1893.824624
 20
1362.228260
 42
0.049428
  0
VERTEX
  8
0
 10
1895.436640
 20
1364.667802
 42
0.042449
  0
VERTEX
  8
0
 10
1896.240673
 20
1366.567936
 42
0.023608
  0
VERTEX
  8
0
 10
1896.907708
 20
1368.994671
 42
0.022347
  0
VERTEX
  8
0
 10
1897.386476
 20
1371.681328
 42
0.022708
  0
VERTEX
  8
0
 10
1897.620326
 20
1374.385658
 42
-0.035566
  0
VERTEX
  8
0
 10
1898.090591
 20
1378.568666
 42
-0.105500
  0
VERTEX
  8
0
 10
1899.191183
 20
1381.221399
 42
-0.160511
  0
VERTEX
  8
0
 10
1900.960399
 20
1382.563550
 42
-0.120317
  0
VERTEX
  8
0
 10
1903.411758
 20
1382.787741
 42
-0.254487
  0
VERTEX
  8
0
 10
1904.731021
 20
1381.791736
 42
-0.018104
  0
VERTEX
  8
0
 10
1906.540413
 20
1377.383943
 42
-0.012839
  0
VERTEX
  8
0
 10
1909.090680
 20
1369.880832
 42
-0.002030
  0
SEQEND
  0
POLYLINE
  8
0
 66
1
 70
1
  0
VERTEX
  8
0
 10
1550.804076
 20
347.480294
 42
-0.030070
  0
VERTEX
  8
0
 10
1557.470977
 20
344.904629
 42
-0.013325
  0
VERTEX
  8
0
 10
1565.946547
 20
340.753424
 42
-0.006717
  0
VERTEX
  8
0
 10
1574.189509
 20
336.298049
 42
-0.190483
  0
VERTEX
  8
0
 10
1575.696585
 20
334.454751
 42
-0.162306
  0
VERTEX
  8
0
 10
1575.689505
 20
333.905212
 42
-0.038934
  0
VERTEX
  8
0
 10
1575.318820
 20
333.058183
 42
-0.035979
  0
VERTEX
  8
0
 10
1574.716939
 20
332.103006
 42
-0.028963
  0
VERTEX
  8
0
 10
1573.942142
 20
331.168272
 42
0.000000
  0
VERTEX
  8
0
 10
1571.854118
 20
328.927041
 42
0.000000
  0
VERTEX
  8
0
 10
1568.677059
 20
330.875072
 42
0.071608
  0
VERTEX
  8
0
 10
1560.722412
 20
334.304677
 42
0.052911
  0
VERTEX
  8
0
 10
1551.244920
 20
335.818282
 42
0.054226
  0
VERTEX
  8
0
 10
1541.979949
 20
335.301679
 42
0.091767
  0
VERTEX
  8
0
 10
1534.692735
 20
332.665818
 42
0.055422
  0
VERTEX
  8
0
 10
1530.958835
 20
329.880992
 42
0.060130
  0
VERTEX
  8
0
 10
1528.042434
 20
326.412382
 42
0.064054
  0
VERTEX
  8
0
 10
1526.180099
 20
322.567648
 42
0.080962
  0
VERTEX
  8
0
 10
1525.545455
 20
318.673961
 42
0.037296
  0
VERTEX
  8
0
 10
1525.703724
 20
316.555092
 42
0.082319
  0
VERTEX
  8
0
 10
1526.202399
 20
315.016261
 42
0.075161
  0
VERTEX
  8
0
 10
1527.203792
 20
313.636138
 42
0.027144
  0
VERTEX
  8
0
 10
1529.000145
 20
311.999882
 42
0.051448
  0
VERTEX
  8
0
 10
1532.696252
 20
309.569253
 42
0.057457
  0
VERTEX
  8
0
 10
1536.678944
 20
308.051399
 42
0.044722
  0
VERTEX
  8
0
 10
1541.672748
 20
307.245777
 42
0.017642
  0
VERTEX
  8
0
 10
1548.636119
 20
307.000000
 42
0.050137
  0
VERTEX
  8
0
 10
1560.803164
 20
308.223103
 42
0.038254
  0
VERTEX
  8
0
 10
1573.686505
 20
311.883846
 42
0.033601
  0
VERTEX
  8
0
 10
1587.444527
 20
318.035976
 42
0.022700
  0
VERTEX
  8
0
 10
1602.252962
 20
326.773570
 42
-0.025069
  0
VERTEX
  8
0
 10
1624.303603
 20
339.643991
 42
-0.063057
  0
VERTEX
  8
0
 10
1641.734012
 20
346.051155
 42
-0.099608
  0
VERTEX
  8
0
 10
1654.959877
 20
346.418214
 42
-0.176931
  0
VERTEX
  8
0
 10
1664.296691
 20
341.059249
 42
-0.077397
  0
VERTEX
  8
0
 10
1666.354961
 20
337.664299
 42
-0.097264
  0
VERTEX
  8
0
 10
1667.072140
 20
334.063782
 42
-0.102493
  0
VERTEX
  8
0
 10
1666.365179
 20
330.604250
 42
-0.095173
  0
VERTEX
  8
0
 10
1664.332960
 20
327.605688
 42
-0.027805
  0
VERTEX
  8
0
 10
1662.508872
 20
325.973930
 42
-0.002215
  0
VERTEX
  8
0
 10
1657.431244
 20
321.953017
 42
-0.002995
  0
VERTEX
  8
0
 10
1651.320234
 20
317.216539
 42
-0.002291
  0
VERTEX
  8
0
 10
1644.582960
 20
312.107758
 42
-0.009403
  0
VERTEX
  8
0
 10
1612.156768
 20
288.693340
 42
-0.008969
  0
VERTEX
  8
0
 10
1578.363750
 20
266.133069
 42
-0.004355
  0
VERTEX
  8
0
 10
1547.097665
 20
246.443484
 42
-0.139212
  0
VERTEX
  8
0
 10
1538.491642
 20
244.000000
 42
0.078700
  0
VERTEX
  8
0
 10
1536.702887
 20
243.716695
 42
0.058472
  0
VERTEX
  8
0
 10
1534.882726
 20
242.879805
 42
0.039856
  0
VERTEX
  8
0
 10
1532.744981
 20
241.329492
 42
0.013451
  0
VERTEX
  8
0
 10
1529.885789
 20
238.750000
 42
-0.034645
  0
VERTEX
  8
0
 10
1526.123971
 20
235.634766
 42
-0.019200
  0
VERTEX
  8
0
 10
1521.148629
 20
232.346594
 42
-0.013133
  0
VERTEX
  8
0
 10
1514.140869
 20
228.340400
 42
-0.004275
  0
VERTEX
  8
0
 10
1503.590728
 20
222.787114
 42
-0.001234
  0
VERTEX
  8
0
 10
1495.499835
 20
218.641491
 42
-0.001837
  0
VERTEX
  8
0
 10
1488.397401
 20
215.057241
 42
-0.000782
  0
VERTEX
  8
0
 10
1482.306323
 20
212.023304
 42
-0.038325
  0
VERTEX
  8
0
 10
1481.051290
 20
211.516279
 42
-0.152474
  0
VERTEX
  8
0
 10
1480.074455
 20
211.511674
 42
-0.095315
  0
VERTEX
  8
0
 10
1479.055781
 20
212.052357
 42
-0.058018
  0
VERTEX
  8
0
 10
1477.905956
 20
213.221957
 42
-0.019093
  0
VERTEX
  8
0
 10
1476.496506
 20
215.184644
 42
0.018384
  0
VERTEX
  8
0
 10
1474.814338
 20
217.534117
 42
0.003427
  0
VERTEX
  8
0
 10
1471.541516
 20
221.707958
 42
0.003668
  0
VERTEX
  8
0
 10
1467.644539
 20
226.535128
 42
0.003343
  0
VERTEX
  8
0
 10
1463.555937
 20
231.456845
 42
-0.016991
  0
VERTEX
  8
0
 10
1449.663015
 20
249.141102
 42
-0.049550
  0
VERTEX
  8
0
 10
1441.784994
 20
262.497572
 42
-0.066690
  0
VERTEX
  8
0
 10
1437.998969
 20
274.706242
 42
-0.056155
  0
VERTEX
  8
0
 10
1437.249806
 20
288.232383
 42
-0.022408
  0
VERTEX
  8
0
 10
1437.859373
 20
294.207165
 42
-0.054670
  0
VERTEX
  8
0
 10
1438.977012
 20
298.482206
 42
-0.086874
  0
VERTEX
  8
0
 10
1440.537951
 20
301.096594
 42
-0.218174
  0
VERTEX
  8
0
 10
1442.509781
 20
302.000000
 42
-0.245661
  0
VERTEX
  8
0
 10
1443.341529
 20
301.565097
 42
-0.012098
  0
VERTEX
  8
0
 10
1445.101685
 20
298.896245
 42
-0.016250
  0
VERTEX
  8
0
 10
1447.167918
 20
295.340019
 42
-0.008669
  0
VERTEX
  8
0
 10
1449.501172
 20
290.819833
 42
0.016986
  0
VERTEX
  8
0
 10
1453.881459
 20
282.669451
 42
0.018294
  0
VERTEX
  8
0
 10
1458.704496
 20
275.039426
 42
0.015397
  0
VERTEX
  8
0
 10
1464.754189
 20
266.760818
 42
0.007387
  0
VERTEX
  8
0
 10
1472.994872
 20
256.500000
 42
-0.006042
  0
VERTEX
  8
0
 10
1475.804499
 20
253.020828
 42
-0.004728
  0
VERTEX
  8
0
 10
1478.771964
 20
249.179797
 42
-0.004782
  0
VERTEX
  8
0
 10
1481.466147
 20
245.551917
 42
-0.011652
  0
VERTEX
  8
0
 10
1483.362935
 20
242.814204
 42
0.000000
  0
VERTEX
  8
0
 10
1487.109243
 20
237.128407
 42
0.000000
  0
VERTEX
  8
0
 10
1490.804622
 20
238.824825
 42
0.008836
  0
VERTEX
  8
0
 10
1505.341893
 20
245.811987
 42
0.026767
  0
VERTEX
  8
0
 10
1514.870244
 20
251.257831
 42
0.036036
  0
VERTEX
  8
0
 10
1520.707814
 20
255.647807
 42
0.267150
  0
VERTEX
  8
0
 10
1521.797868
 20
258.811071
 42
0.188276
  0
VERTEX
  8
0
 10
1520.574326
 20
260.752079
 42
0.056134
  0
VERTEX
  8
0
 10
1517.486571
 20
262.536465
 42
0.042546
  0
VERTEX
  8
0
 10
1512.929171
 20
264.081280
 42
0.021960
  0
VERTEX
  8
0
 10
1507.022585
 20
265.265460
 42
-0.019252
  0
VERTEX
  8
0
 10
1501.201571
 20
266.399749
 42
-0.094342
  0
VERTEX
  8
0
 10
1498.153871
 20
267.757395
 42
-0.246615
  0
VERTEX
  8
0
 10
1497.268781
 20
269.457446
 42
-0.174014
  0
VERTEX
  8
0
 10
1498.017920
 20
271.521593
 42
-0.238602
  0
VERTEX
  8
0
 10
1501.571330
 20
273.064435
 42
-0.035365
  0
VERTEX
  8
0
 10
1509.564221
 20
272.023361
 42
-0.038552
  0
VERTEX
  8
0
 10
1518.212839
 20
269.561793
 42
-0.060366
  0
VERTEX
  8
0
 10
1525.083644
 20
266.028859
 42
0.027279
  0
VERTEX
  8
0
 10
1527.007128
 20
264.873301
 42
0.025515
  0
VERTEX
  8
0
 10
1529.087611
 20
263.905474
 42
0.026572
  0
VERTEX
  8
0
 10
1531.034728
 20
263.235783
 42
0.069010
  0
VERTEX
  8
0
 10
1532.500000
 20
263.028794
 42
0.141769
  0
VERTEX
  8
0
 10
1539.310025
 20
264.980617
 42
0.003022
  0
VERTEX
  8
0
 10
1569.012493
 20
283.886499
 42
0.007558
  0
VERTEX
  8
0
 10
1600.084892
 20
304.600935
 42
0.009138
  0
VERTEX
  8
0
 10
1628.583785
 20
325.006078
 42
0.002841
  0
VERTEX
  8
0
 10
1635.309321
 20
330.069566
 42
0.004767
  0
VERTEX
  8
0
 10
1640.893782
 20
334.408657
 42
0.000923
  0
VERTEX
  8
0
 10
1645.716197
 20
338.244457
 42
0.447296
  0
VERTEX
  8
0
 10
1645.735915
 20
338.597418
 42
0.312613
  0
VERTEX
  8
0
 10
1643.677793
 20
338.970706
 42
0.007222
  0
VERTEX
  8
0
 10
1634.249004
 20
334.520327
 42
0.015147
  0
VERTEX
  8
0
 10
1624.088348
 20
329.156322
 42
0.016195
  0
VERTEX
  8
0
 10
1614.500000
 20
323.298594
 42
-0.023023
  0
VERTEX
  8
0
 10
1595.131663
 20
311.826163
 42
-0.038264
  0
VERTEX
  8
0
 10
1577.755802
 20
304.227914
 42
-0.044342
  0
VERTEX
  8
0
 10
1561.475780
 20
300.120916
 42
-0.050777
  0
VERTEX
  8
0
 10
1545.459354
 20
299.206630
 42
-0.009729
  0
VERTEX
  8
0
 10
1539.463167
 20
299.590322
 42
-0.035110
  0
VERTEX
  8
0
 10
1535.682166
 20
300.175502
 42
-0.039771
  0
VERTEX
  8
0
 10
1532.263215
 20
301.245262
 42
-0.015157
  0
VERTEX
  8
0
 10
1527.687516
 20
303.250634
 42
-0.059207
  0
VERTEX
  8
0
 10
1516.145650
 20
310.513202
 42
-0.102734
  0
VERTEX
  8
0
 10
1508.998850
 20
319.241042
 42
-0.129895
  0
VERTEX
  8
0
 10
1506.876973
 20
328.596358
 42
-0.130337
  0
VERTEX
  8
0
 10
1509.658274
 20
337.765228
 42
-0.096961
  0
VERTEX
  8
0
 10
1516.661444
 20
345.327221
 42
-0.099972
  0
VERTEX
  8
0
 10
1525.926849
 20
349.589409
 42
-0.084861
  0
VERTEX
  8
0
 10
1537.387191
 20
350.307185
 42
-0.050489
  0
SEQEND
  0
POLYLINE
  8
0
 66
1
 70
1
  0
VERTEX
  8
0
 10
399.511363
 20
341.714565
 42
-0.022298
  0
VERTEX
  8
0
 10
400.914482
 20
340.779490
 42
-0.000652
  0
VERTEX
  8
0
 10
406.656676
 20
336.559894
 42
-0.001308
  0
VERTEX
  8
0
 10
413.398212
 20
331.565129
 42
-0.000901
  0
VERTEX
  8
0
 10
421.011363
 20
325.872309
 42
0.007390
  0
VERTEX
  8
0
 10
438.618729
 20
313.059062
 42
0.003055
  0
VERTEX
  8
0
 10
462.801843
 20
296.221763
 42
0.001825
  0
VERTEX
  8
0
 10
486.866066
 20
279.813647
 42
0.030771
  0
VERTEX
  8
0
 10
495.150763
 20
274.923087
 42
0.027778
  0
VERTEX
  8
0
 10
496.816666
 20
274.186715
 42
0.021356
  0
VERTEX
  8
0
 10
498.705968
 20
273.564907
 42
0.021787
  0
VERTEX
  8
0
 10
500.527701
 20
273.135130
 42
0.047063
  0
VERTEX
  8
0
 10
501.960162
 20
273.000000
 42
0.030799
  0
VERTEX
  8
0
 10
503.534290
 20
273.097055
 42
0.125255
  0
VERTEX
  8
0
 10
504.420948
 20
273.443375
 42
0.163771
  0
VERTEX
  8
0
 10
504.903167
 20
274.112371
 42
0.063811
  0
VERTEX
  8
0
 10
505.101317
 20
275.250000
 42
0.024611
  0
VERTEX
  8
0
 10
505.083901
 20
279.383694
 42
0.034225
  0
VERTEX
  8
0
 10
504.634096
 20
283.056909
 42
0.032674
  0
VERTEX
  8
0
 10
503.666233
 20
286.760763
 42
0.019824
  0
VERTEX
  8
0
 10
502.067837
 20
291.000000
 42
-0.011532
  0
VERTEX
  8
0
 10
501.045571
 20
293.580784
 42
-0.015644
  0
VERTEX
  8
0
 10
500.250462
 20
295.957812
 42
-0.012544
  0
VERTEX
  8
0
 10
499.707833
 20
297.946111
 42
-0.143106
  0
VERTEX
  8
0
 10
499.742378
 20
298.750000
 42
-0.160960
  0
VERTEX
  8
0
 10
500.104335
 20
299.229694
 42
-0.058921
  0
VERTEX
  8
0
 10
500.864686
 20
299.632812
 42
-0.050748
  0
VERTEX
  8
0
 10
501.864238
 20
299.907704
 42
-0.041767
  0
VERTEX
  8
0
 10
502.967190
 20
300.000000
 42
-0.071847
  0
VERTEX
  8
0
 10
504.551343
 20
299.771184
 42
-0.134259
  0
VERTEX
  8
0
 10
505.645348
 20
299.094683
 42
-0.078990
  0
VERTEX
  8
0
 10
506.593349
 20
297.686158
 42
-0.013936
  0
VERTEX
  8
0
 10
507.858633
 20
294.750000
 42
-0.046618
  0
VERTEX
  8
0
 10
511.160865
 20
283.513876
 42
-0.057127
  0
VERTEX
  8
0
 10
512.019002
 20
272.611336
 42
-0.065550
  0
VERTEX
  8
0
 10
510.438663
 20
263.207276
 42
-0.115188
  0
VERTEX
  8
0
 10
506.494427
 20
256.425414
 42
-0.082529
  0
VERTEX
  8
0
 10
503.312108
 20
254.006314
 42
-0.105369
  0
VERTEX
  8
0
 10
499.775415
 20
253.007177
 42
-0.086055
  0
VERTEX
  8
0
 10
495.595280
 20
253.453284
 42
-0.039468
  0
VERTEX
  8
0
 10
490.442396
 20
255.374626
 42
-0.034493
  0
VERTEX
  8
0
 10
478.880280
 20
261.762581
 42
-0.004578
  0
VERTEX
  8
0
 10
455.547440
 20
277.145322
 42
-0.005635
  0
VERTEX
  8
0
 10
429.933530
 20
294.792821
 42
-0.006972
  0
VERTEX
  8
0
 10
406.500000
 20
311.824995
 42
0.007121
  0
VERTEX
  8
0
 10
396.480059
 20
319.103242
 42
0.901743
  0
VERTEX
  8
0
 10
396.053734
 20
318.614418
 42
0.032461
  0
VERTEX
  8
0
 10
401.342265
 20
313.632483
 42
0.002705
  0
VERTEX
  8
0
 10
415.932737
 20
301.706605
 42
-0.008742
  0
VERTEX
  8
0
 10
431.299483
 20
288.833667
 42
-0.023945
  0
VERTEX
  8
0
 10
441.535006
 20
279.052910
 42
-0.032721
  0
VERTEX
  8
0
 10
448.760632
 20
270.383508
 42
-0.038700
  0
VERTEX
  8
0
 10
454.355468
 20
261.299660
 42
-0.072864
  0
VERTEX
  8
0
 10
455.521682
 20
257.886049
 42
-0.043266
  0
VERTEX
  8
0
 10
455.939946
 20
253.598992
 42
-0.043447
  0
VERTEX
  8
0
 10
455.615707
 20
249.344277
 42
-0.078750
  0
VERTEX
  8
0
 10
454.519980
 20
246.038636
 42
-0.079539
  0
VERTEX
  8
0
 10
451.605019
 20
242.090613
 42
-0.110970
  0
VERTEX
  8
0
 10
447.886744
 20
239.785140
 42
-0.103619
  0
VERTEX
  8
0
 10
443.340967
 20
239.202454
 42
-0.062490
  0
VERTEX
  8
0
 10
438.000000
 20
240.306442
 42
-0.029644
  0
VERTEX
  8
0
 10
436.276205
 20
241.010829
 42
-0.087711
  0
VERTEX
  8
0
 10
435.241035
 20
241.753236
 42
-0.116746
  0
VERTEX
  8
0
 10
434.689743
 20
242.670402
 42
-0.077348
  0
VERTEX
  8
0
 10
434.500000
 20
243.889624
 42
-0.080673
  0
VERTEX
  8
0
 10
434.703911
 20
245.145210
 42
-0.131191
  0
VERTEX
  8
0
 10
435.294876
 20
246.041557
 42
-0.087683
  0
VERTEX
  8
0
 10
436.446564
 20
246.750991
 42
-0.022522
  0
VERTEX
  8
0
 10
438.520952
 20
247.466493
 42
0.030395
  0
VERTEX
  8
0
 10
442.717983
 20
248.988447
 42
0.066077
  0
VERTEX
  8
0
 10
445.651018
 20
250.749041
 42
0.092673
  0
VERTEX
  8
0
 10
447.388536
 20
252.756665
 42
0.132920
  0
VERTEX
  8
0
 10
448.000000
 20
255.016143
 42
0.167515
  0
VERTEX
  8
0
 10
446.838588
 20
258.385459
 42
0.035980
  0
VERTEX
  8
0
 10
442.630593
 20
263.032808
 42
0.023396
  0
VERTEX
  8
0
 10
435.366119
 20
269.356327
 42
0.006120
  0
VERTEX
  8
0
 10
423.127970
 20
278.800316
 42
-0.015589
  0
VERTEX
  8
0
 10
408.149161
 20
290.818540
 42
-0.025569
  0
VERTEX
  8
0
 10
396.348584
 20
302.000166
 42
-0.030540
  0
VERTEX
  8
0
 10
387.683404
 20
312.284978
 42
-0.060899
  0
VERTEX
  8
0
 10
382.426958
 20
321.520570
 42
-0.058179
  0
VERTEX
  8
0
 10
381.326043
 20
325.355579
 42
-0.050625
  0
VERTEX
  8
0
 10
381.066292
 20
329.528786
 42
-0.052258
  0
VERTEX
  8
0
 10
381.642564
 20
333.519219
 42
-0.075057
  0
VERTEX
  8
0
 10
383.023433
 20
336.806555
 42
-0.103180
  0
VERTEX
  8
0
 10
386.170178
 20
340.163148
 42
-0.080851
  0
VERTEX
  8
0
 10
390.673757
 20
342.342357
 42
-0.083651
  0
VERTEX
  8
0
 10
395.482304
 20
342.933916
 42
-0.125335
  0
SEQEND
  0
POLYLINE
  8
0
 66
1
 70
1
  0
VERTEX
  8
0
 10
508.531069
 20
322.980798
 42
-0.049378
  0
VERTEX
  8
0
 10
509.976728
 20
321.876658
 42
-0.035972
  0
VERTEX
  8
0
 10
511.353153
 20
320.393096
 42
-0.034998
  0
VERTEX
  8
0
 10
512.544602
 20
318.674061
 42
-0.038894
  0
VERTEX
  8
0
 10
513.437916
 20
316.863560
 42
0.016685
  0
VERTEX
  8
0
 10
514.478871
 20
314.494345
 42
0.114665
  0
VERTEX
  8
0
 10
515.269325
 20
313.508168
 42
0.169634
  0
VERTEX
  8
0
 10
516.266073
 20
313.165957
 42
0.048048
  0
VERTEX
  8
0
 10
517.922018
 20
313.334404
 42
-0.130178
  0
VERTEX
  8
0
 10
524.128440
 20
312.952192
 42
-0.110758
  0
VERTEX
  8
0
 10
529.768996
 20
309.563224
 42
-0.115299
  0
VERTEX
  8
0
 10
533.265505
 20
304.221427
 42
-0.150085
  0
VERTEX
  8
0
 10
533.567964
 20
298.414769
 42
-0.167663
  0
VERTEX
  8
0
 10
530.290972
 20
293.392658
 42
-0.145213
  0
VERTEX
  8
0
 10
524.405489
 20
291.096273
 42
-0.128174
  0
VERTEX
  8
0
 10
517.626530
 20
292.269413
 42
-0.120062
  0
VERTEX
  8
0
 10
512.088296
 20
296.614879
 42
-0.034076
  0
VERTEX
  8
0
 10
511.289017
 20
297.787226
 42
-0.029548
  0
VERTEX
  8
0
 10
510.613437
 20
299.113298
 42
-0.030675
  0
VERTEX
  8
0
 10
510.145888
 20
300.391067
 42
-0.072489
  0
VERTEX
  8
0
 10
510.000000
 20
301.392065
 42
0.082220
  0
VERTEX
  8
0
 10
509.811458
 20
302.530885
 42
0.221716
  0
VERTEX
  8
0
 10
509.257555
 20
303.108422
 42
0.101250
  0
VERTEX
  8
0
 10
508.109491
 20
303.303250
 42
0.011414
  0
VERTEX
  8
0
 10
505.458224
 20
303.153190
 42
-0.074780
  0
VERTEX
  8
0
 10
500.030920
 20
303.533262
 42
-0.099089
  0
VERTEX
  8
0
 10
495.513544
 20
305.532905
 42
-0.103145
  0
VERTEX
  8
0
 10
492.239360
 20
309.040662
 42
-0.087223
  0
VERTEX
  8
0
 10
490.394531
 20
313.777344
 42
-0.094217
  0
VERTEX
  8
0
 10
490.369141
 20
316.445322
 42
-0.056873
  0
VERTEX
  8
0
 10
491.282205
 20
319.483012
 42
-0.057279
  0
VERTEX
  8
0
 10
492.840848
 20
322.204953
 42
-0.102584
  0
VERTEX
  8
0
 10
494.749978
 20
323.919889
 42
-0.104393
  0
VERTEX
  8
0
 10
497.521711
 20
324.836502
 42
-0.044876
  0
VERTEX
  8
0
 10
501.435476
 20
324.921262
 42
-0.044490
  0
VERTEX
  8
0
 10
505.436900
 20
324.287995
 42
-0.077076
  0
SEQEND
  0
POLYLINE
  8
0
 66
1
 70
1
  0
VERTEX
  8
0
 10
638.802200
 20
289.289572
 42
-0.103326
  0
VERTEX
  8
0
 10
646.769339
 20
283.245656
 42
-0.069292
  0
VERTEX
  8
0
 10
653.032376
 20
273.634453
 42
-0.056939
  0
VERTEX
  8
0
 10
657.373716
 20
260.767479
 42
-0.035737
  0
VERTEX
  8
0
 10
659.595375
 20
245.026072
 42
0.000000
  0
VERTEX
  8
0
 10
660.285909
 20
235.000000
 42
0.000000
  0
VERTEX
  8
0
 10
656.846504
 20
235.000000
 42
0.000000
  0
VERTEX
  8
0
 10
653.407099
 20
235.000000
 42
0.000000
  0
VERTEX
  8
0
 10
652.216734
 20
241.941675
 42
0.056063
  0
VERTEX
  8
0
 10
648.840711
 20
253.601393
 42
0.085724
  0
VERTEX
  8
0
 10
643.218933
 20
262.471851
 42
0.100557
  0
VERTEX
  8
0
 10
635.710920
 20
267.997386
 42
0.107741
  0
VERTEX
  8
0
 10
626.826725
 20
269.978038
 42
0.027432
  0
VERTEX
  8
0
 10
624.389184
 20
269.855692
 42
0.053763
  0
VERTEX
  8
0
 10
622.491919
 20
269.446498
 42
0.057854
  0
VERTEX
  8
0
 10
620.816852
 20
268.667254
 42
0.037143
  0
VERTEX
  8
0
 10
619.076725
 20
267.411106
 42
0.034965
  0
VERTEX
  8
0
 10
617.364887
 20
265.753158
 42
0.094802
  0
VERTEX
  8
0
 10
616.496272
 20
264.312107
 42
0.073253
  0
VERTEX
  8
0
 10
616.102639
 20
262.439290
 42
0.015232
  0
VERTEX
  8
0
 10
616.000000
 20
259.070829
 42
0.092763
  0
VERTEX
  8
0
 10
617.591088
 20
250.568579
 42
0.058903
  0
VERTEX
  8
0
 10
622.325554
 20
241.642231
 42
0.049378
  0
VERTEX
  8
0
 10
630.008722
 20
232.594335
 42
0.032321
  0
VERTEX
  8
0
 10
640.451775
 20
223.735738
 42
0.012877
  0
VERTEX
  8
0
 10
646.635714
 20
219.384879
 42
0.021317
  0
VERTEX
  8
0
 10
652.093032
 20
216.078345
 42
0.016539
  0
VERTEX
  8
0
 10
658.701010
 20
212.729727
 42
0.004800
  0
VERTEX
  8
0
 10
669.102664
 20
208.005056
 42
-0.026415
  0
VERTEX
  8
0
 10
687.416849
 20
198.711813
 42
-0.049914
  0
VERTEX
  8
0
 10
700.861318
 20
189.070189
 42
-0.066388
  0
VERTEX
  8
0
 10
709.229826
 20
179.457814
 42
-0.146982
  0
VERTEX
  8
0
 10
712.000000
 20
170.237914
 42
-0.082014
  0
VERTEX
  8
0
 10
711.237197
 20
165.618760
 42
-0.089292
  0
VERTEX
  8
0
 10
709.035278
 20
161.639731
 42
-0.098096
  0
VERTEX
  8
0
 10
705.789660
 20
158.951805
 42
-0.124669
  0
VERTEX
  8
0
 10
702.031679
 20
158.000000
 42
-0.095089
  0
VERTEX
  8
0
 10
687.007121
 20
160.883409
 42
-0.003462
  0
VERTEX
  8
0
 10
632.848994
 20
182.901374
 42
-0.003668
  0
VERTEX
  8
0
 10
579.258360
 20
205.584348
 42
-0.087850
  0
VERTEX
  8
0
 10
565.685887
 20
214.534603
 42
0.000000
  0
VERTEX
  8
0
 10
562.871773
 20
217.199836
 42
0.000000
  0
VERTEX
  8
0
 10
556.970960
 20
213.060652
 42
-0.036817
  0
VERTEX
  8
0
 10
547.705595
 20
207.530573
 42
-0.057956
  0
VERTEX
  8
0
 10
539.007731
 20
204.368214
 42
-0.068939
  0
VERTEX
  8
0
 10
531.036877
 20
203.606469
 42
-0.090722
  0
VERTEX
  8
0
 10
523.927273
 20
205.221216
 42
-0.150725
  0
VERTEX
  8
0
 10
512.404907
 20
214.995131
 42
-0.112726
  0
VERTEX
  8
0
 10
506.762650
 20
230.764105
 42
-0.116773
  0
VERTEX
  8
0
 10
508.608743
 20
246.976235
 42
-0.169431
  0
VERTEX
  8
0
 10
517.603288
 20
258.063836
 42
-0.108998
  0
VERTEX
  8
0
 10
522.614544
 20
259.816430
 42
-0.116567
  0
VERTEX
  8
0
 10
527.767872
 20
259.232713
 42
-0.135956
  0
VERTEX
  8
0
 10
531.567459
 20
256.547991
 42
-0.173050
  0
VERTEX
  8
0
 10
533.000000
 20
252.532845
 42
-0.089987
  0
VERTEX
  8
0
 10
532.742587
 20
251.114141
 42
-0.115707
  0
VERTEX
  8
0
 10
532.007934
 20
250.015418
 42
-0.068016
  0
VERTEX
  8
0
 10
530.540138
 20
248.978111
 42
-0.014909
  0
VERTEX
  8
0
 10
527.750000
 20
247.631774
 42
0.026494
  0
VERTEX
  8
0
 10
523.849320
 20
245.636906
 42
0.060946
  0
VERTEX
  8
0
 10
521.224253
 20
243.651832
 42
0.065892
  0
VERTEX
  8
0
 10
519.277719
 20
241.194899
 42
0.035673
  0
VERTEX
  8
0
 10
517.538138
 20
237.745520
 42
0.076243
  0
VERTEX
  8
0
 10
516.039461
 20
231.715169
 42
0.106443
  0
VERTEX
  8
0
 10
516.706448
 20
226.215665
 42
0.138214
  0
VERTEX
  8
0
 10
519.336483
 20
222.432293
 42
0.174673
  0
VERTEX
  8
0
 10
523.322580
 20
221.009769
 42
0.089517
  0
VERTEX
  8
0
 10
527.766457
 20
221.825916
 42
0.040289
  0
VERTEX
  8
0
 10
533.149739
 20
224.365034
 42
0.030483
  0
VERTEX
  8
0
 10
539.630592
 20
228.631568
 42
0.013965
  0
VERTEX
  8
0
 10
547.560582
 20
234.928128
 42
-0.009542
  0
VERTEX
  8
0
 10
556.465170
 20
242.127848
 42
-0.040993
  0
VERTEX
  8
0
 10
562.168420
 20
245.855502
 42
-0.061897
  0
VERTEX
  8
0
 10
567.165642
 20
247.812884
 42
-0.044535
  0
VERTEX
  8
0
 10
573.086528
 20
248.772506
 42
-0.026726
  0
VERTEX
  8
0
 10
578.333311
 20
248.868143
 42
-0.099815
  0
VERTEX
  8
0
 10
581.527077
 20
248.106228
 42
-0.149760
  0
VERTEX
  8
0
 10
583.463525
 20
246.371637
 42
-0.089632
  0
VERTEX
  8
0
 10
584.573402
 20
243.460426
 42
-0.032686
  0
VERTEX
  8
0
 10
584.811558
 20
241.486954
 42
-0.095168
  0
VERTEX
  8
0
 10
584.627549
 20
240.132353
 42
-0.093775
  0
VERTEX
  8
0
 10
583.952701
 20
238.930910
 42
-0.031161
  0
VERTEX
  8
0
 10
582.553842
 20
237.462319
 42
0.096251
  0
VERTEX
  8
0
 10
580.441364
 20
234.573965
 42
0.154242
  0
VERTEX
  8
0
 10
580.038279
 20
231.572380
 42
0.143348
  0
VERTEX
  8
0
 10
581.438871
 20
228.726443
 42
0.079162
  0
VERTEX
  8
0
 10
584.500000
 20
226.297720
 42
0.027897
  0
VERTEX
  8
0
 10
604.280937
 20
216.572685
 42
0.003588
  0
VERTEX
  8
0
 10
647.915630
 20
198.433136
 42
0.000649
  0
VERTEX
  8
0
 10
696.494762
 20
178.719171
 42
0.301030
  0
VERTEX
  8
0
 10
699.705301
 20
179.371967
 42
0.471562
  0
VERTEX
  8
0
 10
699.599854
 20
180.468371
 42
0.005322
  0
VERTEX
  8
0
 10
692.591939
 20
185.089780
 42
0.013506
  0
VERTEX
  8
0
 10
685.144428
 20
189.608276
 42
0.020592
  0
VERTEX
  8
0
 10
678.428376
 20
193.080450
 42
0.000068
  0
VERTEX
  8
0
 10
674.409936
 20
194.951854
 42
0.000042
  0
VERTEX
  8
0
 10
669.695111
 20
197.146296
 42
0.000043
  0
VERTEX
  8
0
 10
665.043319
 20
199.310437
 42
0.000077
  0
VERTEX
  8
0
 10
661.235833
 20
201.080674
 42
-0.040282
  0
VERTEX
  8
0
 10
641.413967
 20
212.313627
 42
-0.050789
  0
VERTEX
  8
0
 10
625.262212
 20
225.851436
 42
-0.057240
  0
VERTEX
  8
0
 10
613.800806
 20
240.699863
 42
-0.087410
  0
VERTEX
  8
0
 10
607.951078
 20
255.843137
 42
-0.051843
  0
VERTEX
  8
0
 10
607.134066
 20
264.829840
 42
-0.049582
  0
VERTEX
  8
0
 10
608.157956
 20
273.932498
 42
-0.053410
  0
VERTEX
  8
0
 10
610.761012
 20
281.845375
 42
-0.103244
  0
VERTEX
  8
0
 10
614.671668
 20
287.205667
 42
-0.095136
  0
VERTEX
  8
0
 10
619.539089
 20
290.156836
 42
-0.067402
  0
VERTEX
  8
0
 10
625.788283
 20
291.559175
 42
-0.064078
  0
VERTEX
  8
0
 10
632.519677
 20
291.277407
 42
-0.068419
  0
SEQEND
  0
POLYLINE
  8
0
 66
1
 70
1
  0
VERTEX
  8
0
 10
1436.075139
 20
258.718197
 42
-0.095096
  0
VERTEX
  8
0
 10
1439.328434
 20
255.030325
 42
-0.121173
  0
VERTEX
  8
0
 10
1440.630147
 20
250.701083
 42
-0.119375
  0
VERTEX
  8
0
 10
1439.782229
 20
246.212768
 42
-0.090510
  0
VERTEX
  8
0
 10
1436.923077
 20
242.076923
 42
-0.069911
  0
VERTEX
  8
0
 10
1433.663780
 20
239.620704
 42
-0.082689
  0
VERTEX
  8
0
 10
1430.031371
 20
238.330854
 42
-0.080518
  0
VERTEX
  8
0
 10
1426.098534
 20
238.269830
 42
-0.062236
  0
VERTEX
  8
0
 10
1421.960383
 20
239.412804
 42
0.150198
  0
VERTEX
  8
0
 10
1421.178727
 20
239.487781
 42
0.148464
  0
VERTEX
  8
0
 10
1420.485712
 20
239.111600
 42
0.083630
  0
VERTEX
  8
0
 10
1419.836835
 20
238.186821
 42
0.024502
  0
VERTEX
  8
0
 10
1419.165007
 20
236.579772
 42
-0.090532
  0
VERTEX
  8
0
 10
1417.395836
 20
233.543235
 42
-0.076216
  0
VERTEX
  8
0
 10
1414.570625
 20
231.112243
 42
-0.072166
  0
VERTEX
  8
0
 10
1410.991648
 20
229.538303
 42
-0.067662
  0
VERTEX
  8
0
 10
1407.031966
 20
229.000000
 42
-0.033679
  0
VERTEX
  8
0
 10
1404.699157
 20
229.157314
 42
-0.071229
  0
VERTEX
  8
0
 10
1402.959469
 20
229.651705
 42
-0.066057
  0
VERTEX
  8
0
 10
1401.348137
 20
230.641889
 42
-0.025619
  0
VERTEX
  8
0
 10
1399.400000
 20
232.400000
 42
-0.054690
  0
VERTEX
  8
0
 10
1397.155200
 20
235.198046
 42
-0.102818
  0
VERTEX
  8
0
 10
1396.133473
 20
237.896616
 42
-0.103340
  0
VERTEX
  8
0
 10
1396.274138
 20
240.769391
 42
-0.055651
  0
VERTEX
  8
0
 10
1397.548549
 20
244.093882
 42
-0.111929
  0
VERTEX
  8
0
 10
1400.640033
 20
247.762889
 42
-0.081253
  0
VERTEX
  8
0
 10
1405.379265
 20
250.263637
 42
-0.082461
  0
VERTEX
  8
0
 10
1410.595924
 20
251.099273
 42
-0.122021
  0
VERTEX
  8
0
 10
1415.065741
 20
249.964816
 42
0.024947
  0
VERTEX
  8
0
 10
1416.065786
 20
249.492166
 42
0.166915
  0
VERTEX
  8
0
 10
1416.606869
 20
249.459202
 42
0.268160
  0
VERTEX
  8
0
 10
1416.906431
 20
249.763917
 42
0.063304
  0
VERTEX
  8
0
 10
1417.000000
 20
250.500000
 42
-0.112296
  0
VERTEX
  8
0
 10
1417.446018
 20
252.460863
 42
-0.046888
  0
VERTEX
  8
0
 10
1418.850519
 20
254.798536
 42
-0.045573
  0
VERTEX
  8
0
 10
1420.786673
 20
256.980381
 42
-0.064099
  0
VERTEX
  8
0
 10
1422.893269
 20
258.503091
 42
-0.083177
  0
VERTEX
  8
0
 10
1425.821474
 20
259.512262
 42
-0.037418
  0
VERTEX
  8
0
 10
1429.883378
 20
259.883401
 42
-0.036317
  0
VERTEX
  8
0
 10
1433.800719
 20
259.662681
 42
-0.133132
  0
SEQEND
  0
POLYLINE
  8
0
 66
1
 70
1
  0
VERTEX
  8
0
 10
1554.315741
 20
240.882960
 42
-0.095619
  0
VERTEX
  8
0
 10
1557.739168
 20
238.207393
 42
-0.118019
  0
VERTEX
  8
0
 10
1559.610744
 20
234.628187
 42
-0.114100
  0
VERTEX
  8
0
 10
1559.691930
 20
230.493528
 42
-0.085191
  0
VERTEX
  8
0
 10
1558.005402
 20
226.240860
 42
-0.059657
  0
VERTEX
  8
0
 10
1555.397492
 20
222.926693
 42
-0.077983
  0
VERTEX
  8
0
 10
1552.284437
 20
220.660388
 42
-0.077836
  0
VERTEX
  8
0
 10
1548.622053
 20
219.453767
 42
-0.059172
  0
VERTEX
  8
0
 10
1544.394110
 20
219.264654
 42
0.000000
  0
VERTEX
  8
0
 10
1539.288220
 20
219.640644
 42
0.000000
  0
VERTEX
  8
0
 10
1537.394110
 20
215.570322
 42
-0.122486
  0
VERTEX
  8
0
 10
1533.045849
 20
210.185502
 42
-0.117657
  0
VERTEX
  8
0
 10
1526.618071
 20
207.364980
 42
-0.129614
  0
VERTEX
  8
0
 10
1520.088065
 20
207.878803
 42
-0.165086
  0
VERTEX
  8
0
 10
1515.357560
 20
211.577047
 42
-0.111788
  0
VERTEX
  8
0
 10
1513.780963
 20
215.799041
 42
-0.106766
  0
VERTEX
  8
0
 10
1514.137726
 20
220.364353
 42
-0.098480
  0
VERTEX
  8
0
 10
1516.415391
 20
224.665145
 42
-0.081368
  0
VERTEX
  8
0
 10
1520.304334
 20
228.110931
 42
-0.040928
  0
VERTEX
  8
0
 10
1522.188464
 20
229.093899
 42
-0.057013
  0
VERTEX
  8
0
 10
1524.012053
 20
229.628465
 42
-0.045959
  0
VERTEX
  8
0
 10
1526.188293
 20
229.801613
 42
-0.017206
  0
VERTEX
  8
0
 10
1529.250000
 20
229.658018
 42
0.008346
  0
VERTEX
  8
0
 10
1532.514674
 20
229.446882
 42
0.067744
  0
VERTEX
  8
0
 10
1534.004138
 20
229.577379
 42
0.188613
  0
VERTEX
  8
0
 10
1534.721471
 20
230.063427
 42
0.151758
  0
VERTEX
  8
0
 10
1535.000000
 20
230.959969
 42
-0.129039
  0
VERTEX
  8
0
 10
1535.530355
 20
232.980769
 42
-0.041906
  0
VERTEX
  8
0
 10
1537.280969
 20
235.555724
 42
-0.040157
  0
VERTEX
  8
0
 10
1539.704899
 20
238.100324
 42
-0.045486
  0
VERTEX
  8
0
 10
1542.411303
 20
240.109054
 42
-0.065839
  0
VERTEX
  8
0
 10
1545.220510
 20
241.350456
 42
-0.054979
  0
VERTEX
  8
0
 10
1548.434905
 20
241.918012
 42
-0.056234
  0
VERTEX
  8
0
 10
1551.613878
 20
241.767115
 42
-0.078397
  0
SEQEND
  0
POLYLINE
  8
0
 66
1
 70
1
  0
VERTEX
  8
0
 10
1103.964816
 20
231.065741
 42
-0.068000
  0
VERTEX
  8
0
 10
1104.364841
 20
229.988655
 42
-0.018485
  0
VERTEX
  8
0
 10
1104.695915
 20
228.198258
 42
-0.018346
  0
VERTEX
  8
0
 10
1104.923878
 20
226.118951
 42
-0.018130
  0
VERTEX
  8
0
 10
1105.000000
 20
224.020287
 42
-0.064441
  0
VERTEX
  8
0
 10
1104.457287
 20
219.826821
 42
-0.106390
  0
VERTEX
  8
0
 10
1102.847937
 20
216.653804
 42
-0.121588
  0
VERTEX
  8
0
 10
1100.258255
 20
214.695581
 42
-0.101710
  0
VERTEX
  8
0
 10
1096.874195
 20
214.000000
 42
0.040459
  0
VERTEX
  8
0
 10
1095.521967
 20
213.890401
 42
0.033844
  0
VERTEX
  8
0
 10
1094.119361
 20
213.562864
 42
0.035154
  0
VERTEX
  8
0
 10
1092.872489
 20
213.083044
 42
0.074621
  0
VERTEX
  8
0
 10
1092.013123
 20
212.511877
 42
-0.054686
  0
VERTEX
  8
0
 10
1091.162494
 20
211.896478
 42
-0.024923
  0
VERTEX
  8
0
 10
1089.935855
 20
211.277701
 42
-0.024323
  0
VERTEX
  8
0
 10
1088.565033
 20
210.748015
 42
-0.030684
  0
VERTEX
  8
0
 10
1087.250671
 20
210.400134
 42
-0.165697
  0
VERTEX
  8
0
 10
1083.283348
 20
210.922906
 42
-0.152650
  0
VERTEX
  8
0
 10
1080.301803
 20
213.770287
 42
-0.123993
  0
VERTEX
  8
0
 10
1079.087614
 20
218.358095
 42
-0.094106
  0
VERTEX
  8
0
 10
1080.000485
 20
223.501276
 42
-0.151889
  0
VERTEX
  8
0
 10
1081.469770
 20
225.375799
 42
-0.168718
  0
VERTEX
  8
0
 10
1083.678890
 20
225.987756
 42
-0.169244
  0
VERTEX
  8
0
 10
1085.786647
 20
225.098199
 42
-0.152784
  0
VERTEX
  8
0
 10
1086.993078
 20
223.052783
 42
0.022570
  0
VERTEX
  8
0
 10
1087.363242
 20
221.739892
 42
0.543745
  0
VERTEX
  8
0
 10
1087.670713
 20
221.659808
 42
0.130984
  0
VERTEX
  8
0
 10
1088.021774
 20
222.208655
 42
0.004368
  0
VERTEX
  8
0
 10
1088.791762
 20
224.699300
 42
-0.029436
  0
VERTEX
  8
0
 10
1089.380291
 20
226.311824
 42
-0.033517
  0
VERTEX
  8
0
 10
1090.133160
 20
227.772842
 42
-0.035671
  0
VERTEX
  8
0
 10
1090.930839
 20
228.904150
 42
-0.130468
  0
VERTEX
  8
0
 10
1091.635886
 20
229.413771
 42
-0.140756
  0
VERTEX
  8
0
 10
1093.068472
 20
229.538335
 42
-0.106389
  0
VERTEX
  8
0
 10
1094.526981
 20
228.913205
 42
-0.105164
  0
VERTEX
  8
0
 10
1095.611865
 20
227.735353
 42
-0.134497
  0
VERTEX
  8
0
 10
1096.000000
 20
226.318538
 42
0.073118
  0
VERTEX
  8
0
 10
1096.074069
 20
225.814744
 42
0.149321
  0
VERTEX
  8
0
 10
1096.293750
 20
225.485507
 42
0.188386
  0
VERTEX
  8
0
 10
1096.619797
 20
225.379792
 42
0.124310
  0
VERTEX
  8
0
 10
1097.000000
 20
225.500000
 42
0.123387
  0
VERTEX
  8
0
 10
1097.384107
 20
225.894786
 42
0.047457
  0
VERTEX
  8
0
 10
1097.706250
 20
226.594775
 42
0.043300
  0
VERTEX
  8
0
 10
1097.926061
 20
227.455898
 42
0.040867
  0
VERTEX
  8
0
 10
1098.000000
 20
228.359017
 42
-0.113498
  0
VERTEX
  8
0
 10
1098.611069
 20
231.016330
 42
-0.174939
  0
VERTEX
  8
0
 10
1100.282656
 20
232.644911
 42
-0.219418
  0
VERTEX
  8
0
 10
1102.311798
 20
232.632746
 42
-0.161742
  0
SEQEND
  0
POLYLINE
  8
0
 66
1
 70
1
  0
VERTEX
  8
0
 10
1227.854975
 20
214.574996
 42
-0.156396
  0
VERTEX
  8
0
 10
1231.828383
 20
210.584626
 42
-0.148750
  0
VERTEX
  8
0
 10
1232.841721
 20
204.940805
 42
-0.135550
  0
VERTEX
  8
0
 10
1230.537113
 20
199.288275
 42
-0.123233
  0
VERTEX
  8
0
 10
1225.584814
 20
195.373087
 42
0.000000
  0
VERTEX
  8
0
 10
1222.500000
 20
193.981633
 42
0.000000
  0
VERTEX
  8
0
 10
1226.500000
 20
194.740817
 42
-0.048954
  0
VERTEX
  8
0
 10
1234.186287
 20
195.432408
 42
-0.047150
  0
VERTEX
  8
0
 10
1241.960696
 20
194.634113
 42
-0.045191
  0
VERTEX
  8
0
 10
1249.745255
 20
192.337578
 42
-0.038243
  0
VERTEX
  8
0
 10
1257.461009
 20
188.575718
 42
-0.049711
  0
VERTEX
  8
0
 10
1261.898150
 20
185.344402
 42
-0.068902
  0
VERTEX
  8
0
 10
1265.080949
 20
181.599518
 42
-0.058651
  0
VERTEX
  8
0
 10
1267.458946
 20
176.672736
 42
-0.025978
  0
VERTEX
  8
0
 10
1269.461887
 20
169.722338
 42
0.006760
  0
VERTEX
  8
0
 10
1270.745295
 20
164.526282
 42
0.045120
  0
VERTEX
  8
0
 10
1271.647585
 20
162.022230
 42
0.099045
  0
VERTEX
  8
0
 10
1272.650010
 20
160.657367
 42
0.117496
  0
VERTEX
  8
0
 10
1274.045993
 20
159.883908
 42
0.053454
  0
VERTEX
  8
0
 10
1277.968343
 20
159.229855
 42
0.033711
  0
VERTEX
  8
0
 10
1282.615108
 20
159.271551
 42
0.026152
  0
VERTEX
  8
0
 10
1288.343477
 20
160.012670
 42
0.012263
  0
VERTEX
  8
0
 10
1295.661336
 20
161.537878
 42
0.007434
  0
VERTEX
  8
0
 10
1304.317914
 20
163.701057
 42
0.021689
  0
VERTEX
  8
0
 10
1310.194420
 20
165.538929
 42
0.030950
  0
VERTEX
  8
0
 10
1314.206945
 20
167.275089
 42
0.091502
  0
VERTEX
  8
0
 10
1316.582840
 20
169.091537
 42
0.032037
  0
VERTEX
  8
0
 10
1317.493447
 20
170.237363
 42
0.147055
  0
VERTEX
  8
0
 10
1317.753917
 20
171.035530
 42
0.129121
  0
VERTEX
  8
0
 10
1317.547912
 20
171.902073
 42
0.022458
  0
VERTEX
  8
0
 10
1316.682865
 20
173.361257
 42
0.071137
  0
VERTEX
  8
0
 10
1314.768229
 20
175.535136
 42
0.038010
  0
VERTEX
  8
0
 10
1311.870818
 20
177.650801
 42
0.032098
  0
VERTEX
  8
0
 10
1308.098889
 20
179.665347
 42
0.020625
  0
VERTEX
  8
0
 10
1303.500000
 20
181.529600
 42
-0.016117
  0
VERTEX
  8
0
 10
1299.198958
 20
183.228147
 42
-0.090469
  0
VERTEX
  8
0
 10
1297.150680
 20
184.596010
 42
-0.196561
  0
VERTEX
  8
0
 10
1296.506021
 20
186.065631
 42
-0.129874
  0
VERTEX
  8
0
 10
1296.937563
 20
187.883335
 42
-0.148241
  0
VERTEX
  8
0
 10
1298.464469
 20
189.409213
 42
-0.160331
  0
VERTEX
  8
0
 10
1300.531520
 20
189.769928
 42
-0.068647
  0
VERTEX
  8
0
 10
1303.783427
 20
188.826837
 42
-0.011179
  0
VERTEX
  8
0
 10
1309.736361
 20
186.011914
 42
-0.045882
  0
VERTEX
  8
0
 10
1318.376908
 20
180.645641
 42
-0.051070
  0
VERTEX
  8
0
 10
1325.559246
 20
173.961191
 42
-0.057381
  0
VERTEX
  8
0
 10
1330.413185
 20
166.935793
 42
-0.123108
  0
VERTEX
  8
0
 10
1332.000000
 20
160.588646
 42
-0.098766
  0
VERTEX
  8
0
 10
1331.425922
 20
157.710738
 42
-0.063929
  0
VERTEX
  8
0
 10
1329.728829
 20
154.756788
 42
-0.058405
  0
VERTEX
  8
0
 10
1327.142759
 20
152.067490
 42
-0.054189
  0
VERTEX
  8
0
 10
1323.942181
 20
149.970503
 42
-0.042282
  0
VERTEX
  8
0
 10
1317.179847
 20
147.212673
 42
-0.008788
  0
VERTEX
  8
0
 10
1304.859411
 20
143.601178
 42
-0.007745
  0
VERTEX
  8
0
 10
1292.436110
 20
140.401499
 42
-0.059901
  0
VERTEX
  8
0
 10
1286.488005
 20
139.702818
 42
-0.053397
  0
VERTEX
  8
0
 10
1282.400193
 20
140.151919
 42
-0.044488
  0
VERTEX
  8
0
 10
1278.229216
 20
141.465201
 42
-0.045492
  0
VERTEX
  8
0
 10
1274.464849
 20
143.448352
 42
-0.065035
  0
VERTEX
  8
0
 10
1271.595012
 20
145.893590
 42
0.023210
  0
VERTEX
  8
0
 10
1270.794700
 20
146.699940
 42
0.027513
  0
VERTEX
  8
0
 10
1269.965388
 20
147.381242
 42
0.028065
  0
VERTEX
  8
0
 10
1269.216030
 20
147.868567
 42
0.130861
  0
VERTEX
  8
0
 10
1268.722445
 20
148.000000
 42
0.165162
  0
VERTEX
  8
0
 10
1268.117702
 20
147.794638
 42
0.006313
  0
VERTEX
  8
0
 10
1266.226634
 20
146.304535
 42
0.010727
  0
VERTEX
  8
0
 10
1264.019178
 20
144.439776
 42
0.007291
  0
VERTEX
  8
0
 10
1261.584798
 20
142.228205
 42
-0.052269
  0
VERTEX
  8
0
 10
1252.839728
 20
135.612985
 42
-0.039420
  0
VERTEX
  8
0
 10
1242.058905
 20
130.212771
 42
-0.032791
  0
VERTEX
  8
0
 10
1228.666517
 20
125.774425
 42
-0.018451
  0
VERTEX
  8
0
 10
1211.934759
 20
122.075687
 42
-0.008156
  0
VERTEX
  8
0
 10
1203.502326
 20
120.677177
 42
-0.025021
  0
VERTEX
  8
0
 10
1197.741038
 20
120.110703
 42
-0.037062
  0
VERTEX
  8
0
 10
1193.659843
 20
120.217301
 42
-0.098111
  0
VERTEX
  8
0
 10
1190.879082
 20
121.064713
 42
0.060011
  0
VERTEX
  8
0
 10
1189.769831
 20
121.496890
 42
0.147873
  0
VERTEX
  8
0
 10
1188.905581
 20
121.460590
 42
0.114120
  0
VERTEX
  8
0
 10
1188.064900
 20
120.930178
 42
0.028550
  0
VERTEX
  8
0
 10
1186.983311
 20
119.705913
 42
-0.107221
  0
VERTEX
  8
0
 10
1184.964490
 20
118.037484
 42
-0.069306
  0
VERTEX
  8
0
 10
1182.093733
 20
117.026389
 42
-0.017668
  0
VERTEX
  8
0
 10
1176.473929
 20
116.091115
 42
-0.000751
  0
VERTEX
  8
0
 10
1156.500000
 20
113.518824
 42
-0.006396
  0
VERTEX
  8
0
 10
1128.158584
 20
110.280039
 42
-0.006637
  0
VERTEX
  8
0
 10
1100.091872
 20
107.811739
 42
-0.004248
  0
VERTEX
  8
0
 10
1075.384975
 20
106.179990
 42
-0.069730
  0
VERTEX
  8
0
 10
1067.150028
 20
106.854956
 42
0.000000
  0
VERTEX
  8
0
 10
1063.033659
 20
107.779843
 42
0.000000
  0
VERTEX
  8
0
 10
1059.547881
 20
100.532611
 42
-0.033920
  0
VERTEX
  8
0
 10
1055.975185
 20
94.236409
 42
-0.032447
  0
VERTEX
  8
0
 10
1051.535456
 20
88.381885
 42
-0.034378
  0
VERTEX
  8
0
 10
1046.836970
 20
83.655326
 42
-0.073444
  0
VERTEX
  8
0
 10
1042.521322
 20
80.870688
 42
-0.037949
  0
VERTEX
  8
0
 10
1040.463541
 20
80.118288
 42
-0.023303
  0
VERTEX
  8
0
 10
1037.947759
 20
79.534338
 42
-0.022117
  0
VERTEX
  8
0
 10
1035.203569
 20
79.155312
 42
-0.022353
  0
VERTEX
  8
0
 10
1032.446344
 20
79.021962
 42
-0.082092
  0
VERTEX
  8
0
 10
1024.548516
 20
80.298034
 42
-0.074500
  0
VERTEX
  8
0
 10
1017.186480
 20
84.063014
 42
-0.068400
  0
VERTEX
  8
0
 10
1010.741769
 20
90.164432
 42
-0.053517
  0
VERTEX
  8
0
 10
1005.544457
 20
98.286628
 42
-0.076085
  0
VERTEX
  8
0
 10
1003.258225
 20
105.413345
 42
-0.062630
  0
VERTEX
  8
0
 10
1002.990821
 20
113.404033
 42
-0.066097
  0
VERTEX
  8
0
 10
1004.656709
 20
120.728202
 42
-0.116808
  0
VERTEX
  8
0
 10
1008.078361
 20
125.858378
 42
-0.106858
  0
VERTEX
  8
0
 10
1010.741120
 20
127.444091
 42
-0.078241
  0
VERTEX
  8
0
 10
1014.142647
 20
128.021135
 42
-0.079762
  0
VERTEX
  8
0
 10
1017.491067
 20
127.524284
 42
-0.120301
  0
VERTEX
  8
0
 10
1020.000000
 20
126.000000
 42
-0.052388
  0
VERTEX
  8
0
 10
1021.486609
 20
124.164342
 42
-0.182922
  0
VERTEX
  8
0
 10
1021.805065
 20
122.700399
 42
-0.116778
  0
VERTEX
  8
0
 10
1021.120217
 20
120.986505
 42
-0.016075
  0
VERTEX
  8
0
 10
1018.794360
 20
117.893733
 42
0.108218
  0
VERTEX
  8
0
 10
1015.625312
 20
111.519028
 42
0.083019
  0
VERTEX
  8
0
 10
1015.001272
 20
103.744254
 42
0.089580
  0
VERTEX
  8
0
 10
1016.899468
 20
96.728821
 42
0.164104
  0
VERTEX
  8
0
 10
1020.971201
 20
92.514893
 42
0.034842
  0
VERTEX
  8
0
 10
1022.304906
 20
91.939033
 42
0.033434
  0
VERTEX
  8
0
 10
1023.724021
 20
91.544605
 42
0.035271
  0
VERTEX
  8
0
 10
1025.021525
 20
91.370034
 42
0.092906
  0
VERTEX
  8
0
 10
1025.948932
 20
91.483791
 42
0.130472
  0
VERTEX
  8
0
 10
1029.780016
 20
93.922193
 42
0.047978
  0
VERTEX
  8
0
 10
1033.684933
 20
99.073563
 42
0.035411
  0
VERTEX
  8
0
 10
1037.726874
 20
106.800615
 42
0.015679
  0
VERTEX
  8
0
 10
1041.997875
 20
117.500000
 42
-0.015862
  0
VERTEX
  8
0
 10
1046.050251
 20
127.640904
 42
-0.049069
  0
VERTEX
  8
0
 10
1049.646216
 20
134.070414
 42
-0.067321
  0
VERTEX
  8
0
 10
1053.715229
 20
138.504898
 42
-0.055599
  0
VERTEX
  8
0
 10
1059.075709
 20
142.038624
 42
-0.030400
  0
VERTEX
  8
0
 10
1062.421349
 20
143.496574
 42
-0.096301
  0
VERTEX
  8
0
 10
1064.822837
 20
143.879618
 42
-0.125630
  0
VERTEX
  8
0
 10
1066.820580
 20
143.296949
 42
-0.070834
  0
VERTEX
  8
0
 10
1068.803361
 20
141.709313
 42
-0.048493
  0
VERTEX
  8
0
 10
1069.899619
 20
140.288838
 42
-0.087126
  0
VERTEX
  8
0
 10
1070.453093
 20
138.929072
 42
-0.065112
  0
VERTEX
  8
0
 10
1070.596205
 20
137.202640
 42
-0.017566
  0
VERTEX
  8
0
 10
1070.369464
 20
134.459313
 42
0.016223
  0
VERTEX
  8
0
 10
1070.139710
 20
131.767642
 42
0.063249
  0
VERTEX
  8
0
 10
1070.262360
 20
130.104704
 42
0.093820
  0
VERTEX
  8
0
 10
1070.761797
 20
128.879403
 42
0.065574
  0
VERTEX
  8
0
 10
1071.731116
 20
127.740419
 42
0.111395
  0
VERTEX
  8
0
 10
1073.394230
 20
126.803876
 42
0.061628
  0
VERTEX
  8
0
 10
1075.703443
 20
126.412497
 42
0.025163
  0
VERTEX
  8
0
 10
1079.654872
 20
126.434333
 42
0.002848
  0
VERTEX
  8
0
 10
1088.589327
 20
126.984828
 42
0.004966
  0
VERTEX
  8
0
 10
1103.797895
 20
128.160709
 42
0.002354
  0
VERTEX
  8
0
 10
1123.375445
 20
129.963039
 42
0.002244
  0
VERTEX
  8
0
 10
1142.301134
 20
131.881028
 42
0.007811
  0
VERTEX
  8
0
 10
1154.500000
 20
133.365680
 42
0.000000
  0
VERTEX
  8
0
 10
1163.500000
 20
134.603978
 42
0.000000
  0
VERTEX
  8
0
 10
1153.500000
 20
136.878802
 42
-0.017716
  0
VERTEX
  8
0
 10
1124.527020
 20
144.558486
 42
-0.035867
  0
VERTEX
  8
0
 10
1102.508412
 20
153.003544
 42
-0.046731
  0
VERTEX
  8
0
 10
1086.756543
 20
162.261138
 42
-0.104370
  0
VERTEX
  8
0
 10
1077.453586
 20
172.488988
 42
-0.051352
  0
VERTEX
  8
0
 10
1075.289182
 20
177.239955
 42
-0.038800
  0
VERTEX
  8
0
 10
1073.884782
 20
182.802591
 42
-0.039689
  0
VERTEX
  8
0
 10
1073.385724
 20
188.307849
 42
-0.068633
  0
VERTEX
  8
0
 10
1073.962242
 20
192.859779
 42
-0.103567
  0
VERTEX
  8
0
 10
1077.134569
 20
199.113731
 42
-0.083962
  0
VERTEX
  8
0
 10
1082.764004
 20
204.125665
 42
-0.080724
  0
VERTEX
  8
0
 10
1089.952568
 20
207.154833
 42
-0.084552
  0
VERTEX
  8
0
 10
1097.612694
 20
207.684265
 42
-0.090365
  0
VERTEX
  8
0
 10
1106.265082
 20
205.196811
 42
-0.054706
  0
VERTEX
  8
0
 10
1115.267576
 20
199.433062
 42
-0.046833
  0
VERTEX
  8
0
 10
1124.166184
 20
190.763091
 42
-0.032983
  0
VERTEX
  8
0
 10
1132.502365
 20
179.540302
 42
0.000000
  0
VERTEX
  8
0
 10
1138.254189
 20
170.624248
 42
0.000000
  0
VERTEX
  8
0
 10
1136.016311
 20
168.812124
 42
-0.016866
  0
VERTEX
  8
0
 10
1135.097842
 20
168.118340
 42
-0.020317
  0
VERTEX
  8
0
 10
1134.188714
 20
167.532311
 42
-0.019421
  0
VERTEX
  8
0
 10
1133.395054
 20
167.105808
 42
-0.114059
  0
VERTEX
  8
0
 10
1132.937257
 20
167.000000
 42
-0.201728
  0
VERTEX
  8
0
 10
1132.470380
 20
167.196355
 42
-0.013292
  0
VERTEX
  8
0
 10
1131.455585
 20
168.290071
 42
-0.017573
  0
VERTEX
  8
0
 10
1130.293262
 20
169.709148
 42
-0.012120
  0
VERTEX
  8
0
 10
1129.074491
 20
171.391730
 42
0.053011
  0
VERTEX
  8
0
 10
1123.637301
 20
177.735957
 42
0.046434
  0
VERTEX
  8
0
 10
1116.754779
 20
183.116355
 42
0.049028
  0
VERTEX
  8
0
 10
1109.554307
 20
186.798750
 42
0.094483
  0
VERTEX
  8
0
 10
1103.212487
 20
187.994423
 42
0.044487
  0
VERTEX
  8
0
 10
1099.878043
 20
187.690246
 42
0.037324
  0
VERTEX
  8
0
 10
1096.440955
 20
186.796123
 42
0.038891
  0
VERTEX
  8
0
 10
1093.440372
 20
185.503182
 42
0.087884
  0
VERTEX
  8
0
 10
1091.492442
 20
183.991648
 42
0.048050
  0
VERTEX
  8
0
 10
1090.566862
 20
182.747296
 42
0.111264
  0
VERTEX
  8
0
 10
1090.200619
 20
181.649093
 42
0.080706
  0
VERTEX
  8
0
 10
1090.283727
 20
180.283523
 42
0.017314
  0
VERTEX
  8
0
 10
1090.887642
 20
177.980680
 42
0.067045
  0
VERTEX
  8
0
 10
1092.890416
 20
173.555305
 42
0.061071
  0
VERTEX
  8
0
 10
1096.046030
 20
169.659936
 42
0.052000
  0
VERTEX
  8
0
 10
1100.528066
 20
166.152348
 42
0.030349
  0
VERTEX
  8
0
 10
1106.523744
 20
162.881199
 42
0.043062
  0
VERTEX
  8
0
 10
1126.528318
 20
155.517763
 42
0.013402
  0
VERTEX
  8
0
 10
1157.655148
 20
147.906310
 42
0.012010
  0
VERTEX
  8
0
 10
1188.643386
 20
141.978688
 42
0.068151
  0
VERTEX
  8
0
 10
1205.397009
 20
141.494507
 42
0.033905
  0
VERTEX
  8
0
 10
1219.788447
 20
144.038796
 42
0.025171
  0
VERTEX
  8
0
 10
1235.249818
 20
148.704882
 42
0.024353
  0
VERTEX
  8
0
 10
1248.821286
 20
154.317254
 42
0.093505
  0
VERTEX
  8
0
 10
1256.186382
 20
159.656753
 42
0.117788
  0
VERTEX
  8
0
 10
1260.156573
 20
166.550127
 42
0.160912
  0
VERTEX
  8
0
 10
1259.935713
 20
173.663040
 42
0.143527
  0
VERTEX
  8
0
 10
1255.391005
 20
179.828144
 42
0.087945
  0
VERTEX
  8
0
 10
1247.300932
 20
183.988771
 42
0.056739
  0
VERTEX
  8
0
 10
1236.992591
 20
185.930852
 42
0.064217
  0
VERTEX
  8
0
 10
1226.947775
 20
185.373806
 42
0.134401
  0
VERTEX
  8
0
 10
1221.514907
 20
182.743679
 42
0.434077
  0
VERTEX
  8
0
 10
1221.394761
 20
179.176668
 42
0.165109
  0
VERTEX
  8
0
 10
1224.226611
 20
177.780214
 42
0.024286
  0
VERTEX
  8
0
 10
1230.688725
 20
177.247155
 42
0.027459
  0
VERTEX
  8
0
 10
1238.048850
 20
177.402940
 42
0.033211
  0
VERTEX
  8
0
 10
1244.886492
 20
178.383715
 42
-0.008645
  0
VERTEX
  8
0
 10
1247.779203
 20
178.944767
 42
-0.012463
  0
VERTEX
  8
0
 10
1250.356857
 20
179.332657
 42
-0.008225
  0
VERTEX
  8
0
 10
1252.501069
 20
179.565107
 42
-0.162691
  0
VERTEX
  8
0
 10
1253.136492
 20
179.415644
 42
-0.175838
  0
VERTEX
  8
0
 10
1253.844378
 20
178.520489
 42
-0.147360
  0
VERTEX
  8
0
 10
1253.878910
 20
177.303756
 42
-0.095998
  0
VERTEX
  8
0
 10
1253.163379
 20
175.843621
 42
-0.045791
  0
VERTEX
  8
0
 10
1251.750000
 20
174.291287
 42
-0.045759
  0
VERTEX
  8
0
 10
1248.471352
 20
171.802743
 42
-0.050216
  0
VERTEX
  8
0
 10
1244.891995
 20
170.040732
 42
-0.048548
  0
VERTEX
  8
0
 10
1240.927181
 20
168.985674
 42
-0.038283
  0
VERTEX
  8
0
 10
1236.500000
 20
168.601628
 42
-0.053915
  0
VERTEX
  8
0
 10
1227.514645
 20
169.482504
 42
-0.084650
  0
VERTEX
  8
0
 10
1220.309931
 20
172.313024
 42
-0.108845
  0
VERTEX
  8
0
 10
1215.672880
 20
176.721012
 42
-0.149571
  0
VERTEX
  8
0
 10
1214.000000
 20
182.188170
 42
-0.037143
  0
VERTEX
  8
0
 10
1214.173892
 20
184.525812
 42
-0.079435
  0
VERTEX
  8
0
 10
1214.719456
 20
186.246476
 42
-0.066396
  0
VERTEX
  8
0
 10
1215.843619
 20
187.896119
 42
-0.019901
  0
VERTEX
  8
0
 10
1217.966351
 20
190.082772
 42
0.000000
  0
VERTEX
  8
0
 10
1221.932702
 20
193.855871
 42
0.000000
  0
VERTEX
  8
0
 10
1219.013311
 20
194.497076
 42
-0.064024
  0
VERTEX
  8
0
 10
1216.040752
 20
195.562239
 42
-0.063373
  0
VERTEX
  8
0
 10
1213.422984
 20
197.347500
 42
-0.064026
  0
VERTEX
  8
0
 10
1211.358127
 20
199.712176
 42
-0.067895
  0
VERTEX
  8
0
 10
1210.007406
 20
202.477561
 42
-0.176568
  0
VERTEX
  8
0
 10
1210.197189
 20
208.645773
 42
-0.149811
  0
VERTEX
  8
0
 10
1214.306035
 20
213.750774
 42
-0.134353
  0
VERTEX
  8
0
 10
1220.978216
 20
216.025560
 42
-0.135500
  0
SEQEND
  0
POLYLINE
  8
0
 66
1
 70
1
  0
VERTEX
  8
0
 10
1313.988956
 20
213.505711
 42
-0.086238
  0
VERTEX
  8
0
 10
1317.524217
 20
210.822095
 42
-0.112887
  0
VERTEX
  8
0
 10
1319.549904
 20
207.321800
 42
-0.111731
  0
VERTEX
  8
0
 10
1319.864314
 20
203.260566
 42
-0.083185
  0
VERTEX
  8
0
 10
1318.483073
 20
198.967267
 42
-0.114100
  0
VERTEX
  8
0
 10
1315.675817
 20
195.664435
 42
-0.097603
  0
VERTEX
  8
0
 10
1311.544835
 20
193.696780
 42
-0.082418
  0
VERTEX
  8
0
 10
1306.354859
 20
193.252120
 42
-0.055442
  0
VERTEX
  8
0
 10
1300.500000
 20
194.376718
 42
0.097342
  0
VERTEX
  8
0
 10
1299.431200
 20
194.490941
 42
0.123602
  0
VERTEX
  8
0
 10
1298.496555
 20
194.167077
 42
0.083280
  0
VERTEX
  8
0
 10
1297.569629
 20
193.310983
 42
0.025870
  0
VERTEX
  8
0
 10
1296.483935
 20
191.748286
 42
-0.047777
  0
VERTEX
  8
0
 10
1295.362509
 20
190.276028
 42
-0.042484
  0
VERTEX
  8
0
 10
1293.940142
 20
188.978722
 42
-0.041181
  0
VERTEX
  8
0
 10
1292.272030
 20
187.904299
 42
-0.038969
  0
VERTEX
  8
0
 10
1290.419923
 20
187.094912
 42
-0.173903
  0
VERTEX
  8
0
 10
1281.987913
 20
187.181458
 42
-0.193569
  0
VERTEX
  8
0
 10
1275.989722
 20
192.625823
 42
-0.205138
  0
VERTEX
  8
0
 10
1275.624829
 20
200.435438
 42
-0.185995
  0
VERTEX
  8
0
 10
1281.011044
 20
206.505711
 42
-0.066616
  0
VERTEX
  8
0
 10
1283.859236
 20
207.526748
 42
-0.044939
  0
VERTEX
  8
0
 10
1287.290938
 20
207.945283
 42
-0.045692
  0
VERTEX
  8
0
 10
1290.636614
 20
207.745051
 42
-0.085281
  0
VERTEX
  8
0
 10
1293.204650
 20
206.890475
 42
0.069318
  0
VERTEX
  8
0
 10
1294.413385
 20
206.445161
 42
0.162937
  0
VERTEX
  8
0
 10
1295.357816
 20
206.548003
 42
0.101135
  0
VERTEX
  8
0
 10
1296.335245
 20
207.265291
 42
0.018021
  0
VERTEX
  8
0
 10
1297.803244
 20
209.007846
 42
-0.071604
  0
VERTEX
  8
0
 10
1301.347185
 20
212.401791
 42
-0.087665
  0
VERTEX
  8
0
 10
1305.479094
 20
214.377057
 42
-0.093415
  0
VERTEX
  8
0
 10
1309.822896
 20
214.746138
 42
-0.094208
  0
SEQEND
  0
POLYLINE
  8
0
 66
1
 70
1
  0
VERTEX
  8
0
 10
762.321157
 20
173.657677
 42
-0.019542
  0
VERTEX
  8
0
 10
764.204242
 20
172.452885
 42
-0.016156
  0
VERTEX
  8
0
 10
766.114221
 20
171.029166
 42
-0.016460
  0
VERTEX
  8
0
 10
767.782159
 20
169.607710
 42
-0.041419
  0
VERTEX
  8
0
 10
768.868829
 20
168.439628
 42
0.020094
  0
VERTEX
  8
0
 10
770.133024
 20
166.958971
 42
0.146615
  0
VERTEX
  8
0
 10
770.928128
 20
166.490158
 42
0.174650
  0
VERTEX
  8
0
 10
771.779106
 20
166.579162
 42
0.031315
  0
VERTEX
  8
0
 10
773.191965
 20
167.374348
 42
-0.039701
  0
VERTEX
  8
0
 10
774.561387
 20
168.115163
 42
-0.007554
  0
VERTEX
  8
0
 10
777.172015
 20
169.223278
 42
-0.008017
  0
VERTEX
  8
0
 10
780.267969
 20
170.425061
 42
-0.007291
  0
VERTEX
  8
0
 10
783.500000
 20
171.567103
 42
-0.032942
  0
VERTEX
  8
0
 10
790.497692
 20
173.422759
 42
-0.034232
  0
VERTEX
  8
0
 10
797.589079
 20
174.313235
 42
-0.036011
  0
VERTEX
  8
0
 10
804.351309
 20
174.208343
 42
-0.048631
  0
VERTEX
  8
0
 10
810.360227
 20
173.085788
 42
-0.069924
  0
VERTEX
  8
0
 10
814.106023
 20
171.406308
 42
-0.072152
  0
VERTEX
  8
0
 10
817.198976
 20
168.773701
 42
-0.044037
  0
VERTEX
  8
0
 10
820.453813
 20
164.342792
 42
-0.010289
  0
VERTEX
  8
0
 10
825.078651
 20
156.357519
 42
0.027124
  0
VERTEX
  8
0
 10
828.898657
 20
150.245800
 42
0.061398
  0
VERTEX
  8
0
 10
832.552112
 20
146.208231
 42
0.073378
  0
VERTEX
  8
0
 10
836.630384
 20
143.616200
 42
0.055546
  0
VERTEX
  8
0
 10
841.689819
 20
142.002804
 42
-0.003778
  0
VERTEX
  8
0
 10
844.323189
 20
141.454520
 42
-0.002248
  0
VERTEX
  8
0
 10
847.451285
 20
140.763792
 42
-0.002250
  0
VERTEX
  8
0
 10
850.563268
 20
140.047202
 42
-0.003886
  0
VERTEX
  8
0
 10
853.144345
 20
139.419413
 42
0.019341
  0
VERTEX
  8
0
 10
857.820508
 20
138.434010
 42
0.036439
  0
VERTEX
  8
0
 10
861.658159
 20
138.063811
 42
0.046028
  0
VERTEX
  8
0
 10
864.761961
 20
138.277288
 42
0.082872
  0
VERTEX
  8
0
 10
867.172299
 20
139.092212
 42
0.062400
  0
VERTEX
  8
0
 10
868.159711
 20
139.791239
 42
0.125826
  0
VERTEX
  8
0
 10
868.678688
 20
140.583732
 42
0.100823
  0
VERTEX
  8
0
 10
868.816472
 20
141.650193
 42
0.031239
  0
VERTEX
  8
0
 10
868.597748
 20
143.261259
 42
0.085025
  0
VERTEX
  8
0
 10
867.481322
 20
146.165149
 42
0.019064
  0
VERTEX
  8
0
 10
864.588080
 20
150.631652
 42
0.020525
  0
VERTEX
  8
0
 10
861.065600
 20
155.227283
 42
0.030408
  0
VERTEX
  8
0
 10
857.585439
 20
158.919734
 42
-0.026351
  0
VERTEX
  8
0
 10
856.363864
 20
160.194948
 42
-0.092044
  0
VERTEX
  8
0
 10
855.792653
 20
161.175102
 42
-0.130354
  0
VERTEX
  8
0
 10
855.714181
 20
162.097786
 42
-0.079415
  0
VERTEX
  8
0
 10
856.073850
 20
163.137989
 42
-0.152989
  0
VERTEX
  8
0
 10
857.532201
 20
164.568540
 42
-0.197703
  0
VERTEX
  8
0
 10
859.383391
 20
164.720268
 42
-0.099332
  0
VERTEX
  8
0
 10
861.824321
 20
163.365765
 42
-0.025347
  0
VERTEX
  8
0
 10
865.133484
 20
160.250000
 42
-0.014416
  0
VERTEX
  8
0
 10
869.068650
 20
155.905291
 42
-0.031309
  0
VERTEX
  8
0
 10
871.772361
 20
152.308194
 42
-0.036304
  0
VERTEX
  8
0
 10
873.753480
 20
148.761214
 42
-0.027668
  0
VERTEX
  8
0
 10
875.410277
 20
144.630829
 42
0.013989
  0
VERTEX
  8
0
 10
877.245784
 20
139.666182
 42
0.088447
  0
VERTEX
  8
0
 10
878.668433
 20
137.389651
 42
0.120964
  0
VERTEX
  8
0
 10
880.594412
 20
136.085936
 42
0.035775
  0
VERTEX
  8
0
 10
884.038869
 20
135.085084
 42
0.011481
  0
VERTEX
  8
0
 10
889.561345
 20
134.032737
 42
0.087459
  0
VERTEX
  8
0
 10
892.197249
 20
134.056823
 42
0.224741
  0
VERTEX
  8
0
 10
893.503042
 20
135.000416
 42
0.126395
  0
VERTEX
  8
0
 10
894.000000
 20
136.934900
 42
-0.124769
  0
VERTEX
  8
0
 10
895.590450
 20
143.209258
 42
-0.096362
  0
VERTEX
  8
0
 10
900.090917
 20
148.677260
 42
-0.060677
  0
VERTEX
  8
0
 10
908.273778
 20
153.908577
 42
-0.019601
  0
VERTEX
  8
0
 10
921.498680
 20
159.631634
 42
0.026390
  0
VERTEX
  8
0
 10
924.110616
 20
160.804283
 42
0.056003
  0
VERTEX
  8
0
 10
925.954316
 20
162.029799
 42
0.059228
  0
VERTEX
  8
0
 10
927.416392
 20
163.586861
 42
0.032896
  0
VERTEX
  8
0
 10
928.823605
 20
165.782974
 42
-0.039957
  0
VERTEX
  8
0
 10
930.518616
 20
168.347864
 42
-0.105772
  0
VERTEX
  8
0
 10
932.197032
 20
169.750701
 42
-0.232444
  0
VERTEX
  8
0
 10
933.535130
 20
169.789061
 42
-0.214144
  0
VERTEX
  8
0
 10
934.447862
 20
168.750000
 42
-0.010906
  0
VERTEX
  8
0
 10
934.633773
 20
168.096185
 42
-0.003321
  0
VERTEX
  8
0
 10
934.887029
 20
167.098463
 42
-0.003323
  0
VERTEX
  8
0
 10
935.155970
 20
165.976650
 42
-0.003622
  0
VERTEX
  8
0
 10
935.402132
 20
164.883067
 42
0.054469
  0
VERTEX
  8
0
 10
935.853300
 20
163.535146
 42
0.014227
  0
VERTEX
  8
0
 10
936.868507
 20
161.487502
 42
0.014285
  0
VERTEX
  8
0
 10
938.165922
 20
159.207249
 42
0.014171
  0
VERTEX
  8
0
 10
939.594777
 20
156.998538
 42
-0.030694
  0
VERTEX
  8
0
 10
944.218120
 20
149.306145
 42
-0.066378
  0
VERTEX
  8
0
 10
946.562724
 20
142.827688
 42
-0.088202
  0
VERTEX
  8
0
 10
946.779663
 20
137.229716
 42
-0.102938
  0
VERTEX
  8
0
 10
944.996262
 20
132.225830
 42
0.004196
  0
VERTEX
  8
0
 10
944.231282
 20
130.947127
 42
0.006275
  0
VERTEX
  8
0
 10
943.586402
 20
129.816072
 42
0.002922
  0
VERTEX
  8
0
 10
943.057135
 20
128.846783
 42
0.124120
  0
VERTEX
  8
0
 10
943.000000
 20
128.620169
 42
0.385610
  0
VERTEX
  8
0
 10
943.247457
 20
128.347015
 42
0.000755
  0
VERTEX
  8
0
 10
949.613028
 20
127.726790
 42
0.004132
  0
VERTEX
  8
0
 10
957.108604
 20
127.070347
 42
0.002129
  0
VERTEX
  8
0
 10
966.500000
 20
126.366259
 42
0.020679
  0
VERTEX
  8
0
 10
972.714161
 20
126.184620
 42
0.066705
  0
VERTEX
  8
0
 10
976.794953
 20
126.781944
 42
0.125265
  0
VERTEX
  8
0
 10
979.122450
 20
128.138757
 42
0.201844
  0
VERTEX
  8
0
 10
979.993411
 20
130.225249
 42
0.103926
  0
VERTEX
  8
0
 10
979.444667
 20
132.799719
 42
0.053574
  0
VERTEX
  8
0
 10
977.788577
 20
135.664438
 42
0.040080
  0
VERTEX
  8
0
 10
974.998455
 20
138.901871
 42
0.018766
  0
VERTEX
  8
0
 10
970.917008
 20
142.642308
 42
-0.008261
  0
VERTEX
  8
0
 10
966.507309
 20
146.516343
 42
-0.082270
  0
VERTEX
  8
0
 10
964.986431
 20
148.438863
 42
-0.227240
  0
VERTEX
  8
0
 10
964.899765
 20
149.925718
 42
-0.112107
  0
VERTEX
  8
0
 10
966.012709
 20
151.511502
 42
-0.049517
  0
VERTEX
  8
0
 10
967.301204
 20
152.464071
 42
-0.181316
  0
VERTEX
  8
0
 10
968.283508
 20
152.641727
 42
-0.097452
  0
VERTEX
  8
0
 10
969.493961
 20
152.166512
 42
-0.009224
  0
VERTEX
  8
0
 10
972.159075
 20
150.394235
 42
-0.044259
  0
VERTEX
  8
0
 10
975.977526
 20
147.218587
 42
-0.025905
  0
VERTEX
  8
0
 10
979.977060
 20
142.810025
 42
-0.025032
  0
VERTEX
  8
0
 10
983.704142
 20
137.750893
 42
-0.028973
  0
VERTEX
  8
0
 10
986.713500
 20
132.578679
 42
-0.051167
  0
VERTEX
  8
0
 10
988.726587
 20
127.338483
 42
-0.042370
  0
VERTEX
  8
0
 10
989.796488
 20
121.453782
 42
-0.044134
  0
VERTEX
  8
0
 10
989.833876
 20
116.072109
 42
-0.125344
  0
VERTEX
  8
0
 10
988.625102
 20
112.550586
 42
-0.119965
  0
VERTEX
  8
0
 10
984.975413
 20
109.137116
 42
-0.091481
  0
VERTEX
  8
0
 10
979.782949
 20
107.354379
 42
-0.043507
  0
VERTEX
  8
0
 10
971.238342
 20
106.829866
 42
-0.007214
  0
VERTEX
  8
0
 10
954.750648
 20
107.491002
 42
0.000000
  0
VERTEX
  8
0
 10
941.001295
 20
108.241148
 42
0.000000
  0
VERTEX
  8
0
 10
942.500648
 20
104.652693
 42
-0.076328
  0
VERTEX
  8
0
 10
943.864831
 20
99.159558
 42
-0.113588
  0
VERTEX
  8
0
 10
943.200058
 20
94.270650
 42
-0.082840
  0
VERTEX
  8
0
 10
940.198751
 20
89.108745
 42
-0.026204
  0
VERTEX
  8
0
 10
934.139713
 20
82.530763
 42
0.014090
  0
VERTEX
  8
0
 10
931.276817
 20
79.569875
 42
0.016618
  0
VERTEX
  8
0
 10
928.744507
 20
76.606741
 42
0.016754
  0
VERTEX
  8
0
 10
926.780348
 20
73.971000
 42
0.072161
  0
VERTEX
  8
0
 10
925.909527
 20
72.225864
 42
-0.072494
  0
VERTEX
  8
0
 10
924.722053
 20
69.850091
 42
-0.300080
  0
VERTEX
  8
0
 10
923.303747
 20
69.284435
 42
-0.216770
  0
VERTEX
  8
0
 10
921.827790
 20
70.361714
 42
-0.045782
  0
VERTEX
  8
0
 10
920.488967
 20
73.344811
 42
0.050134
  0
VERTEX
  8
0
 10
918.891483
 20
76.823064
 42
0.062728
  0
VERTEX
  8
0
 10
916.726866
 20
79.635183
 42
0.052052
  0
VERTEX
  8
0
 10
913.607073
 20
82.186422
 42
0.022947
  0
VERTEX
  8
0
 10
909.018457
 20
84.909478
 42
-0.032332
  0
VERTEX
  8
0
 10
903.578311
 20
88.277392
 42
-0.027953
  0
VERTEX
  8
0
 10
898.333317
 20
92.474474
 42
-0.028931
  0
VERTEX
  8
0
 10
894.011095
 20
96.824500
 42
-0.070436
  0
VERTEX
  8
0
 10
891.524963
 20
100.588638
 42
-0.057473
  0
VERTEX
  8
0
 10
890.596692
 20
103.314300
 42
-0.050518
  0
VERTEX
  8
0
 10
890.259157
 20
106.302532
 42
-0.050337
  0
VERTEX
  8
0
 10
890.527607
 20
109.308804
 42
-0.056074
  0
VERTEX
  8
0
 10
891.392395
 20
112.087882
 42
0.265824
  0
VERTEX
  8
0
 10
891.301253
 20
112.945156
 42
0.149633
  0
VERTEX
  8
0
 10
890.441466
 20
113.596311
 42
0.046433
  0
VERTEX
  8
0
 10
888.362249
 20
114.145699
 42
0.006260
  0
VERTEX
  8
0
 10
883.893084
 20
114.834896
 42
-0.013503
  0
VERTEX
  8
0
 10
879.959341
 20
115.499993
 42
-0.026846
  0
VERTEX
  8
0
 10
876.896484
 20
116.276111
 42
-0.033814
  0
VERTEX
  8
0
 10
874.490356
 20
117.207848
 42
-0.053406
  0
VERTEX
  8
0
 10
872.598305
 20
118.351709
 42
0.027591
  0
VERTEX
  8
0
 10
871.057044
 20
119.395561
 42
0.060279
  0
VERTEX
  8
0
 10
869.756358
 20
119.975987
 42
0.078870
  0
VERTEX
  8
0
 10
868.598113
 20
120.141457
 42
0.089805
  0
VERTEX
  8
0
 10
867.500000
 20
119.924980
 42
-0.049909
  0
VERTEX
  8
0
 10
866.406425
 20
119.617572
 42
-0.013390
  0
VERTEX
  8
0
 10
864.618750
 20
119.351928
 42
-0.013429
  0
VERTEX
  8
0
 10
862.560936
 20
119.158164
 42
-0.013513
  0
VERTEX
  8
0
 10
860.500000
 20
119.075676
 42
-0.039407
  0
VERTEX
  8
0
 10
853.864461
 20
119.512886
 42
-0.008450
  0
VERTEX
  8
0
 10
842.469745
 20
121.368891
 42
-0.005897
  0
VERTEX
  8
0
 10
830.985407
 20
123.579441
 42
-0.087667
  0
VERTEX
  8
0
 10
827.193204
 20
125.080212
 42
-0.076528
  0
VERTEX
  8
0
 10
824.976874
 20
126.964053
 42
-0.041724
  0
VERTEX
  8
0
 10
822.868279
 20
129.855107
 42
-0.034093
  0
VERTEX
  8
0
 10
820.863647
 20
133.718886
 42
-0.019770
  0
VERTEX
  8
0
 10
818.967173
 20
138.595415
 42
0.019582
  0
VERTEX
  8
0
 10
816.767578
 20
144.257662
 42
0.085839
  0
VERTEX
  8
0
 10
814.805396
 20
147.246437
 42
0.099209
  0
VERTEX
  8
0
 10
812.097825
 20
149.182766
 42
0.030880
  0
VERTEX
  8
0
 10
807.398770
 20
150.958552
 42
0.007558
  0
VERTEX
  8
0
 10
804.725632
 20
151.740140
 42
0.008774
  0
VERTEX
  8
0
 10
802.159346
 20
152.400325
 42
0.007960
  0
VERTEX
  8
0
 10
799.973573
 20
152.885268
 42
0.050645
  0
VERTEX
  8
0
 10
798.843774
 20
153.000000
 42
0.052586
  0
VERTEX
  8
0
 10
797.803130
 20
152.890250
 42
0.396697
  0
VERTEX
  8
0
 10
797.546417
 20
152.519274
 42
0.117809
  0
VERTEX
  8
0
 10
797.838754
 20
151.796842
 42
0.006071
  0
VERTEX
  8
0
 10
799.334888
 20
149.750000
 42
-0.027868
  0
VERTEX
  8
0
 10
802.825526
 20
144.509654
 42
-0.050742
  0
VERTEX
  8
0
 10
804.969710
 20
139.840488
 42
-0.048376
  0
VERTEX
  8
0
 10
806.189980
 20
134.685115
 42
-0.023021
  0
VERTEX
  8
0
 10
806.801475
 20
127.887058
 42
-0.041532
  0
VERTEX
  8
0
 10
806.363683
 20
116.764279
 42
-0.074756
  0
VERTEX
  8
0
 10
803.920066
 20
107.989194
 42
-0.089147
  0
VERTEX
  8
0
 10
799.403746
 20
101.368550
 42
-0.086569
  0
VERTEX
  8
0
 10
792.822811
 20
96.654295
 42
-0.046424
  0
VERTEX
  8
0
 10
787.061459
 20
94.511141
 42
-0.044698
  0
VERTEX
  8
0
 10
780.929761
 20
93.433266
 42
-0.041183
  0
VERTEX
  8
0
 10
774.256840
 20
93.417566
 42
-0.029594
  0
VERTEX
  8
0
 10
766.872234
 20
94.451727
 42
-0.044928
  0
VERTEX
  8
0
 10
755.254420
 20
97.894668
 42
-0.052242
  0
VERTEX
  8
0
 10
745.050148
 20
103.236851
 42
-0.052995
  0
VERTEX
  8
0
 10
736.292603
 20
110.502670
 42
-0.048536
  0
VERTEX
  8
0
 10
728.965291
 20
119.650547
 42
-0.085442
  0
VERTEX
  8
0
 10
722.055908
 20
135.640491
 42
-0.104578
  0
VERTEX
  8
0
 10
721.584659
 20
151.882444
 42
-0.115822
  0
VERTEX
  8
0
 10
727.592368
 20
165.704604
 42
-0.124221
  0
VERTEX
  8
0
 10
739.000000
 20
174.986148
 42
-0.073841
  0
VERTEX
  8
0
 10
744.329062
 20
176.567159
 42
-0.049514
  0
VERTEX
  8
0
 10
750.689801
 20
176.834751
 42
-0.049197
  0
VERTEX
  8
0
 10
757.034657
 20
175.841927
 42
-0.069250
  0
SEQEND
  0
POLYLINE
  8
0
 66
1
 70
1
  0
VERTEX
  8
0
 10
974.673077
 20
175.013655
 42
-0.134449
  0
VERTEX
  8
0
 10
975.305744
 20
174.832458
 42
-0.020632
  0
VERTEX
  8
0
 10
976.405409
 20
174.100165
 42
-0.021796
  0
VERTEX
  8
0
 10
977.659030
 20
173.102212
 42
-0.017372
  0
VERTEX
  8
0
 10
978.923077
 20
171.923077
 42
-0.030652
  0
VERTEX
  8
0
 10
980.445962
 20
170.201079
 42
-0.063114
  0
VERTEX
  8
0
 10
981.364306
 20
168.657756
 42
-0.066100
  0
VERTEX
  8
0
 10
981.843908
 20
166.981682
 42
-0.036689
  0
VERTEX
  8
0
 10
982.000000
 20
164.857335
 42
-0.022673
  0
VERTEX
  8
0
 10
981.924313
 20
163.189057
 42
-0.020437
  0
VERTEX
  8
0
 10
981.697542
 20
161.475084
 42
-0.020934
  0
VERTEX
  8
0
 10
981.366897
 20
159.955672
 42
-0.058883
  0
VERTEX
  8
0
 10
980.970356
 20
158.944609
 42
-0.150310
  0
VERTEX
  8
0
 10
978.066443
 20
156.066048
 42
-0.074399
  0
VERTEX
  8
0
 10
973.115229
 20
154.347394
 42
-0.072322
  0
VERTEX
  8
0
 10
967.700561
 20
154.124250
 42
-0.119776
  0
VERTEX
  8
0
 10
963.413705
 20
155.648500
 42
-0.106441
  0
VERTEX
  8
0
 10
960.042401
 20
159.065461
 42
-0.111031
  0
VERTEX
  8
0
 10
958.440688
 20
163.516388
 42
-0.115117
  0
VERTEX
  8
0
 10
958.923142
 20
168.096551
 42
-0.121197
  0
VERTEX
  8
0
 10
961.384611
 20
171.891598
 42
-0.056249
  0
VERTEX
  8
0
 10
963.667204
 20
173.597514
 42
-0.047819
  0
VERTEX
  8
0
 10
966.398092
 20
174.862748
 42
-0.049995
  0
VERTEX
  8
0
 10
969.154345
 20
175.532552
 42
-0.086960
  0
VERTEX
  8
0
 10
971.500000
 20
175.450424
 42
0.009697
  0
VERTEX
  8
0
 10
972.351721
 20
175.287425
 42
0.008227
  0
VERTEX
  8
0
 10
973.257091
 20
175.147588
 42
0.008316
  0
VERTEX
  8
0
 10
974.086139
 20
175.047490
 42
0.022976
  0
SEQEND
  0
POLYLINE
  8
0
 66
1
 70
1
  0
VERTEX
  8
0
 10
856.711230
 20
112.618039
 42
0.000000
  0
VERTEX
  8
0
 10
860.092945
 20
108.927950
 42
0.000000
  0
VERTEX
  8
0
 10
862.681331
 20
110.963975
 42
-0.135913
  0
VERTEX
  8
0
 10
867.480060
 20
112.972204
 42
-0.093466
  0
VERTEX
  8
0
 10
873.399652
 20
112.615312
 42
-0.091302
  0
VERTEX
  8
0
 10
878.904289
 20
110.099373
 42
-0.121274
  0
VERTEX
  8
0
 10
882.514876
 20
105.971234
 42
-0.077540
  0
VERTEX
  8
0
 10
883.508442
 20
102.997768
 42
-0.095721
  0
VERTEX
  8
0
 10
883.440919
 20
100.081612
 42
-0.089367
  0
VERTEX
  8
0
 10
882.269549
 20
97.250254
 42
-0.059139
  0
VERTEX
  8
0
 10
880.027422
 20
94.526272
 42
-0.113517
  0
VERTEX
  8
0
 10
875.416442
 20
91.775360
 42
-0.103263
  0
VERTEX
  8
0
 10
869.899101
 20
91.188024
 42
-0.100437
  0
VERTEX
  8
0
 10
864.482402
 20
92.863280
 42
-0.101378
  0
VERTEX
  8
0
 10
860.167872
 20
96.513715
 42
0.000000
  0
VERTEX
  8
0
 10
858.159152
 20
99.067389
 42
0.000000
  0
VERTEX
  8
0
 10
854.829576
 20
97.037433
 42
-0.091916
  0
VERTEX
  8
0
 10
850.257302
 20
95.294533
 42
-0.095248
  0
VERTEX
  8
0
 10
845.423752
 20
95.338299
 42
-0.093150
  0
VERTEX
  8
0
 10
840.865382
 20
97.184078
 42
-0.083638
  0
VERTEX
  8
0
 10
837.088296
 20
100.614879
 42
-0.085920
  0
VERTEX
  8
0
 10
835.358150
 20
103.819131
 42
-0.108581
  0
VERTEX
  8
0
 10
834.998187
 20
107.159004
 42
-0.101753
  0
VERTEX
  8
0
 10
836.076486
 20
110.504969
 42
-0.067811
  0
VERTEX
  8
0
 10
838.522005
 20
113.722005
 42
-0.021078
  0
VERTEX
  8
0
 10
840.786154
 20
115.802902
 42
-0.095144
  0
VERTEX
  8
0
 10
842.345018
 20
116.677698
 42
-0.085900
  0
VERTEX
  8
0
 10
844.193371
 20
116.957593
 42
-0.015413
  0
VERTEX
  8
0
 10
847.686763
 20
116.776070
 42
-0.020023
  0
VERTEX
  8
0
 10
850.912682
 20
116.377989
 42
-0.067336
  0
VERTEX
  8
0
 10
852.942218
 20
115.756201
 42
-0.073039
  0
VERTEX
  8
0
 10
854.645204
 20
114.646347
 42
-0.026402
  0
SEQEND
  0
POLYLINE
  8
0
 66
1
 70
1
  0
VERTEX
  8
0
 10
1384.019708
 20
185.715551
 42
0.048587
  0
VERTEX
  8
0
 10
1382.978264
 20
185.054592
 42
0.030707
  0
VERTEX
  8
0
 10
1381.899355
 20
184.100645
 42
0.030707
  0
VERTEX
  8
0
 10
1380.945408
 20
183.021736
 42
0.048587
  0
VERTEX
  8
0
 10
1380.284449
 20
181.980292
 42
0.077595
  0
VERTEX
  8
0
 10
1379.307335
 20
178.966665
 42
0.045447
  0
VERTEX
  8
0
 10
1379.049664
 20
175.173532
 42
0.045560
  0
VERTEX
  8
0
 10
1379.454753
 20
171.637451
 42
0.146096
  0
VERTEX
  8
0
 10
1380.569927
 20
169.572930
 42
0.076989
  0
VERTEX
  8
0
 10
1382.557222
 20
168.118712
 42
0.078858
  0
VERTEX
  8
0
 10
1384.875246
 20
167.348851
 42
0.089417
  0
VERTEX
  8
0
 10
1387.058281
 20
167.381802
 42
0.149076
  0
VERTEX
  8
0
 10
1388.667551
 20
168.238980
 42
0.148878
  0
VERTEX
  8
0
 10
1389.917745
 20
170.583911
 42
0.025954
  0
VERTEX
  8
0
 10
1390.637070
 20
175.603640
 42
0.028593
  0
VERTEX
  8
0
 10
1390.809958
 20
180.799046
 42
0.087006
  0
VERTEX
  8
0
 10
1390.119464
 20
184.250000
 42
0.061141
  0
VERTEX
  8
0
 10
1389.151618
 20
186.050694
 42
0.181889
  0
VERTEX
  8
0
 10
1388.011024
 20
186.823736
 42
0.143404
  0
VERTEX
  8
0
 10
1386.451711
 20
186.747158
 42
0.033633
  0
SEQEND
  0
POLYLINE
  8
0
 66
1
 70
1
  0
VERTEX
  8
0
 10
1437.155589
 20
1837.720625
 42
0.000000
  0
VERTEX
  8
0
 10
1424.811178
 20
1815.651032
 42
0.000000
  0
VERTEX
  8
0
 10
1427.155589
 20
1813.878387
 42
0.070563
  0
VERTEX
  8
0
 10
1431.013685
 20
1811.737968
 42
0.017802
  0
VERTEX
  8
0
 10
1437.822784
 20
1809.405549
 42
0.018532
  0
VERTEX
  8
0
 10
1444.877741
 20
1807.548734
 42
0.055130
  0
VERTEX
  8
0
 10
1449.839367
 20
1807.000000
 42
0.061022
  0
VERTEX
  8
0
 10
1457.232961
 20
1807.905722
 42
0.076687
  0
VERTEX
  8
0
 10
1463.590425
 20
1810.570129
 42
0.077098
  0
VERTEX
  8
0
 10
1468.824205
 20
1815.012834
 42
0.062498
  0
VERTEX
  8
0
 10
1472.914974
 20
1821.145761
 42
0.096397
  0
VERTEX
  8
0
 10
1476.012663
 20
1832.286014
 42
0.130608
  0
VERTEX
  8
0
 10
1474.143325
 20
1842.516112
 42
0.119843
  0
VERTEX
  8
0
 10
1467.227071
 20
1851.085812
 42
0.073513
  0
VERTEX
  8
0
 10
1455.819356
 20
1857.413818
 42
0.000000
  0
VERTEX
  8
0
 10
1449.500000
 20
1859.790219
 42
0.000000
  0
SEQEND
  0
POLYLINE
  8
0
 66
1
 70
1
  0
VERTEX
  8
0
 10
614.000000
 20
1295.383423
 42
0.000000
  0
VERTEX
  8
0
 10
614.000000
 20
1252.766846
 42
0.000000
  0
VERTEX
  8
0
 10
616.750000
 20
1253.359811
 42
-0.009339
  0
VERTEX
  8
0
 10
626.726822
 20
1255.316815
 42
-0.019386
  0
VERTEX
  8
0
 10
634.585376
 20
1256.394232
 42
-0.020894
  0
VERTEX
  8
0
 10
642.119790
 20
1256.814353
 42
-0.012877
  0
VERTEX
  8
0
 10
651.000000
 20
1256.709275
 42
-0.031106
  0
VERTEX
  8
0
 10
665.913906
 20
1255.216259
 42
-0.048169
  0
VERTEX
  8
0
 10
678.417525
 20
1251.913684
 42
-0.051978
  0
VERTEX
  8
0
 10
689.355434
 20
1246.516846
 42
-0.044914
  0
VERTEX
  8
0
 10
699.538482
 20
1238.743624
 42
-0.042709
  0
VERTEX
  8
0
 10
708.328533
 20
1229.187612
 42
-0.044024
  0
VERTEX
  8
0
 10
715.267551
 20
1218.369239
 42
-0.039321
  0
VERTEX
  8
0
 10
720.788271
 20
1205.445784
 42
-0.024096
  0
VERTEX
  8
0
 10
725.320720
 20
1189.500000
 42
-0.049559
  0
VERTEX
  8
0
 10
726.682507
 20
1179.060856
 42
-0.004773
  0
VERTEX
  8
0
 10
727.223954
 20
1153.446729
 42
-0.002119
  0
VERTEX
  8
0
 10
727.576902
 20
1105.434534
 42
-0.000123
  0
VERTEX
  8
0
 10
727.998129
 20
958.500000
 42
0.000128
  0
VERTEX
  8
0
 10
728.419193
 20
812.117293
 42
0.002100
  0
VERTEX
  8
0
 10
728.777729
 20
763.216533
 42
0.005523
  0
VERTEX
  8
0
 10
729.366182
 20
737.158380
 42
0.032172
  0
VERTEX
  8
0
 10
730.708265
 20
723.500000
 42
0.054620
  0
VERTEX
  8
0
 10
746.094897
 20
668.205175
 42
0.072928
  0
VERTEX
  8
0
 10
772.228691
 20
623.203424
 42
0.076712
  0
VERTEX
  8
0
 10
808.980289
 20
589.242973
 42
0.068838
  0
VERTEX
  8
0
 10
855.603977
 20
566.411904
 42
0.022768
  0
VERTEX
  8
0
 10
876.448325
 20
560.589691
 42
0.022558
  0
VERTEX
  8
0
 10
897.800009
 20
556.665956
 42
0.021886
  0
VERTEX
  8
0
 10
920.028066
 20
554.595807
 42
0.018833
  0
VERTEX
  8
0
 10
943.500000
 20
554.327349
 42
0.017153
  0
VERTEX
  8
0
 10
962.898569
 20
555.502931
 42
0.031592
  0
VERTEX
  8
0
 10
978.506885
 20
557.989680
 42
0.033944
  0
VERTEX
  8
0
 10
992.909170
 20
562.272136
 42
0.023677
  0
VERTEX
  8
0
 10
1008.500000
 20
568.941665
 42
0.044865
  0
VERTEX
  8
0
 10
1028.220443
 20
580.796034
 42
0.039498
  0
VERTEX
  8
0
 10
1046.433788
 20
596.446769
 42
0.037183
  0
VERTEX
  8
0
 10
1062.945100
 20
615.748493
 42
0.030804
  0
VERTEX
  8
0
 10
1077.583302
 20
638.500000
 42
0.000000
  0
VERTEX
  8
0
 10
1081.500000
 20
645.500000
 42
0.000000
  0
VERTEX
  8
0
 10
1081.763128
 20
611.250000
 42
0.000000
  0
VERTEX
  8
0
 10
1082.026255
 20
577.000000
 42
0.000000
  0
VERTEX
  8
0
 10
1254.513128
 20
577.000000
 42
0.000000
  0
VERTEX
  8
0
 10
1427.000000
 20
577.000000
 42
0.000000
  0
VERTEX
  8
0
 10
1427.000000
 20
609.560240
 42
0.000000
  0
VERTEX
  8
0
 10
1427.000000
 20
642.120481
 42
0.000000
  0
VERTEX
  8
0
 10
1415.250000
 20
641.456970
 42
-0.019489
  0
VERTEX
  8
0
 10
1404.680539
 20
641.272661
 42
-0.014313
  0
VERTEX
  8
0
 10
1392.973203
 20
641.860400
 42
-0.014326
  0
VERTEX
  8
0
 10
1381.334921
 20
643.115573
 42
-0.019703
  0
VERTEX
  8
0
 10
1370.975788
 20
644.952317
 42
-0.057025
  0
VERTEX
  8
0
 10
1344.656053
 20
653.932497
 42
-0.069927
  0
VERTEX
  8
0
 10
1322.979195
 20
668.207795
 42
-0.072437
  0
VERTEX
  8
0
 10
1306.645612
 20
687.435785
 42
-0.067631
  0
VERTEX
  8
0
 10
1296.009931
 20
710.966653
 42
-0.045514
  0
VERTEX
  8
0
 10
1292.978724
 20
726.037336
 42
-0.020187
  0
VERTEX
  8
0
 10
1291.616348
 20
746.294768
 42
-0.006327
  0
VERTEX
  8
0
 10
1291.092455
 20
783.367691
 42
-0.000360
  0
VERTEX
  8
0
 10
1291.005895
 20
897.750000
 42
0.000000
  0
VERTEX
  8
0
 10
1291.000000
 20
1058.000000
 42
0.000000
  0
VERTEX
  8
0
 10
1355.000000
 20
1058.000000
 42
0.000000
  0
VERTEX
  8
0
 10
1419.000000
 20
1058.000000
 42
0.000000
  0
VERTEX
  8
0
 10
1419.000000
 20
1095.085320
 42
0.000000
  0
VERTEX
  8
0
 10
1419.000000
 20
1132.170640
 42
0.000000
  0
VERTEX
  8
0
 10
1411.750000
 20
1131.508429
 42
-0.032331
  0
VERTEX
  8
0
 10
1403.407192
 20
1131.287731
 42
-0.011761
  0
VERTEX
  8
0
 10
1391.594512
 20
1132.017651
 42
-0.011947
  0
VERTEX
  8
0
 10
1379.283147
 20
1133.366500
 42
-0.019968
  0
VERTEX
  8
0
 10
1369.021099
 20
1135.159222
 42
-0.028375
  0
VERTEX
  8
0
 10
1353.920282
 20
1139.332232
 42
-0.031026
  0
VERTEX
  8
0
 10
1339.846936
 20
1145.090533
 42
-0.032182
  0
VERTEX
  8
0
 10
1327.078445
 20
1152.312627
 42
-0.036295
  0
VERTEX
  8
0
 10
1315.875301
 20
1160.858609
 42
-0.044093
  0
VERTEX
  8
0
 10
1308.210819
 20
1168.947662
 42
-0.028790
  0
VERTEX
  8
0
 10
1300.811820
 20
1179.472023
 42
-0.028293
  0
VERTEX
  8
0
 10
1294.494333
 20
1191.074011
 42
-0.035921
  0
VERTEX
  8
0
 10
1290.081799
 20
1202.442419
 42
-0.030381
  0
VERTEX
  8
0
 10
1287.259705
 20
1214.091194
 42
-0.028457
  0
VERTEX
  8
0
 10
1285.792604
 20
1226.253778
 42
-0.013904
  0
VERTEX
  8
0
 10
1285.149678
 20
1244.439734
 42
-0.001865
  0
VERTEX
  8
0
 10
1285.004021
 20
1282.750000
 42
0.000000
  0
VERTEX
  8
0
 10
1285.000000
 20
1338.000000
 42
0.000000
  0
VERTEX
  8
0
 10
1183.500000
 20
1338.000000
 42
0.000000
  0
VERTEX
  8
0
 10
1082.000000
 20
1338.000000
 42
0.000000
  0
VERTEX
  8
0
 10
1081.977162
 20
1057.250000
 42
-0.000112
  0
VERTEX
  8
0
 10
1081.923512
 20
881.804735
 42
-0.001437
  0
VERTEX
  8
0
 10
1081.699726
 20
816.079592
 42
-0.001706
  0
VERTEX
  8
0
 10
1081.333588
 20
778.302343
 42
-0.059414
  0
VERTEX
  8
0
 10
1080.170397
 20
769.527547
 42
0.000000
  0
VERTEX
  8
0
 10
1078.386469
 20
762.555095
 42
0.000000
  0
VERTEX
  8
0
 10
1070.920712
 20
759.339089
 42
-0.018345
  0
VERTEX
  8
0
 10
1062.872523
 20
756.216940
 42
-0.014384
  0
VERTEX
  8
0
 10
1053.939680
 20
753.408532
 42
-0.014272
  0
VERTEX
  8
0
 10
1044.768549
 20
751.093136
 42
-0.017011
  0
VERTEX
  8
0
 10
1036.000000
 20
749.454571
 42
-0.035527
  0
VERTEX
  8
0
 10
1019.762667
 20
748.157780
 42
-0.049067
  0
VERTEX
  8
0
 10
1005.209409
 20
749.462069
 42
-0.052992
  0
VERTEX
  8
0
 10
992.086315
 20
753.425702
 42
-0.053311
  0
VERTEX
  8
0
 10
980.117900
 20
760.053384
 42
-0.074210
  0
VERTEX
  8
0
 10
966.893894
 20
772.632162
 42
-0.058541
  0
VERTEX
  8
0
 10
956.635131
 20
789.542393
 42
-0.050064
  0
VERTEX
  8
0
 10
949.354958
 20
810.914612
 42
-0.031873
  0
VERTEX
  8
0
 10
945.047599
 20
836.855955
 42
-0.023873
  0
VERTEX
  8
0
 10
944.542586
 20
846.361493
 42
-0.000311
  0
VERTEX
  8
0
 10
944.261618
 20
905.908145
 42
-0.000748
  0
VERTEX
  8
0
 10
944.060266
 20
983.358905
 42
-0.000276
  0
VERTEX
  8
0
 10
944.000000
 20
1092.605955
 42
0.000000
  0
VERTEX
  8
0
 10
944.000000
 20
1338.000000
 42
0.000000
  0
VERTEX
  8
0
 10
779.000000
 20
1338.000000
 42
0.000000
  0
VERTEX
  8
0
 10
614.000000
 20
1338.000000
 42
0.000000
  0
SEQEND
  0
POLYLINE
  8
0
 66
1
 70
1
  0
VERTEX
  8
0
 10
751.116873
 20
168.369307
 42
0.101997
  0
VERTEX
  8
0
 10
748.770006
 20
165.882683
 42
0.061345
  0
VERTEX
  8
0
 10
747.069908
 20
162.182193
 42
0.044533
  0
VERTEX
  8
0
 10
745.923106
 20
157.032577
 42
0.019224
  0
VERTEX
  8
0
 10
745.279085
 20
150.026792
 42
0.028371
  0
VERTEX
  8
0
 10
745.310212
 20
141.134822
 42
0.023753
  0
VERTEX
  8
0
 10
746.324775
 20
131.753057
 42
0.024475
  0
VERTEX
  8
0
 10
748.144368
 20
122.964681
 42
0.042208
  0
VERTEX
  8
0
 10
750.615879
 20
115.921137
 42
0.080042
  0
VERTEX
  8
0
 10
756.260346
 20
107.335426
 42
0.115998
  0
VERTEX
  8
0
 10
763.727077
 20
102.243461
 42
0.146796
  0
VERTEX
  8
0
 10
771.397024
 20
101.659128
 42
0.160043
  0
VERTEX
  8
0
 10
777.819040
 20
105.446679
 42
0.090641
  0
VERTEX
  8
0
 10
780.236215
 20
109.481471
 42
0.041078
  0
VERTEX
  8
0
 10
781.925737
 20
115.427478
 42
0.038100
  0
VERTEX
  8
0
 10
782.745702
 20
122.310276
 42
0.037460
  0
VERTEX
  8
0
 10
782.519361
 20
129.277518
 42
0.018901
  0
VERTEX
  8
0
 10
781.571224
 20
135.763365
 42
0.010421
  0
VERTEX
  8
0
 10
779.949083
 20
143.612472
 42
0.008700
  0
VERTEX
  8
0
 10
778.140198
 20
150.939493
 42
0.055855
  0
VERTEX
  8
0
 10
776.757820
 20
154.492694
 42
0.110457
  0
VERTEX
  8
0
 10
776.129880
 20
155.234216
 42
0.547999
  0
VERTEX
  8
0
 10
775.715144
 20
155.080714
 42
0.050240
  0
VERTEX
  8
0
 10
775.530750
 20
153.460274
 42
0.003228
  0
VERTEX
  8
0
 10
775.500000
 20
148.696665
 42
-0.022586
  0
VERTEX
  8
0
 10
775.207489
 20
142.224435
 42
-0.059453
  0
VERTEX
  8
0
 10
774.245145
 20
137.689268
 42
-0.099831
  0
VERTEX
  8
0
 10
772.664865
 20
134.972670
 42
-0.214431
  0
VERTEX
  8
0
 10
770.501124
 20
134.000000
 42
-0.105107
  0
VERTEX
  8
0
 10
768.359687
 20
134.455188
 42
-0.171224
  0
VERTEX
  8
0
 10
767.024738
 20
135.719044
 42
-0.113648
  0
VERTEX
  8
0
 10
766.452347
 20
137.986583
 42
-0.033987
  0
VERTEX
  8
0
 10
766.620978
 20
141.571208
 42
0.055091
  0
VERTEX
  8
0
 10
766.645683
 20
146.628358
 42
0.026505
  0
VERTEX
  8
0
 10
765.622998
 20
153.039602
 42
0.026465
  0
VERTEX
  8
0
 10
763.940154
 20
159.262829
 42
0.059209
  0
VERTEX
  8
0
 10
761.877504
 20
163.698202
 42
0.035236
  0
VERTEX
  8
0
 10
760.876098
 20
165.089060
 42
0.025261
  0
VERTEX
  8
0
 10
759.576847
 20
166.497845
 42
0.025657
  0
VERTEX
  8
0
 10
758.195734
 20
167.719009
 42
0.048904
  0
VERTEX
  8
0
 10
756.953117
 20
168.524244
 42
0.007559
  0
VERTEX
  8
0
 10
754.638921
 20
169.676961
 42
0.118945
  0
VERTEX
  8
0
 10
753.782723
 20
169.859664
 42
0.136034
  0
VERTEX
  8
0
 10
752.978494
 20
169.613572
 42
0.010914
  0
SEQEND
  0
POLYLINE
  8
0
 66
1
 70
1
  0
VERTEX
  8
0
 10
915.055063
 20
148.342872
 42
0.037206
  0
VERTEX
  8
0
 10
914.196775
 20
147.066907
 42
0.055085
  0
VERTEX
  8
0
 10
913.662692
 20
145.830320
 42
0.063996
  0
VERTEX
  8
0
 10
913.462560
 20
144.663209
 42
0.084128
  0
VERTEX
  8
0
 10
913.597982
 20
143.592872
 42
0.042648
  0
VERTEX
  8
0
 10
915.313073
 20
139.285824
 42
0.012702
  0
VERTEX
  8
0
 10
918.645080
 20
133.033020
 42
0.005506
  0
VERTEX
  8
0
 10
922.321277
 20
126.701130
 42
0.264353
  0
VERTEX
  8
0
 10
923.554730
 20
126.000000
 42
0.189314
  0
VERTEX
  8
0
 10
924.955507
 20
126.550087
 42
0.058263
  0
VERTEX
  8
0
 10
926.455240
 20
128.309087
 42
0.056205
  0
VERTEX
  8
0
 10
927.612898
 20
130.547374
 42
0.091511
  0
VERTEX
  8
0
 10
928.000000
 20
132.644730
 42
0.109033
  0
VERTEX
  8
0
 10
927.278546
 20
135.913811
 42
0.011537
  0
VERTEX
  8
0
 10
923.809049
 20
142.960970
 42
0.007195
  0
VERTEX
  8
0
 10
919.951562
 20
150.107552
 42
0.271773
  0
VERTEX
  8
0
 10
918.430931
 20
151.000000
 42
0.133866
  0
VERTEX
  8
0
 10
917.798689
 20
150.827640
 42
0.033643
  0
VERTEX
  8
0
 10
916.908889
 20
150.219469
 42
0.031921
  0
VERTEX
  8
0
 10
915.949655
 20
149.359924
 42
0.027461
  0
SEQEND
  0
POLYLINE
  8
0
 66
1
 70
1
  0
VERTEX
  8
0
 10
917.000000
 20
109.810475
 42
0.010953
  0
VERTEX
  8
0
 10
910.814653
 20
102.354856
 42
0.073625
  0
VERTEX
  8
0
 10
908.416969
 20
98.202475
 42
0.173210
  0
VERTEX
  8
0
 10
908.315590
 20
95.191070
 42
0.132840
  0
VERTEX
  8
0
 10
910.115158
 20
92.404988
 42
0.088457
  0
VERTEX
  8
0
 10
911.561535
 20
91.504793
 42
0.229701
  0
VERTEX
  8
0
 10
912.753863
 20
91.589961
 42
0.070734
  0
VERTEX
  8
0
 10
914.309475
 20
92.807556
 42
0.004048
  0
VERTEX
  8
0
 10
918.495809
 20
97.235498
 42
0.018902
  0
VERTEX
  8
0
 10
922.878236
 20
102.319077
 42
0.081159
  0
VERTEX
  8
0
 10
924.829245
 20
105.793146
 42
0.133200
  0
VERTEX
  8
0
 10
925.083496
 20
108.780813
 42
0.091866
  0
VERTEX
  8
0
 10
923.870712
 20
111.972200
 42
0.005976
  0
VERTEX
  8
0
 10
923.145812
 20
113.132731
 42
0.009383
  0
VERTEX
  8
0
 10
922.492528
 20
114.110439
 42
0.004026
  0
VERTEX
  8
0
 10
921.919247
 20
114.920515
 42
0.241733
  0
VERTEX
  8
0
 10
921.764698
 20
114.999509
 42
0.208469
  0
VERTEX
  8
0
 10
921.591400
 20
114.923589
 42
0.001012
  0
VERTEX
  8
0
 10
920.255880
 20
113.475028
 42
0.004366
  0
VERTEX
  8
0
 10
918.744193
 20
111.799580
 42
0.002720
  0
SEQEND
  0
ENDSEC
  0
EOF
